<svg width="124" height="55" viewBox="0 0 124 55" fill="none" xmlns="http://www.w3.org/2000/svg">
<path fill-rule="evenodd" clip-rule="evenodd" d="M42.7122 8.0135H108.726C110.08 8.0135 111.19 9.119 111.19 10.472V44.5252C111.19 45.8782 110.08 46.9837 108.726 46.9837H42.7122C41.3526 46.9837 40.2405 45.8782 40.2405 44.5252V39.1545C38.9977 38.8107 36.3146 38.3762 30.6538 38.665C22.0681 39.116 14.8975 42.5095 13.9967 42.8505C13.0986 43.1997 12.7233 43.1997 12.7233 42.1355C12.7233 41.0685 12.4814 25.7015 12.4814 25.289C12.4814 24.6895 16.3211 24.2302 16.0236 21.1503C15.7428 18.216 12.7622 18.1858 12.5843 17.3608C12.4508 16.7063 12.1867 9.57 12.6232 9.08875C13.0542 8.613 18.8957 8.26375 27.4814 9.1575C36.0672 10.0512 40.2433 13.7555 40.2433 13.7555V10.4748C40.2405 9.119 41.3526 8.0135 42.7122 8.0135ZM33.2284 29.359V27.1645C32.2831 27.2415 29.4749 27.1177 29.4749 28.479C29.4749 30.0905 32.3582 29.8815 33.2284 29.359ZM31.132 18.931C34.5491 18.931 37.7465 20.1217 37.7465 23.9497V30.1042C37.7465 32.6727 33.0616 33.1237 31.3489 33.1237C28.3294 33.1237 24.9457 32.1887 24.9457 28.6495C24.9457 24.1752 29.9504 24.431 33.1951 24.09C33.1951 21.373 28.1432 22.5637 26.6334 23.188C25.7965 22.605 25.4685 21.0402 26.1163 20.2317C27.0255 19.118 29.7168 18.931 31.132 18.931ZM51.7206 26.6365C51.7206 32.2327 56.475 33.4537 60.7512 31.1355C61.5241 31.7735 61.8689 32.6067 61.8689 33.5857C61.8689 36.1762 58.0765 36.6272 56.1775 36.6272C49.8133 36.6272 46.1599 32.7525 46.1599 26.6365C46.1599 14.256 61.8077 15.081 61.8077 20.0062C61.8077 20.9797 61.285 21.8047 60.4787 22.3245C56.336 19.6102 51.7206 21.1585 51.7206 26.6365ZM79.9023 28.534C79.9023 33.6242 76.7049 36.564 71.792 36.564C66.9764 36.564 63.69 33.506 63.69 28.534C63.69 23.7325 66.8485 20.526 71.792 20.526C76.6965 20.5287 79.9023 23.7655 79.9023 28.534ZM69.0728 28.534C69.0728 30.3325 69.6372 32.4417 71.8254 32.4417C73.9912 32.4417 74.514 30.3022 74.514 28.534C74.514 26.7437 73.9662 24.651 71.792 24.651C69.6289 24.651 69.0728 26.7465 69.0728 28.534ZM82.3434 16.808C82.3434 15.1415 83.564 14.014 85.2211 14.014C86.8782 14.014 88.0988 15.1415 88.0988 16.808C88.0988 18.4745 86.8782 19.602 85.2211 19.602C83.564 19.602 82.3434 18.4745 82.3434 16.808ZM87.8485 36.036C85.6048 36.4485 82.5937 36.9627 82.5937 33.8332V21.2107C84.7846 20.8147 87.8485 20.2757 87.8485 23.4135V36.036ZM100.71 26.5182C100.71 24.1835 97.7633 24.332 96.4399 25.2725V36.036C94.2906 36.6822 91.185 36.7455 91.185 33.8332V24.5273C91.185 21.384 96.4176 20.5287 98.7003 20.5287C102.518 20.5287 105.974 22.055 105.974 26.334V36.0387C103.699 36.7235 100.71 36.707 100.71 33.836V26.5182ZM43.3767 17.2205V38.5357C43.3767 38.5357 35.589 36.3027 27.5176 37.6805C19.4462 39.05 13.7548 41.7257 13.7548 41.7257L13.4823 26.0067C13.4823 26.0067 17.0023 25.322 17.2442 21.549C17.4777 17.776 13.8271 16.951 13.8271 16.951L13.7242 10.087C13.7242 10.087 24.4453 9.3335 31.5852 11.154C38.7252 12.9635 43.3767 17.2205 43.3767 17.2205Z" fill="black"/>
</svg>
