<svg width="59" height="55" viewBox="0 0 59 55" fill="none" xmlns="http://www.w3.org/2000/svg">
<g clip-path="url(#clip0_469_729)">
<path d="M20.2603 0.0769834C20.4889 0.00166852 20.731 -0.0241 20.9703 0.0013962C21.2376 -0.0249797 21.5075 -0.00075783 21.7658 0.0727865C21.98 0.0716242 22.1932 0.101319 22.3989 0.160964C22.6066 0.17125 22.8133 0.1951 23.0179 0.232355C23.137 0.265948 23.256 0.296741 23.3751 0.333134C23.4977 0.35776 23.6188 0.389543 23.7378 0.428317L23.9101 0.475904C24.0291 0.520696 24.1495 0.561291 24.27 0.607482L24.5361 0.699867C24.7196 0.779653 24.9087 0.849643 25.0963 0.928028C25.2364 1.00501 25.3876 1.0778 25.5361 1.14918C25.924 1.34235 26.2644 1.6167 26.6355 1.84066L26.8862 2.04502C27.1663 2.21718 27.3512 2.49854 27.6369 2.65671C27.7601 2.76812 27.8774 2.88586 27.9884 3.00944C28.1443 3.24116 28.3267 3.45395 28.5318 3.64352C28.6355 3.80729 28.7573 3.95707 28.8694 4.11804C28.9825 4.25416 29.0851 4.39875 29.1761 4.55055C29.2489 4.68073 29.3302 4.80531 29.4058 4.93269L29.5318 5.18324L29.6215 5.368C29.6691 5.46318 29.7195 5.55696 29.7685 5.64794C29.8666 5.85511 29.945 6.06787 30.0374 6.28203C30.0697 6.36881 30.1019 6.4556 30.1327 6.54519C30.1635 6.63477 30.1915 6.72575 30.2209 6.81674C30.2503 6.90772 30.2853 6.9959 30.3175 7.08548C30.3512 7.20306 30.3806 7.32064 30.4114 7.43962C30.4478 7.61459 30.466 7.79235 30.4912 7.97012C30.5333 8.14839 30.5628 8.32941 30.5794 8.51182C30.6497 8.92219 30.6699 9.33956 30.6397 9.75479C30.6736 10.1423 30.6509 10.5327 30.5724 10.9138C30.5681 11.1239 30.5423 11.3331 30.4954 11.5381C30.4702 11.6864 30.445 11.8348 30.4058 11.9804C30.3843 12.1041 30.351 12.2255 30.3063 12.3429L30.2573 12.5151C30.2097 12.6551 30.1775 12.8118 30.1397 12.9602L30.0332 13.1408L29.9492 13.3255C29.9086 13.4515 29.861 13.5761 29.8091 13.7007C29.7606 13.7837 29.7139 13.8668 29.6691 13.9498C29.6243 14.0478 29.5767 14.143 29.529 14.241L29.4352 14.4229L29.312 14.6763C29.2349 14.8051 29.1509 14.9296 29.0739 15.0584C29.0038 15.1382 28.9338 15.2194 28.8652 15.302C28.7587 15.4643 28.6341 15.6141 28.5249 15.7737C28.4285 15.8915 28.3391 16.0148 28.2573 16.1432C27.9946 16.4221 27.7174 16.687 27.4268 16.9369C27.2406 17.0768 27.0809 17.2504 26.9058 17.4044C26.4128 17.6927 25.9717 18.0636 25.4563 18.3128C25.207 18.4318 24.9577 18.5508 24.7196 18.6907L24.5403 18.7033L24.354 18.8349C24.2378 18.8601 24.1202 18.8811 24.0039 18.9035L23.7238 18.9987L23.4521 19.0995C23.3072 19.135 23.1604 19.1621 23.0123 19.1806C22.8639 19.217 22.7126 19.2436 22.5641 19.2758C22.3293 19.3249 22.0898 19.3483 21.8499 19.3458C21.562 19.4254 21.2618 19.4505 20.9647 19.42C20.6649 19.4509 20.362 19.4262 20.0712 19.3472C19.8313 19.3484 19.592 19.3249 19.3569 19.2772C19.207 19.245 19.0572 19.217 18.9087 19.1806C18.7582 19.1617 18.609 19.1337 18.462 19.0967C18.345 19.0695 18.2299 19.0349 18.1174 18.9931C17.9401 18.9263 17.7592 18.8698 17.5754 18.8237L17.3905 18.7229L17.1216 18.6459C17.0012 18.5788 16.8807 18.5172 16.7617 18.4514L16.2127 18.1854C15.9746 18.0328 15.7449 17.8635 15.4942 17.7319C15.3303 17.6283 15.1847 17.5037 15.0208 17.403C14.8577 17.2321 14.6758 17.0799 14.4788 16.9495C14.195 16.6956 13.9256 16.4259 13.6721 16.1418C13.5412 15.9447 13.388 15.7634 13.2155 15.6015C13.0278 15.2866 12.8094 14.9898 12.6189 14.6763C12.5334 14.5223 12.4368 14.3739 12.3458 14.2242L12.2155 13.9764C12.0951 13.7343 11.9998 13.4823 11.8962 13.2331L11.7912 12.97C11.7604 12.851 11.7394 12.7292 11.7155 12.6103L11.6147 12.3373C11.5811 12.2183 11.5531 12.0994 11.5265 11.9804C11.4872 11.8404 11.462 11.685 11.4382 11.5367C11.4144 11.3883 11.3752 11.2371 11.3444 11.0873C11.2832 10.6769 11.2659 10.2612 11.2926 9.84717C11.2623 9.37097 11.282 8.89292 11.3514 8.42083C11.3702 8.24073 11.3987 8.06176 11.4368 7.88473C11.4634 7.73636 11.49 7.58659 11.5265 7.44102C11.5531 7.32204 11.5811 7.20306 11.6147 7.08548L11.7155 6.81253C11.738 6.69635 11.7589 6.58017 11.7856 6.46539L11.8976 6.28063C11.9242 6.18965 11.9536 6.10006 11.9858 6.01048C12.0503 5.86211 12.1063 5.70954 12.1651 5.55837L12.3444 5.19583C12.4368 5.04606 12.5335 4.89909 12.6245 4.74372C12.7547 4.52396 12.9046 4.3154 13.0446 4.09844C13.1399 3.97806 13.2351 3.85629 13.3248 3.72751C13.493 3.56353 13.6437 3.38245 13.7743 3.18721C13.9987 2.9341 14.2376 2.69433 14.49 2.46914C14.6945 2.34596 14.8598 2.17239 15.0586 2.04921L15.3065 1.84206C15.6188 1.65169 15.9172 1.43613 16.2267 1.23877L16.4802 1.11699C16.602 1.0596 16.7211 0.99801 16.8429 0.937821L17.0236 0.83844C17.1762 0.774052 17.3331 0.715259 17.4872 0.65227L17.6636 0.620083C17.7841 0.568293 17.9073 0.524903 18.0278 0.480111L18.2015 0.436711C18.3202 0.397196 18.4414 0.365401 18.5642 0.341528C18.6832 0.305135 18.8023 0.274342 18.9213 0.240748C19.1255 0.203866 19.3318 0.180029 19.539 0.169369C19.7733 0.101954 20.0165 0.0707958 20.2603 0.0769834Z" fill="black"/>
<path d="M31.2978 18.2064C31.4052 18.1724 31.517 18.1541 31.6297 18.1518C38.1656 18.1574 44.7014 18.1574 51.2373 18.1518C51.5876 18.1282 51.9393 18.1433 52.2863 18.1966C52.4404 18.2372 52.5916 18.2834 52.7415 18.3366C52.7933 18.4416 52.8479 18.5465 52.9067 18.6487C52.9741 18.8616 52.9702 19.0906 52.8955 19.301C52.8738 19.4494 52.8444 19.5966 52.8073 19.7419C52.7865 19.8667 52.7531 19.9891 52.7079 20.1072C52.684 20.257 52.6672 20.4082 52.6294 20.5566C52.6 20.6756 52.572 20.7945 52.5384 20.9121L52.4361 21.192C52.4109 21.3446 52.3885 21.4986 52.3535 21.6512C52.3327 21.8007 52.3028 21.9489 52.2639 22.0949C52.2447 22.22 52.2114 22.3426 52.1644 22.4602C52.1406 22.6086 52.1252 22.7612 52.0874 22.9095C52.0552 23.0285 52.0272 23.1503 51.9894 23.2679C51.9672 23.3922 51.9358 23.5148 51.8956 23.6346C51.8717 23.783 51.8521 23.9355 51.8157 24.0825C51.7835 24.2029 51.7541 24.3233 51.7177 24.4423C51.6949 24.5661 51.6636 24.6881 51.6238 24.8076C51.6 24.9559 51.5804 25.1085 51.544 25.2555C51.5118 25.3759 51.4824 25.4962 51.446 25.6152C51.4228 25.7389 51.3914 25.861 51.3521 25.9806C51.3283 26.1303 51.3073 26.2815 51.2723 26.4299C51.2415 26.5502 51.2135 26.6707 51.1771 26.7896C51.1529 26.9151 51.1197 27.0385 51.0776 27.1591C51.0552 27.3355 51.0454 27.5133 51.0132 27.6883L50.8984 27.9598C50.8816 28.0859 50.853 28.21 50.8129 28.3307C50.7835 28.4819 50.7653 28.6345 50.7261 28.7828C50.6869 28.9312 50.6771 29.0824 50.6393 29.2294C50.6099 29.3483 50.5791 29.4701 50.544 29.5877C50.5194 29.7114 50.4872 29.8334 50.4474 29.953C50.4309 30.1016 50.4065 30.2493 50.3746 30.3953C50.3382 30.4863 50.3003 30.5787 50.2639 30.6753C50.2401 30.8293 50.2191 30.9833 50.1827 31.1344C50.1636 31.2843 50.1336 31.4326 50.093 31.5781C50.0753 31.703 50.0424 31.8252 49.995 31.9421C49.9712 32.0918 49.9558 32.2444 49.9194 32.3928C49.8872 32.5118 49.8577 32.6335 49.8213 32.7525C49.7994 32.8765 49.7681 32.9986 49.7275 33.1178C49.7037 33.2662 49.6841 33.4188 49.6477 33.5658C49.6155 33.6862 49.586 33.8065 49.5496 33.9255C49.5258 34.0491 49.4945 34.171 49.4558 34.2908C49.432 34.4392 49.411 34.5918 49.376 34.7401C49.3438 34.8591 49.3157 34.9809 49.2793 35.0999C49.2542 35.224 49.2214 35.3465 49.1813 35.4666C49.1365 35.6178 49.2107 35.8669 49.0272 35.9383C48.5875 35.9663 48.1477 35.9383 47.7079 35.9467V38.1135C48.5314 38.1135 49.355 38.1219 50.1785 38.1065C50.2681 38.0575 50.3577 38.0099 50.4502 37.9665C50.6605 37.8469 50.8306 37.6676 50.939 37.4514C50.9614 37.3506 50.988 37.2513 51.0188 37.1519C51.0426 37.0007 51.0636 36.851 51.0986 36.7026C51.1281 36.5822 51.1589 36.4604 51.1939 36.3428C51.2289 36.2253 51.2499 36.1007 51.2835 35.9831C51.3065 35.859 51.3393 35.7368 51.3815 35.6178C51.3958 35.4664 51.4229 35.3166 51.4628 35.1699C51.4821 35.0448 51.5155 34.9222 51.5622 34.8045C51.5801 34.6535 51.6058 34.5036 51.6392 34.3552C51.67 34.2348 51.6995 34.1144 51.7373 33.9955C51.7585 33.8713 51.7899 33.7492 51.8311 33.6302C51.8499 33.4796 51.8765 33.33 51.9109 33.1822C51.9404 33.0618 51.9698 32.9401 52.0076 32.8225C52.0278 32.6982 52.0593 32.5759 52.1014 32.4572C52.1238 32.306 52.1434 32.1562 52.1812 32.0079C52.212 31.8875 52.2415 31.7671 52.2793 31.6481C52.3008 31.524 52.3322 31.4019 52.3731 31.2828C52.3956 31.1316 52.4165 30.9818 52.4529 30.8334C52.4824 30.7131 52.5132 30.5913 52.551 30.4737C52.5721 30.3496 52.6035 30.2274 52.6449 30.1084C52.6673 29.9572 52.6882 29.8075 52.7246 29.6591C52.7541 29.5387 52.7849 29.4183 52.8213 29.2994C52.8424 29.1753 52.8733 29.0532 52.9137 28.934C52.9345 28.7808 52.9639 28.629 53.002 28.4791C53.0181 28.331 53.0443 28.1841 53.0804 28.0396L53.1883 27.7596C53.2107 27.6071 53.2316 27.4559 53.2625 27.3061C53.2947 27.1857 53.3255 27.0654 53.3633 26.9464C53.3841 26.8222 53.4155 26.6999 53.4571 26.581C53.476 26.43 53.5026 26.28 53.537 26.1317C53.5664 26.0114 53.5944 25.8896 53.6322 25.772C53.6553 25.6463 53.6885 25.5228 53.7317 25.4025C53.7442 25.2224 53.7685 25.0433 53.8045 24.8664C53.8339 24.7474 53.8619 24.6284 53.8969 24.5122C53.9319 24.4184 53.9684 24.3261 54.0076 24.2323C54.0244 24.0545 54.0328 23.8754 54.0678 23.699L54.1854 23.419C54.2016 23.2667 54.2259 23.1153 54.2582 22.9655C54.2837 22.8416 54.3189 22.72 54.3633 22.6016C54.3776 22.4499 54.4043 22.2996 54.4431 22.1523C54.4626 22.0275 54.4964 21.9054 54.544 21.7884C54.5601 21.6371 54.5858 21.487 54.621 21.339C54.649 21.2186 54.677 21.0969 54.7163 20.9793C54.7389 20.8539 54.7727 20.7307 54.8171 20.6112L54.8689 20.3452C54.9847 20.4161 55.081 20.5147 55.149 20.6321C55.2167 20.7588 55.2935 20.8804 55.3787 20.9961C55.3787 21.0367 55.3913 21.1179 55.3955 21.1585C55.4655 21.2494 55.5356 21.3418 55.6028 21.4384C55.6406 21.5238 55.6812 21.6092 55.7218 21.6946L55.8073 21.8793C55.9053 22.0711 56.023 22.2517 56.1392 22.4392C56.2092 22.5792 56.2793 22.7332 56.3521 22.8802C56.4501 23.0719 56.5649 23.2525 56.6798 23.44L56.8087 23.6906L56.8913 23.8767C56.9907 24.0685 57.107 24.2491 57.2246 24.4367L57.3128 24.6214L57.4361 24.8748C57.5439 25.0931 57.6812 25.2947 57.8072 25.5033C57.8492 25.6012 57.8955 25.6964 57.9473 25.7944L58.135 26.1555L58.2456 26.4173C58.2673 26.5224 58.2804 26.6291 58.2848 26.7364V54.909C57.9303 55.0085 57.5601 55.0403 57.1938 55.0028H50.96C50.8068 54.9952 50.6558 54.9626 50.5132 54.9062V44.6153C50.5202 44.4753 50.5132 44.2598 50.3241 44.2654C49.6659 44.2514 49.0062 44.2486 48.348 44.2654C48.1631 44.2654 48.1603 44.481 48.1659 44.6125V54.9062C48.0242 54.9623 47.8742 54.9949 47.7219 55.0028C39.412 54.9962 31.1022 54.9962 22.7923 55.0028C22.6438 55.0196 22.5892 54.8516 22.6032 54.734V49.66C22.7831 49.6519 22.9627 49.6824 23.1298 49.7495C27.4113 49.7873 31.6941 49.7495 35.977 49.7663C36.6773 49.7593 37.3775 49.7831 38.068 49.7495C38.3312 49.6711 38.6062 49.6398 38.8803 49.6572C39.0319 49.6098 39.1862 49.572 39.3425 49.5438C39.5992 49.5231 39.8522 49.4685 40.0946 49.3814C40.1814 49.3464 40.2682 49.3142 40.3565 49.2834L40.54 49.1897L40.9923 49.0259C41.3088 48.8621 41.6016 48.6564 41.9041 48.466C42.0441 48.3372 42.1842 48.2042 42.3242 48.0783C42.4874 48.0018 42.6191 47.8712 42.6968 47.7087C42.792 47.5967 42.8929 47.489 42.9909 47.3798C43.124 47.1558 43.271 46.9459 43.411 46.7247C43.4545 46.6393 43.4993 46.5553 43.5511 46.4713C43.6099 46.3202 43.6646 46.1662 43.7206 46.015C43.7472 45.9227 43.7766 45.8303 43.8088 45.7351C43.841 45.6399 43.8648 45.5531 43.8971 45.4622C43.9293 45.3712 43.9699 45.2732 44.0077 45.1822C43.9955 44.9642 44.026 44.746 44.0973 44.5397C44.1235 43.9882 44.1235 43.4363 44.0973 42.8838C44.0263 42.6793 43.994 42.4633 44.0021 42.247C43.9657 42.121 43.9292 41.9964 43.8984 41.869C43.8662 41.778 43.8368 41.6871 43.8088 41.5891C43.757 41.4043 43.7108 41.2195 43.6477 41.039L43.5413 40.857L43.4139 40.6092L43.3312 40.4217C43.1912 40.2033 43.0371 39.9906 42.9111 39.7638C42.6183 39.4517 42.313 39.1549 42.0077 38.8568C41.8677 38.784 41.7458 38.7042 41.6142 38.63C41.491 38.5566 41.3717 38.4767 41.257 38.3907L41.0848 38.3725L40.8256 38.2241L40.6352 38.1317C40.4769 38.1121 40.3215 38.0883 40.166 38.0589L39.7094 37.9582C39.5234 37.9489 39.3397 37.914 39.1632 37.8546C38.889 37.8692 38.6142 37.8393 38.3495 37.7664C38.1057 37.7776 37.8618 37.7473 37.6282 37.6768C37.3832 37.6896 37.1378 37.6578 36.9041 37.583C36.6002 37.6012 36.2953 37.571 36.0008 37.4934C35.7263 37.5108 35.4509 37.48 35.1871 37.4025C34.5849 37.3412 33.9827 37.2805 33.3804 37.2205C33.0764 37.2405 32.7711 37.2102 32.477 37.1309C32.203 37.1496 31.9278 37.1188 31.6647 37.0399C31.3004 37.0608 30.935 37.0302 30.5793 36.9489C30.2754 36.9685 29.9703 36.9387 29.6759 36.8607C29.4029 36.8748 29.1294 36.8465 28.865 36.7767C28.7717 36.7656 28.6783 36.7567 28.5849 36.7502C28.5149 36.5528 28.4448 36.3568 28.372 36.1623L28.2558 35.9845C28.2306 35.8935 28.2068 35.8053 28.1857 35.7157L28.0849 35.5352L27.9687 35.1894C27.9294 35.0747 27.865 34.9963 27.8174 34.9011L27.6508 34.4476L27.5373 34.2712C27.5107 34.1817 27.4869 34.0921 27.4631 34.0025L27.3734 33.8177L27.2684 33.6357C27.2418 33.5462 27.2166 33.458 27.1928 33.3684L27.1003 33.1864L27.0065 33.0045C26.9505 32.8547 26.893 32.7049 26.8328 32.558C26.7485 32.3864 26.6751 32.2096 26.613 32.0288L26.5135 31.8469C26.4365 31.6621 26.3734 31.4731 26.295 31.287L26.1928 31.1078C26.1297 30.93 26.0639 30.7537 25.9883 30.5801L25.8734 30.3953L25.8328 30.2274C25.8019 30.165 25.7857 30.0962 25.7857 30.0265C25.7857 29.9568 25.8019 29.8881 25.8328 29.8256L25.8889 29.6591C25.9323 29.5401 25.9715 29.4211 26.0149 29.3035L26.1199 29.1244C26.1802 28.976 26.2362 28.8234 26.2978 28.6751C26.3468 28.5491 26.3959 28.4217 26.4379 28.2929C26.4827 28.2089 26.5275 28.1264 26.5779 28.0438C26.6354 27.8926 26.6914 27.74 26.746 27.5889L26.8441 27.4069L26.9168 27.1382L27.0303 26.9604C27.0905 26.8092 27.1451 26.658 27.2068 26.5083C27.2572 26.3837 27.3062 26.2577 27.3468 26.1289L27.4673 25.8728C27.5212 25.7173 27.5839 25.5649 27.6549 25.4165C27.7474 25.2065 27.8244 24.9966 27.9351 24.7866C27.9953 24.6382 28.0527 24.4884 28.1087 24.3373L28.204 24.1553L28.2768 23.8893L28.3874 23.7046C28.4089 23.6113 28.4322 23.5217 28.4574 23.4359L28.5653 23.2539C28.5886 23.1606 28.6139 23.0705 28.6409 22.9837L28.837 22.6226C28.858 22.5316 28.8832 22.4406 28.9085 22.3524L29.0247 22.1747L29.1885 21.7212L29.2866 21.5392L29.3594 21.2732L29.4687 21.0885C29.4911 20.9975 29.5149 20.9093 29.5401 20.8197L29.6479 20.6377L29.7375 20.4544C29.7614 20.3648 29.7866 20.2766 29.8146 20.1884L29.9112 20.0037C29.9616 19.8497 30.0247 19.6999 30.0877 19.5515C30.1115 19.5068 30.1605 19.4116 30.1857 19.3696C30.2334 19.2128 30.2908 19.0603 30.3524 18.9091C30.5283 18.6708 30.7378 18.4591 30.9742 18.2806L31.3286 18.2036M32.4168 22.8479C32.2261 23.0459 32.0687 23.2732 31.9504 23.5212C31.893 23.6724 31.8426 23.8264 31.7936 23.9803C31.7345 24.1469 31.6599 24.3077 31.5709 24.4605C31.5835 24.592 31.5709 24.8202 31.7557 24.8244C32.4336 24.8454 33.1115 24.8244 33.7907 24.8328C33.9551 24.7381 34.0903 24.6001 34.1815 24.4338L34.3383 23.9747L34.4434 23.7983C34.5078 23.6416 34.5666 23.482 34.6353 23.3267C34.6353 23.1657 34.6437 23.0061 34.6465 22.8465H32.4182M36.8719 23.4834L36.6604 23.601C36.6338 23.6948 36.603 23.7886 36.5722 23.881C36.5064 24.0307 36.4461 24.1833 36.3887 24.3359L36.3061 24.6158C36.2781 24.711 36.2431 24.7964 36.2123 24.8874C36.1815 24.9784 36.1563 25.0693 36.1268 25.1603C36.0974 25.2513 36.0568 25.3339 36.0204 25.4207C35.9562 25.5978 35.9016 25.7781 35.8565 25.961L35.7543 26.1457L35.6745 26.4257C35.6465 26.5209 35.6115 26.6048 35.5792 26.6958C35.547 26.7868 35.5246 26.8708 35.4966 26.9576L35.3902 27.1409L35.3117 27.4209C35.2851 27.5161 35.2501 27.6001 35.2193 27.691L35.1296 27.9626L35.0372 28.2341L34.9546 28.4959L34.8439 28.6792C34.8257 28.7982 34.8075 28.9158 34.7851 29.0348L34.6661 29.2196L34.5891 29.4995L34.4938 29.771L34.4112 30.0328L34.3005 30.2162C34.2848 30.3399 34.2628 30.4628 34.2347 30.5843L34.1241 30.8475C34.061 30.9958 34.0036 31.1484 33.9476 31.301C33.921 31.3934 33.8916 31.4858 33.8622 31.5809L33.7711 31.8511L33.6801 32.1226L33.5946 32.383L33.4966 32.5677C33.4616 32.6643 33.4266 32.7623 33.3888 32.8589C33.3888 32.9863 33.3776 33.115 33.3734 33.2438H45.8074L45.904 33.0114C45.9224 32.8878 45.95 32.7657 45.9867 32.6461C46.0133 32.5258 46.0399 32.4068 46.0721 32.2892C46.1043 32.1968 46.1393 32.1044 46.1771 32.0093C46.1981 31.8581 46.2192 31.7055 46.2514 31.5571C46.2808 31.4367 46.3102 31.315 46.3494 31.1974C46.3886 31.0798 46.404 30.9538 46.4376 30.8349C46.4712 30.7159 46.4965 30.5941 46.5301 30.4751C46.5637 30.3562 46.5861 30.233 46.6197 30.114C46.6533 29.995 46.6743 29.8718 46.7093 29.7528C46.7444 29.6339 46.7682 29.5107 46.8004 29.3903C46.8326 29.27 46.8578 29.1496 46.8928 29.0306C46.914 28.9058 46.9459 28.7832 46.9881 28.6639C47.0119 28.5127 47.0314 28.3629 47.0679 28.2145C47.0959 28.0956 47.1239 27.9766 47.1575 27.8604C47.1897 27.768 47.2247 27.6757 47.2611 27.5805C47.2835 27.4293 47.3046 27.2767 47.3368 27.127C47.3662 27.008 47.3942 26.889 47.4292 26.7728C47.461 26.6795 47.4955 26.5862 47.5328 26.4929C47.5538 26.3417 47.5749 26.1891 47.6071 26.0408C47.6393 25.9204 47.6701 25.7986 47.7051 25.681C47.7401 25.5634 47.7597 25.4389 47.7948 25.3199C47.816 25.1953 47.8488 25.073 47.8928 24.9546C47.9062 24.8052 47.93 24.6569 47.9642 24.5108L48.0749 24.2309C48.0755 24.0597 48.1173 23.8912 48.1967 23.7396C48.1701 23.566 48.0567 23.426 47.8704 23.5114C46.75 23.4316 45.6169 23.4946 44.4909 23.475C41.9489 23.475 39.4083 23.468 36.8663 23.475M30.9952 26.7518C30.7924 26.8942 30.6236 27.0797 30.5009 27.2949C30.4799 27.3915 30.456 27.4881 30.4322 27.5833C30.4084 27.6784 30.3706 27.7568 30.3398 27.8436L30.246 28.0298C30.2081 28.1306 30.1661 28.2313 30.1199 28.3293C30.1199 28.4693 30.1199 28.6989 30.316 28.6989C31.0162 28.6989 31.7235 28.7311 32.4168 28.6765C32.5352 28.5693 32.6371 28.4453 32.7193 28.3083C32.7403 28.2146 32.7655 28.1222 32.7921 28.0284C32.8748 27.8422 32.9476 27.6532 33.0218 27.4685C33.0764 27.3803 33.1325 27.2935 33.1899 27.2068C33.1731 27.043 33.2403 26.7546 33.0036 26.7308C32.3328 26.7308 31.6577 26.6958 30.9882 26.7532M29.4266 30.6949C29.3104 30.8278 29.1942 30.9608 29.0891 31.1022C29.0499 31.2198 29.0135 31.3402 28.9715 31.4578C28.907 31.6075 28.8482 31.7601 28.7936 31.9141L28.6871 32.0988L28.6507 32.2654C28.624 32.2898 28.6051 32.3215 28.5965 32.3566C28.5879 32.3918 28.59 32.4287 28.6025 32.4626C28.6149 32.4966 28.6372 32.526 28.6665 32.5472C28.6958 32.5685 28.7308 32.5805 28.767 32.5818C29.4673 32.5986 30.1675 32.5902 30.8678 32.5818L31.0835 32.4627C31.1255 32.362 31.1717 32.2612 31.2165 32.1618C31.2613 32.0624 31.3118 31.9966 31.3566 31.9155C31.4042 31.7895 31.4518 31.6649 31.4966 31.5403L31.5723 31.2604C31.6311 31.1666 31.6927 31.0742 31.7543 30.9804C31.7123 30.8769 31.7025 30.7005 31.554 30.7005C30.8286 30.6921 30.1171 30.7103 29.407 30.7019L29.4266 30.6949Z" fill="black"/>
<path d="M11.5907 20.0303C11.9397 19.9486 12.2997 19.9245 12.6565 19.9589C12.985 19.9251 13.3168 19.9492 13.6369 20.0303C13.872 20.0299 14.1066 20.0529 14.3372 20.0989C14.4632 20.1203 14.586 20.1574 14.7027 20.2095C14.8811 20.2205 15.0588 20.2416 15.2349 20.2725L15.5038 20.3816L15.7769 20.4656C15.868 20.495 15.952 20.53 16.0402 20.5664C16.1887 20.6294 16.3385 20.6868 16.4898 20.7428C16.6467 20.8226 16.8021 20.9009 16.9618 20.9751C17.1775 21.0857 17.3819 21.2117 17.5948 21.3349C17.8833 21.4958 18.1396 21.703 18.4127 21.8948C18.5755 22.0656 18.7568 22.2177 18.9534 22.3483C19.2685 22.6282 19.564 22.9334 19.8525 23.2413C19.9331 23.3709 20.0205 23.4961 20.1144 23.6164C20.2251 23.7718 20.3525 23.9146 20.4771 24.0587C20.5642 24.1852 20.6577 24.3072 20.7573 24.4241C20.8329 24.5515 20.9169 24.6746 20.9925 24.802C21.0906 24.9784 21.2012 25.1463 21.3063 25.3199C21.3777 25.4809 21.4547 25.6404 21.5289 25.8014C21.5993 25.9209 21.6765 26.0364 21.76 26.1472C21.7838 26.2353 21.8077 26.3236 21.8343 26.4103L22.043 26.7798C22.043 26.8246 22.0556 26.9198 22.0598 26.959L22.1704 27.1452L22.2628 27.3299C22.3175 27.4811 22.3721 27.6309 22.4309 27.7821L22.5331 27.9612C22.6075 28.1796 22.6974 28.3925 22.802 28.5981C22.8609 28.7465 22.9155 28.8976 22.9757 29.0474L23.1158 29.298C23.155 29.4254 23.2012 29.5499 23.2558 29.6731C23.3637 29.8775 23.4421 30.093 23.5359 30.3086C23.5667 30.3968 23.5962 30.4864 23.6242 30.5773L23.711 30.7649L23.8511 31.0127C23.9281 31.2002 23.9981 31.3892 24.0793 31.5726C24.1101 31.6607 24.1396 31.7503 24.1676 31.8413L24.2684 32.0233C24.3328 32.1702 24.3945 32.32 24.4449 32.4726L24.5345 32.6574C24.5877 32.8085 24.6452 32.9583 24.7012 33.1095L24.8412 33.36L24.9519 33.5518C24.9519 33.598 24.9603 33.6918 24.9631 33.7338L25.0905 33.9185L25.1592 34.1901L25.267 34.3735L25.3426 34.6394L25.4337 34.8242L25.5345 35.0033C25.5989 35.1503 25.6605 35.3001 25.7124 35.4526L25.8006 35.6374C25.8548 35.7895 25.9108 35.9407 25.9687 36.0909L26.0821 36.2687L26.1563 36.5374L26.2474 36.7208L26.3538 36.9028L26.4266 37.1701L26.5275 37.3521C26.6213 37.5592 26.7012 37.772 26.7838 37.9862L26.893 38.1639L26.9995 38.5209C27.0765 38.6272 27.1591 38.7308 27.2404 38.8344C27.4409 38.8119 27.644 38.8393 27.8314 38.9142C28.2254 38.8929 28.6204 38.9235 29.0065 39.0052C29.3104 38.9848 29.6156 39.0145 29.9098 39.0933C30.1844 39.0752 30.46 39.1065 30.7235 39.1857C31.0877 39.164 31.4532 39.1941 31.8089 39.2753C32.1124 39.255 32.4171 39.2848 32.7109 39.3635C32.9855 39.3453 33.2611 39.3765 33.5246 39.4559C33.8586 39.435 34.1939 39.4647 34.519 39.5441C34.792 39.5292 35.0657 39.5576 35.3299 39.6281C35.5456 39.6218 35.7606 39.6551 35.9643 39.7261C36.3272 39.7084 36.6909 39.7362 37.047 39.8086C37.2622 39.8047 37.4766 39.8364 37.6814 39.9024C37.9259 39.8899 38.1706 39.9212 38.4041 39.9948C38.6757 39.9842 38.9475 40.0101 39.2122 40.0718C39.3887 40.0928 39.5679 40.1152 39.7444 40.1516L39.9111 40.2132L40.271 40.3363C40.3943 40.4189 40.5175 40.5015 40.645 40.5813C40.7588 40.6805 40.8775 40.7739 41.0007 40.8612C41.0861 40.9844 41.1828 41.102 41.2808 41.2182C41.3578 41.3427 41.4405 41.4645 41.5189 41.5905L41.6169 41.7767C41.6449 41.8621 41.6716 41.9502 41.6982 42.0384L41.8088 42.3072C41.841 42.4807 41.8536 42.6557 41.8816 42.8293C41.9465 43.1184 41.9673 43.4157 41.9433 43.7111C41.9664 44.0063 41.9466 44.3034 41.8844 44.593C41.862 44.7329 41.8396 44.8855 41.8018 45.0296C41.7668 45.1192 41.7346 45.2088 41.701 45.3012C41.6674 45.3936 41.6463 45.4748 41.6183 45.5616C41.5168 45.7085 41.4233 45.8609 41.3382 46.0179C41.1685 46.2616 40.9664 46.481 40.7374 46.6702C40.5133 46.7976 40.3032 46.9501 40.0875 47.0901L39.9013 47.1853L39.6408 47.2791C39.5217 47.3071 39.4013 47.3322 39.2836 47.3616C39.166 47.391 39.0455 47.4302 38.9265 47.4624C38.7226 47.501 38.5162 47.5248 38.3089 47.5338C38.0494 47.6063 37.7785 47.6291 37.5105 47.601H23.7852C23.4853 47.6314 23.1823 47.6087 22.8903 47.5338C22.6858 47.5142 22.4799 47.5086 22.2782 47.4694L22.0107 47.3588L21.7376 47.2735L21.4743 47.1811C21.381 47.1316 21.2834 47.0849 21.1816 47.0411C21.0304 46.9515 20.8819 46.8535 20.732 46.7611C20.5942 46.6232 20.4421 46.5002 20.2783 46.3944C20.0864 46.2283 19.9062 46.0492 19.7391 45.8583C19.6172 45.6567 19.4449 45.4944 19.3189 45.2984C19.2349 45.143 19.141 44.9947 19.05 44.8449C18.9464 44.6405 18.8469 44.4334 18.7433 44.229L18.6522 44.0457C18.592 43.9239 18.5318 43.8035 18.4688 43.6845L18.3287 43.4046C18.2531 43.2646 18.1817 43.1162 18.1074 42.9734L18.0164 42.7887C17.9562 42.6683 17.8973 42.5479 17.8343 42.429C17.7713 42.31 17.7153 42.1882 17.6579 42.0692L17.5514 41.8886C17.5011 41.76 17.4581 41.6287 17.4226 41.4953L17.2825 41.3553C17.2489 41.2227 17.2073 41.0923 17.1579 40.9648L17.0528 40.7857C16.9954 40.6653 16.9338 40.5449 16.8763 40.4259C16.7713 40.2216 16.6691 40.0144 16.564 39.8086L16.2923 39.2669L16.1523 38.98C16.0962 38.8302 16.0416 38.6791 15.9828 38.5307C15.8722 38.3277 15.7699 38.1191 15.6649 37.9134L15.4324 37.4459C15.3698 37.3236 15.3101 37.2018 15.2531 37.0805L15.1131 36.8342C15.0542 36.6802 15.001 36.5262 14.9506 36.3695C14.889 36.2799 14.8246 36.1917 14.7601 36.1049C14.7223 35.9776 14.6761 35.853 14.6313 35.7284C14.5823 35.6458 14.5332 35.5632 14.4912 35.4806C14.4352 35.356 14.3806 35.2329 14.3274 35.1083C14.2968 35.0468 14.2533 34.9926 14.1999 34.9494C14.1465 34.9061 14.0844 34.8749 14.0178 34.8577C13.8876 34.9249 13.7545 34.9837 13.6201 35.0439L13.4464 35.0831C13.3267 35.1247 13.2034 35.1551 13.0781 35.1741L12.8064 35.2763L12.4492 35.3631C12.3274 35.3951 12.204 35.4208 12.0795 35.44C11.931 35.483 11.7895 35.5471 11.6593 35.6304C11.6901 35.7284 11.7336 35.8208 11.7714 35.9104L11.8848 36.0867C11.9478 36.2337 12.0081 36.3835 12.0585 36.5374C12.1215 36.6256 12.1817 36.7166 12.242 36.809C12.3022 36.9014 12.3218 36.9811 12.3638 37.0665C12.4044 37.1925 12.4478 37.3171 12.4955 37.4417C12.5753 37.5816 12.6509 37.7314 12.7279 37.8784C12.7742 37.9722 12.819 38.0673 12.868 38.1583L13.1481 38.6986C13.2575 38.9016 13.3512 39.1126 13.4282 39.3299C13.5029 39.441 13.5753 39.5544 13.6453 39.6701L13.7853 39.9668C13.8428 40.1152 13.896 40.2663 13.9562 40.4147C14.0669 40.6191 14.1691 40.8277 14.2741 41.0334C14.3628 41.2144 14.4534 41.395 14.5458 41.5751L14.6859 41.8663L14.8161 42.114C14.8652 42.212 14.917 42.3085 14.9688 42.4051C14.9954 42.4989 15.0206 42.5941 15.043 42.6851L15.1831 42.8251C15.2181 42.9581 15.2601 43.0896 15.3035 43.2212C15.3792 43.3374 15.4576 43.4508 15.5416 43.5628C15.5809 43.6873 15.6243 43.8105 15.6733 43.9337C15.7867 44.1366 15.8862 44.3536 15.9954 44.5524L16.1355 44.8407L16.2419 45.0171C16.3049 45.1725 16.3651 45.3292 16.4142 45.4888L16.5612 45.6287C16.5612 45.6763 16.5682 45.7687 16.5696 45.8205L16.6817 46.0109L16.8105 46.2642L16.9506 46.5512C17.057 46.7555 17.1579 46.9641 17.2643 47.1685L17.4044 47.4568L17.5304 47.7074C17.585 47.8054 17.6411 47.9019 17.6999 47.9985C17.7432 48.3115 17.7564 48.6279 17.7391 48.9433V54.7299C17.7531 54.8447 17.6971 55.0098 17.5542 54.9902H0.299528C0.17628 55.0126 0.0194142 54.9454 0.0362207 54.8013C-0.0101825 54.4734 0.0136918 54.1394 0.106252 53.8214C0.0862126 53.3994 0.116778 52.9765 0.197291 52.5617C0.176351 52.2577 0.207125 51.9525 0.288319 51.6588C0.267324 51.3549 0.29811 51.0496 0.379357 50.756C0.35849 50.3924 0.389141 50.0277 0.470396 49.6726C0.44887 49.3386 0.479577 49.0033 0.561424 48.6788C0.540457 48.3754 0.570763 48.0707 0.651063 47.7774C0.629762 47.3836 0.660373 46.9888 0.742102 46.603C0.72128 46.2692 0.751021 45.9341 0.83033 45.6091C0.81215 45.3356 0.843466 45.0611 0.922769 44.7987C0.9015 44.405 0.932111 44.0101 1.01381 43.6243C0.991824 43.2904 1.02206 42.9551 1.10344 42.6305C1.08295 42.3266 1.11373 42.0214 1.19447 41.7277C1.17227 41.3645 1.20294 41 1.28551 40.6457C1.26363 40.2817 1.29333 39.9165 1.37374 39.5609C1.35498 39.2865 1.38582 39.0111 1.46478 38.7476C1.44355 38.354 1.47367 37.9591 1.55441 37.5732C1.53357 37.2698 1.56436 36.965 1.64545 36.6718C1.62447 36.3378 1.65517 36.0026 1.73649 35.678C1.71516 35.3144 1.74582 34.9496 1.82752 34.5946C1.80654 34.2606 1.83724 33.9254 1.91855 33.6008C1.89759 33.297 1.92789 32.9917 2.00819 32.6979C1.98687 32.3343 2.01752 31.9695 2.09922 31.6146C2.07972 31.2809 2.1085 30.9462 2.18466 30.6207C2.17978 30.379 2.20614 30.1377 2.26309 29.9027C2.2869 29.7235 2.3079 29.543 2.34712 29.3666C2.37373 29.2182 2.40034 29.0684 2.43676 28.9228C2.46617 28.8025 2.49418 28.6807 2.532 28.5631C2.56981 28.4455 2.58661 28.321 2.62162 28.202C2.65664 28.083 2.67485 27.9626 2.70706 27.8451C2.73928 27.7541 2.77429 27.6631 2.8107 27.5721C2.83451 27.4559 2.85412 27.3397 2.88073 27.2264L2.99137 27.0416C3.02078 26.9464 3.05159 26.8498 3.0852 26.7616L3.11882 26.5853L3.25887 26.3291L3.34711 26.1416C3.37232 26.052 3.39893 25.9624 3.42694 25.8742L3.62022 25.5131L3.76027 25.2219L3.89332 24.9742L3.97455 24.7866C4.17483 24.4815 4.38351 24.1805 4.58099 23.874C4.67622 23.7536 4.77005 23.6318 4.86109 23.5044C5.02863 23.3402 5.17882 23.1591 5.30927 22.9642C5.47451 22.7719 5.6543 22.5927 5.84707 22.4281C6.12718 22.2643 6.31906 21.9941 6.58656 21.8135C6.70561 21.724 6.82466 21.6316 6.95211 21.5518C7.10476 21.4678 7.25322 21.3754 7.40588 21.2901C7.52632 21.2201 7.64397 21.1501 7.75601 21.0647C7.88206 21.0269 8.00391 20.9793 8.12856 20.9345L8.30643 20.8338L8.4885 20.733L8.7504 20.6476L9.0221 20.558C9.11174 20.5258 9.20137 20.4964 9.29241 20.4684L9.56271 20.3718C9.68036 20.3368 9.7994 20.3102 9.91845 20.2836C10.0585 20.2459 10.214 20.2193 10.3624 20.1927C10.5394 20.1537 10.7185 20.1252 10.8988 20.1073C11.1253 20.0527 11.3578 20.0269 11.5907 20.0303Z" fill="black"/>
</g>
<defs>
<clipPath id="clip0_469_729">
<rect width="58.2836" height="55" fill="white"/>
</clipPath>
</defs>
</svg>
