<svg width="142" height="52" viewBox="0 0 142 52" fill="none" xmlns="http://www.w3.org/2000/svg">
<path d="M48.016 8.30273V16.6055H49.8491H51.6821V8.30273V0H49.8491H48.016V8.30273ZM34.5807 1.63898C34.4944 1.72524 34.4297 5.1326 34.4297 9.20848V16.6055H38.1605C42.4952 16.6055 43.6598 16.3682 44.7165 15.2684C45.6653 14.2333 45.9026 13.6725 45.9241 12.3139C45.9241 10.5455 45.1693 9.29475 43.7676 8.8203L43.0128 8.58308L43.5735 8.00081C45.1909 6.29714 44.7596 3.10544 42.7324 2.07029C41.9776 1.68211 41.3954 1.61742 38.3115 1.55272C36.349 1.50959 34.6885 1.55272 34.5807 1.63898ZM40.4249 4.87381C40.9856 5.26199 41.0719 6.46966 40.5759 6.98723C40.1877 7.35385 38.8938 7.65577 38.5487 7.44011C38.4193 7.37541 38.3115 6.68532 38.3115 5.90896V4.52876H39.131C39.5839 4.52876 40.1661 4.67972 40.4249 4.87381ZM41.5248 10.869C41.8051 11.1278 41.9776 11.5591 41.9776 11.9689C41.9776 13.004 41.3522 13.4353 39.6917 13.5432L38.3115 13.6294V11.9689V10.3083L39.6917 10.3946C40.6621 10.4593 41.2228 10.6102 41.5248 10.869ZM16.2068 5.11103C14.9345 5.43451 14.1581 6.55592 14.1581 8.02238C14.1581 9.18692 14.7404 10.1789 15.7324 10.6318C16.746 11.1278 17.5008 11.0847 18.4712 10.5455C19.5926 9.89858 20.0671 8.97126 19.9377 7.67733C19.722 5.82269 18.0183 4.65816 16.2068 5.11103ZM26.1054 5.36982C24.833 5.95209 24.2076 6.9441 24.2076 8.34586C24.2076 11.7317 28.8227 12.8962 30.3538 9.87702C31.7771 7.0735 28.9305 4.05432 26.1054 5.36982ZM54.0543 9.85545C54.0543 13.7372 54.2484 14.6861 55.2189 15.6566C56.1031 16.5408 57.3754 16.9074 59.5535 16.9074C61.7317 16.9074 63.004 16.5408 63.8882 15.6566C64.8587 14.6861 65.0528 13.7372 65.0528 9.85545V6.46966H63.2197H61.3866V9.68293C61.3866 12.5943 61.3435 12.9393 60.9337 13.4569C60.5887 13.9098 60.3083 14.0176 59.5535 14.0176C58.7988 14.0176 58.5184 13.9098 58.1734 13.4569C57.7636 12.9393 57.7205 12.5943 57.7205 9.68293V6.46966H55.8874H54.0543V9.85545ZM7.10617 10.3946C4.73396 11.02 4.66926 14.6214 7.04147 15.3331C9.62933 16.1095 11.5487 13.155 9.78029 11.1063C9.21959 10.4377 8.07662 10.1358 7.10617 10.3946ZM1.08938 19.8187C-0.82995 20.9833 0.0758026 23.9377 2.31862 23.9377C3.31063 23.9377 4.36734 23.1183 4.56143 22.2341C4.75552 21.3499 4.19482 20.1638 3.39689 19.754C2.53427 19.3012 1.90887 19.3227 1.08938 19.8187ZM55.413 21.4361C53.1701 22.1694 51.2293 23.8946 50.2157 26.0512C49.6981 27.151 49.6334 27.5392 49.6334 29.6526C49.6334 31.8307 49.6765 32.1326 50.2372 33.2756C51.9409 36.7261 55.8443 38.6454 59.877 38.02C64.8802 37.2437 68.0719 32.9953 67.2524 28.2293C66.7564 25.3179 65.139 23.1614 62.508 21.9321C61.1925 21.3067 60.8475 21.2421 58.6909 21.1989C57.1382 21.1558 56.0168 21.2421 55.413 21.4361ZM60.4593 25.512C62.0336 26.3315 62.9825 27.8411 62.9825 29.5448C63.004 32.7149 59.7692 34.9146 56.7932 33.7716C52.8251 32.262 52.8898 26.8275 56.901 25.2964C57.7636 24.9729 59.5967 25.0807 60.4593 25.512ZM90.6942 21.6518C88.5161 22.536 86.9849 23.9809 85.9929 26.0727C85.4969 27.1294 85.4322 27.5392 85.4322 29.5448C85.4322 31.6798 85.4753 31.917 86.1439 33.2541C87.028 35.0871 88.9042 36.8555 90.6511 37.5456C92.1606 38.1279 95.2445 38.2141 96.6463 37.6966L97.5089 37.3731L97.5736 34.9577L97.6383 32.564L96.6463 33.2541C95.7405 33.901 95.5033 33.9657 94.0584 33.9657C92.6566 33.9657 92.3763 33.901 91.5568 33.3188C89.2062 31.6582 89.0121 28.1646 91.1471 26.2237C92.8507 24.6925 95.1798 24.6494 96.8619 26.1374L97.6167 26.7844V24.2828V21.8028L96.4953 21.4577C94.7916 20.9617 92.1606 21.048 90.6942 21.6518ZM33.1358 21.6518C33.1358 21.7381 38.2899 34.052 39.4329 36.7045L39.8642 37.7397H41.5248H43.1637L46.4848 29.8251L49.8922 21.7165C49.9569 21.6302 48.9649 21.5871 47.6925 21.6087L45.385 21.6734L43.5088 26.3531L41.5463 31.1406C41.4816 31.1838 40.5759 29.0703 39.5192 26.3962L37.5783 21.5655H35.357C34.1278 21.5655 33.1358 21.6087 33.1358 21.6518ZM69.3659 27.647L69.4737 33.7501L70.0775 35.0009C71.1989 37.2652 72.7732 38.02 76.3747 38.0416C78.4018 38.0416 78.8978 37.9769 79.8251 37.5672C81.2269 36.9202 82.1542 35.9929 82.7796 34.6343C83.2541 33.5775 83.2756 33.2541 83.3403 27.5392L83.4266 21.5655H81.3563H79.3076L79.2429 27C79.1782 33.06 79.0704 33.5128 77.7333 34.2029C76.8707 34.6558 75.1454 34.5049 74.52 33.9442C73.5496 33.1031 73.4633 32.4561 73.4633 26.8491V21.5655H71.3715H69.258L69.3659 27.647ZM100.205 29.6526V37.7397H102.253H104.302V34.397V31.0544H107.429H110.556V34.397V37.7397H112.605H114.653V29.6526V21.5655H112.605H110.556V24.6925V27.8411L107.494 27.7764L104.41 27.7117L104.345 24.6278L104.28 21.5655H102.253H100.205V29.6526ZM117.284 29.5879L117.349 37.6319L121.943 37.6966L126.515 37.7397V35.9066V34.0735H124.035H121.554V32.6718V31.27H123.927H126.299V29.5448V27.8195H123.927H121.554V26.4178V25.016H124.035H126.515V23.2908V21.5655H121.878H117.241L117.284 29.5879ZM128.714 29.5879L128.779 37.6319L130.871 37.6966L132.963 37.7613L133.027 34.6774L133.092 31.6151L135.076 34.6774L137.06 37.7397H139.562C141.093 37.7397 142.042 37.6534 141.999 37.524C141.977 37.4162 140.899 35.9713 139.626 34.3108C138.332 32.6502 137.297 31.2053 137.297 31.0975C137.297 30.9681 137.556 30.8172 137.88 30.7309C139.864 30.2349 141.007 27.9274 140.511 25.3826C140.23 23.873 139.411 22.7732 138.095 22.1047C137.039 21.5871 136.866 21.5655 132.833 21.5655H128.671L128.714 29.5879ZM134.753 24.8004C135.852 25.1238 136.499 25.9865 136.348 26.9569C136.176 28.0783 135.356 28.6822 134.041 28.6822H132.984V26.6334C132.984 24.3259 132.984 24.3259 134.753 24.8004ZM0.722769 30.6231C-0.0104597 31.2053 -0.20455 32.1326 0.226761 32.9737C1.41287 35.2381 4.69083 33.6854 3.69881 31.3132C3.20281 30.1486 1.75791 29.8036 0.722769 30.6231ZM5.92006 39.9825C5.70441 40.1335 5.44562 40.5216 5.31623 40.8451C4.62613 42.6782 7.45122 43.7565 8.29227 41.9881C9.00393 40.5216 7.19243 39.0121 5.92006 39.9825Z" fill="black"/>
<path d="M36.5859 45.0935C36.5859 45.7405 36.5859 45.7405 37.6211 45.6974L38.6347 45.6327L38.6994 48.695L38.7641 51.7573H39.3895H40.0149L40.0796 48.695L40.1443 45.6327L41.1794 45.6974C42.193 45.7405 42.193 45.7405 42.193 45.0935V44.425H39.3895H36.5859V45.0935Z" fill="black"/>
<path d="M43.7026 48.0911V51.7573H44.3496H44.9966V50.1399V48.5225H46.8296H48.6627V50.1614C48.6627 51.7789 48.6627 51.7789 49.2234 51.7142L49.7626 51.6495V48.0911V44.5328L49.2234 44.4681C48.7058 44.4034 48.6843 44.4466 48.6196 45.8699L48.5549 47.3364H46.8296H45.1044L45.0397 45.8699C44.975 44.425 44.975 44.425 44.3496 44.425H43.7026V48.0911ZM52.1132 44.5328L52.0916 48.1343V51.6495L54.4638 51.7142L56.8576 51.7789V51.1103V50.4634H55.003H53.1699L53.2346 49.5576L53.2993 48.6303H54.8736C56.4263 48.6303 56.4263 48.6303 56.4263 48.0264V47.4442H54.8089H53.1915V46.5816V45.7189H54.9167H56.642V45.072V44.425H54.3776C53.1268 44.425 52.1132 44.4681 52.1132 44.5328ZM61.0629 44.8994L62.1196 48.5225C62.9822 51.4554 63.0685 51.6495 63.5861 51.7142C64.1468 51.7789 64.1899 51.6926 64.9663 49.1694C65.4191 47.7461 65.872 46.6031 65.9798 46.6463C66.0877 46.6678 66.5405 47.8324 66.9718 49.2341C67.7051 51.6279 67.7698 51.7573 68.3305 51.7573C68.6971 51.7573 68.9559 51.6279 69.0206 51.3907C69.8401 48.6518 70.8752 44.9426 70.8752 44.7054C70.8752 44.4897 70.6811 44.425 70.2929 44.4681C69.7538 44.5328 69.6891 44.6622 69.1284 46.8619C68.5677 49.0832 68.3952 49.5792 68.2011 49.3635C68.158 49.3204 67.7913 48.199 67.3816 46.905C66.6699 44.6191 66.6268 44.5328 66.023 44.5328C65.4191 44.5328 65.376 44.6191 64.6428 46.905L63.8233 49.3635C63.6723 49.6007 63.4567 49.0185 62.9175 46.8619C62.3353 44.5328 62.3353 44.5328 61.6452 44.4681C60.9982 44.4034 60.9551 44.4466 61.0629 44.8994ZM73.8297 45.1151L72.2985 48.6734C71.63 50.2261 71.0909 51.5632 71.0909 51.6279C71.0909 51.6926 71.3928 51.7573 71.7378 51.7573C72.2985 51.7573 72.4279 51.6279 72.7299 50.8947L73.0749 50.032H74.5629H76.0509L76.4823 50.8947C76.8489 51.6063 77.043 51.7573 77.5605 51.7573C77.9271 51.7573 78.2075 51.7142 78.2075 51.671C78.2075 51.6279 77.539 50.0105 76.6979 48.0696C75.3824 44.9426 75.1452 44.5328 74.6707 44.4681C74.2394 44.4034 74.0669 44.5328 73.8297 45.1151ZM75.1668 47.4657C75.8353 49.0832 75.7922 49.1694 74.5198 49.1694C73.7219 49.1694 73.4415 49.0832 73.5278 48.8891C73.5709 48.7597 73.8081 48.1127 74.0238 47.4873C74.2394 46.8835 74.4982 46.3659 74.5629 46.3659C74.6276 46.3659 74.908 46.8619 75.1668 47.4657ZM77.9918 44.5544C77.9918 44.6191 78.5741 45.568 79.2858 46.6678C80.5581 48.6303 80.5797 48.695 80.5797 50.2046V51.7573H81.2267H81.8736V50.1399V48.5009L83.1676 46.5816C83.8792 45.5248 84.4615 44.5975 84.4615 44.5328C84.4615 44.4681 84.138 44.425 83.7283 44.425C83.0597 44.425 82.9303 44.5328 82.0893 45.9562L81.1835 47.5089L80.3209 45.9562C79.523 44.5113 79.4152 44.425 78.7251 44.425C78.3153 44.425 77.9918 44.4897 77.9918 44.5544Z" fill="black"/>
<path d="M87.481 45.0935C87.481 45.7405 87.481 45.7405 88.5161 45.6974L89.5297 45.6327L89.5944 48.695L89.6591 51.7573H90.2845H90.9099L90.9746 48.695L91.0393 45.6327L92.0744 45.6974C93.088 45.7405 93.088 45.7405 93.088 45.0935V44.425H90.2845H87.481V45.0935Z" fill="black"/>
<path d="M95.5038 44.7916C94.253 45.3955 93.8433 46.2365 93.8433 48.1343C93.8433 49.4713 93.9295 49.9027 94.2961 50.3987C95.0078 51.3476 95.9998 51.822 97.38 51.8436C99.8816 51.8651 101.391 50.2908 101.24 47.8108C101.132 46.4306 100.701 45.6974 99.5581 44.8995C98.6739 44.3172 96.6037 44.2525 95.5038 44.7916ZM98.6739 45.8268C99.8169 46.409 100.291 48.1559 99.666 49.3851C99.2131 50.2908 98.523 50.679 97.4447 50.679C96.6468 50.679 96.3664 50.5496 95.7626 49.9458C95.1156 49.2988 95.0294 49.0616 95.0294 48.1343C95.0294 46.064 96.8624 44.8779 98.6739 45.8268ZM105.812 48.0912V51.7573H106.459H107.106V50.2693V48.7813L108.616 48.695C110.535 48.5872 111.053 48.1559 111.053 46.6894C111.053 45.0289 110.039 44.4466 107.171 44.425H105.812V48.0912ZM109.219 45.8483C109.737 46.215 109.845 46.9913 109.435 47.4011C109.284 47.552 108.702 47.6598 108.141 47.6598H107.106V46.5816V45.5033H107.926C108.378 45.5033 108.961 45.6543 109.219 45.8483ZM114.136 45.0073L112.605 48.5225L111.268 51.5848C111.225 51.6926 111.505 51.7573 111.915 51.7573C112.562 51.7573 112.692 51.671 112.993 50.8947L113.317 50.0321H114.848H116.379L116.724 50.8947C117.026 51.671 117.156 51.7573 117.803 51.7573H118.536L118.255 51.0456C115.473 44.5113 115.43 44.425 114.934 44.425C114.632 44.425 114.352 44.6407 114.136 45.0073ZM115.473 47.6167C115.732 48.3068 115.948 48.9322 115.948 49.0185C115.948 49.1047 115.473 49.1694 114.87 49.1694C114.287 49.1694 113.791 49.0832 113.791 48.9538C113.791 48.5872 114.676 46.3659 114.827 46.3659C114.913 46.3659 115.193 46.9266 115.473 47.6167ZM118.579 44.8995C121.102 48.7381 120.973 48.4578 120.93 50.1614L120.886 51.7573H121.533H122.202V50.2477C122.202 48.7597 122.224 48.7166 123.604 46.5816L125.005 44.425H124.251C123.474 44.425 123.561 44.3388 121.986 46.8835L121.598 47.4873L120.779 45.9562C119.959 44.4681 119.916 44.425 119.096 44.425C118.299 44.425 118.277 44.4466 118.579 44.8995Z" fill="black"/>
</svg>
