<svg width="70" height="47" viewBox="0 0 70 47" fill="none" xmlns="http://www.w3.org/2000/svg">
<g clip-path="url(#clip0_469_740)">
<path d="M0 11.75V5.875C0.00041236 4.31698 0.615126 2.82289 1.709 1.72121C2.80287 0.61952 4.28636 0.000415306 5.83333 0H64.1667C65.7136 0.000415306 67.1971 0.61952 68.291 1.72121C69.3849 2.82289 69.9996 4.31698 70 5.875V11.75H0ZM70 20.5625V41.125C69.9996 42.683 69.3849 44.1771 68.291 45.2788C67.1971 46.3805 65.7136 46.9996 64.1667 47H5.83333C4.28636 46.9996 2.80287 46.3805 1.709 45.2788C0.615126 44.1771 0.00041236 42.683 0 41.125L0 20.5625H70ZM26.25 35.25H8.75V38.1875H26.25V35.25ZM35 29.375H8.75V32.3125H35V29.375ZM61.25 29.375H52.5V32.3125H61.25V29.375Z" fill="black"/>
</g>
<defs>
<clipPath id="clip0_469_740">
<rect width="70" height="47" fill="white"/>
</clipPath>
</defs>
</svg>
