<svg width="55" height="55" viewBox="0 0 55 55" fill="none" xmlns="http://www.w3.org/2000/svg">
<g clip-path="url(#clip0_469_742)">
<path d="M26.7493 0H28.2225C31.1774 0.191229 33.9421 1.52411 35.932 3.71681C37.9219 5.90951 38.981 8.79013 38.8853 11.7495C38.7897 14.709 37.5468 17.5152 35.4194 19.5748C33.292 21.6344 30.447 22.7859 27.4859 22.7859C24.5248 22.7859 21.6798 21.6344 19.5525 19.5748C17.4251 17.5152 16.1822 14.709 16.0865 11.7495C15.9909 8.79013 17.0499 5.90951 19.0398 3.71681C21.0297 1.52411 23.7944 0.191229 26.7493 0M26.9299 4.58333V5.78916C25.9297 5.91789 24.9995 6.37209 24.2829 7.08171C23.8302 7.5784 23.56 8.21437 23.5169 8.88501C23.4737 9.55566 23.66 10.221 24.0453 10.7717C24.7703 11.5787 25.7231 12.1466 26.7779 12.4004C27.4978 12.6618 28.4209 12.8376 28.7631 13.6169C28.808 13.7665 28.8213 13.9238 28.8022 14.0787C28.783 14.2337 28.7318 14.383 28.6518 14.5171C28.5717 14.6512 28.4647 14.7671 28.3374 14.8576C28.2101 14.9481 28.0654 15.0111 27.9124 15.0426C26.5897 15.2551 25.2336 15.0634 24.0216 14.4925C23.8473 15.1158 23.6738 15.7407 23.5012 16.3672C24.5809 16.8668 25.7483 17.1493 26.9371 17.1988V18.3286H28.0788V17.1406C28.974 17.0128 29.8198 16.6514 30.5309 16.0928C31.114 15.5601 31.4634 14.8189 31.5032 14.0301C31.5431 13.2414 31.2701 12.4688 30.7436 11.8801C29.672 10.7455 28.0847 10.3974 26.7779 9.65019C26.6197 9.56566 26.486 9.44183 26.3896 9.29063C26.2931 9.13943 26.2373 8.96595 26.2274 8.78691C26.2175 8.60786 26.2539 8.42928 26.333 8.26837C26.4121 8.10746 26.5314 7.96963 26.6792 7.86817C27.8673 7.22665 29.2621 7.73749 30.4585 8.09746C30.5986 7.47178 30.7345 6.84609 30.866 6.22041C29.9556 5.96551 29.0218 5.80351 28.0788 5.73689V4.58215L26.9299 4.58333Z" fill="black"/>
<path d="M5.12172 19.3206C6.49869 16.0546 8.76677 13.242 11.6667 11.2041C11.6403 13.2155 11.9797 15.2149 12.6683 17.1049C11.3307 18.234 10.2665 19.6516 9.55556 21.2511C8.855 22.9937 8.50959 24.8586 8.53958 26.7365C8.56957 28.6144 8.97436 30.4674 9.7302 32.1867C11.5562 31.2494 13.3716 30.2859 15.1953 29.3521C13.9787 33.3169 12.7586 37.2813 11.5349 41.2452C7.68912 39.923 3.84575 38.5865 0 37.2666V37.2595C1.82605 36.2722 3.68298 35.3432 5.52566 34.3738C4.42034 32.0292 3.81372 29.4807 3.74419 26.8896C3.67466 24.2984 4.14373 21.7211 5.12172 19.3206Z" fill="black"/>
<path d="M39.8062 26.5294C41.0227 22.5622 42.244 18.5979 43.4701 14.6363C47.3111 15.9704 51.164 17.276 54.9943 18.628C53.1564 19.5998 51.3113 20.5442 49.4663 21.5113C50.5292 23.642 51.1488 25.9663 51.2874 28.3434C51.4261 30.7205 51.081 33.101 50.2729 35.3409C48.9329 38.8007 46.5818 41.7769 43.526 43.8814C43.5571 41.8682 43.2176 39.8663 42.5244 37.9759C44.532 36.3536 45.8922 34.066 46.3583 31.5273C46.7516 28.867 46.3713 26.1498 45.2629 23.6996C43.4428 24.6298 41.6298 25.5921 39.8062 26.5294Z" fill="black"/>
<path d="M23.924 32.6441C25.4705 32.139 27.1068 31.9685 28.7242 32.144C30.3416 32.3195 31.9032 32.8369 33.3054 33.662C34.7076 34.487 35.9183 35.6008 36.8572 36.9294C37.7961 38.258 38.4417 39.7711 38.7512 41.3683C39.0607 42.9654 39.0269 44.6101 38.6523 46.1932C38.2776 47.7764 37.5705 49.2617 36.578 50.5507C35.5854 51.8398 34.3301 52.903 32.8952 53.6699C31.4604 54.4367 29.8789 54.8897 28.2556 54.9988H26.7836C24.1224 54.8301 21.6029 53.7399 19.6581 51.9156C17.7132 50.0913 16.4643 47.6467 16.126 45.0018C15.7876 42.3568 16.3809 39.6766 17.8039 37.4215C19.227 35.1664 21.3909 33.4772 23.924 32.6441ZM25.7762 34.5449C23.9148 34.9019 22.2101 35.8275 20.8971 37.1942C19.584 38.5608 18.7273 40.3011 18.445 42.1751C18.1627 44.0492 18.4687 45.9646 19.3209 47.6574C20.1732 49.3501 21.5296 50.7368 23.2031 51.6263C24.8767 52.5157 26.7849 52.8641 28.6648 52.6234C30.5447 52.3827 32.3037 51.5647 33.6991 50.2823C35.0945 48.9999 36.0577 47.3162 36.4559 45.4633C36.8541 43.6104 36.6676 41.6797 35.9222 39.9372C35.0935 38.0208 33.6378 36.4431 31.7941 35.463C29.9505 34.4829 27.8284 34.1588 25.7762 34.5437V34.5449Z" fill="black"/>
<path d="M21.5465 37.8713C25.0441 37.8713 28.5429 37.8559 32.0406 37.8784C32.0271 38.5342 32.0247 39.1896 32.0335 39.8446H30.982L31.007 38.8942C28.1929 38.8894 25.3787 38.8894 22.5646 38.8942C22.5825 41.0397 22.5765 43.1841 22.5646 45.3296C24.3824 45.3391 26.2013 45.3296 28.019 45.3296V46.3584C25.8599 46.3632 23.7004 46.3632 21.5405 46.3584C21.5587 43.5294 21.5607 40.7004 21.5465 37.8713Z" fill="black"/>
<path d="M29.0233 41.5161C29.0117 41.4376 29.0178 41.3574 29.041 41.2815C29.0642 41.2056 29.1041 41.1358 29.1577 41.0772C29.2113 41.0186 29.2772 40.9727 29.3508 40.9428C29.4243 40.9129 29.5036 40.8997 29.5829 40.9043C30.6521 40.8651 31.7143 40.8865 32.78 40.89C33.1079 40.8484 33.5391 41.0504 33.4536 41.4496C33.4952 43.8351 33.4263 46.2206 33.4785 48.6038C32.5023 48.8282 31.4967 48.8972 30.4989 48.8081C30.0177 48.7463 29.1219 49.0255 29.0316 48.3329C29.0067 46.0614 29.0245 43.7911 29.0221 41.5197M30.3943 41.4436C30.5131 42.0258 31.1808 41.8452 31.6157 41.863C31.737 41.8636 31.8553 41.8255 31.9534 41.7541C32.0515 41.6827 32.1243 41.5818 32.161 41.4662C31.5783 41.3522 30.9798 41.3446 30.3943 41.4436ZM29.5069 42.356V46.8479C30.6712 46.8479 31.8378 46.855 33.0045 46.8479C32.991 45.3518 32.991 43.8553 33.0045 42.3584H29.5092M30.6462 47.8815C30.8755 48.0169 31.0193 48.4754 31.3448 48.3376C31.8652 48.3079 31.9198 47.4253 31.384 47.3659C31.0098 47.1211 30.8814 47.7151 30.6403 47.8755L30.6462 47.8815Z" fill="black"/>
<path d="M24.0679 48.8069C24.4892 48.3072 24.9185 47.8137 25.3557 47.3267C26.2444 47.3267 27.1378 47.3267 28.0253 47.3338L28.0182 48.801C26.703 48.8022 25.3854 48.795 24.0679 48.8069Z" fill="black"/>
</g>
<defs>
<clipPath id="clip0_469_742">
<rect width="55" height="55" fill="white"/>
</clipPath>
</defs>
</svg>
