<svg width="155" height="55" viewBox="0 0 155 55" fill="none" xmlns="http://www.w3.org/2000/svg">
<path d="M22.6548 6.36257C20.6988 6.62732 18.4869 7.29347 16.5887 8.19021C13.8487 9.47981 11.7359 11.1964 9.95324 13.5792C9.54058 14.1172 8.91334 14.9029 8.54195 15.33C6.90784 17.2088 5.42228 19.6514 4.96011 21.2057C4.52269 22.6832 4.24209 26.2958 4.37414 28.7811C4.59697 32.8292 5.31499 36.0233 6.67675 38.9868C7.51857 40.8059 8.17882 41.7966 9.4498 43.146C10.1183 43.8548 10.564 44.2306 11.4058 44.8028C12.0083 45.2127 12.7841 45.7679 13.1224 46.0411C14.3852 47.0404 16.3494 48.125 18.0825 48.7911C19.172 49.2096 20.8886 49.6623 22.1183 49.8502C23.5461 50.0637 26.6328 50.0637 27.9615 49.8416C32.3934 49.1242 36.2724 47.1002 39.3673 43.8975C41.6287 41.566 43.3948 38.611 44.3604 35.5621C44.476 35.1949 44.7731 34.1529 45.0207 33.2647L45.4664 31.6421L45.4581 29.3789C45.4498 27.7904 45.4829 27.0132 45.5571 26.7655C45.7717 26.0311 45.5654 24.6219 44.9382 22.6661C43.824 19.1475 40.9271 13.3828 39.7635 12.3408C39.227 11.8626 37.2215 10.5132 36.1156 9.88121C34.9436 9.20652 33.161 8.38664 32.022 7.98524C31.5681 7.82298 30.8171 7.51552 30.3467 7.30201C29.348 6.85791 28.2751 6.54192 27.1114 6.36257C26.1046 6.20885 23.8267 6.20885 22.6548 6.36257ZM26.5502 11.5295C29.835 11.8284 32.7153 13.0668 35.4471 15.347C38.5172 17.9092 40.4567 21.1972 41.216 25.1087C42.3962 31.1894 40.8281 36.6553 36.6603 41.0194C34.6053 43.1801 32.4182 44.521 29.6534 45.3494C27.978 45.8447 27.0372 45.9814 25.2545 45.9814C23.4801 45.9899 22.5887 45.8874 21.1032 45.5116C18.3136 44.8028 15.8872 43.4107 13.6836 41.25C10.3081 37.9534 8.55021 33.5978 8.55846 28.5675C8.56671 26.1933 8.91334 24.3401 9.73865 22.2647C11.249 18.4814 14.0138 15.2787 17.3398 13.4596C20.022 11.9907 23.5461 11.2562 26.5502 11.5295ZM8.49244 16.1157C8.21183 16.6708 7.79917 17.448 7.57634 17.8323C4.58872 23.1359 3.91196 29.191 5.65337 35.1436C6.57771 38.3036 8.60798 41.771 10.7373 43.8463C11.1087 44.205 11.3893 44.5295 11.3645 44.5551C11.2902 44.6234 10.5062 43.9915 9.81293 43.3168C7.08941 40.6693 5.19119 36.0062 4.65474 30.6941C4.32462 27.4317 4.58046 22.9138 5.19945 21.0606C5.63686 19.7453 6.90784 17.6017 8.21183 15.9876C8.59973 15.5093 8.9381 15.1165 8.95461 15.1165C8.97937 15.1165 8.77304 15.5691 8.49244 16.1157Z" fill="black"/>
<path d="M18.0328 16.6452C17.5789 16.8587 17.323 17.1747 17.2735 17.5761C17.1992 18.1312 17.5129 19.8734 18.0411 21.8634C18.9159 25.1685 19.2625 27.8416 19.4771 33.0939C19.5761 35.545 19.6669 36.3564 19.898 37.0481C19.997 37.3129 20.1539 38.0559 20.2611 38.6879C20.4757 40.0031 20.6903 40.6436 21.0452 41.0963C21.7302 41.9589 22.9599 41.9674 23.6862 41.1134C23.9833 40.7547 23.9998 40.4814 23.7522 39.7127C23.5954 39.2174 23.5706 38.927 23.5376 37.1165L23.5046 35.0753L23.7027 35.1266C24.0493 35.212 25.5101 35.3657 27.1112 35.4767C28.4152 35.5707 28.7453 35.6219 29.092 35.7842C29.5789 36.0062 31.279 36.288 32.0796 36.2795C32.5088 36.271 32.7564 36.3222 33.136 36.4845C33.5321 36.6553 33.8375 36.7151 34.6463 36.7578L35.6532 36.8175L35.8925 36.5699C36.4537 35.9977 36.4537 34.58 35.9008 34.0334C35.6202 33.7516 35.224 33.6576 34.4152 33.6491C33.9943 33.6491 33.6559 33.5893 33.3423 33.4697C32.9957 33.3331 32.5995 33.2733 31.6422 33.2306C30.5363 33.1708 30.3382 33.1452 29.9503 32.9402C29.6532 32.795 29.4303 32.7352 29.2735 32.7694C29.1002 32.8036 28.9847 32.7609 28.8196 32.5986C28.44 32.2228 27.8623 32.0264 26.3519 31.7702C25.5431 31.625 24.8004 31.514 24.7013 31.514C24.594 31.514 24.5115 31.4713 24.5115 31.42C24.5115 31.2065 25.4441 29.9425 27.3423 27.6025C28.6463 25.9884 30.528 23.3835 31.0397 22.4953C31.5349 21.6242 31.7082 21.0947 31.7165 20.4115C31.7247 19.3866 31.1883 18.729 30.2226 18.5668C29.5624 18.4557 29.1085 18.7632 28.8526 19.4891C28.6381 20.087 28.1841 20.7616 27.202 21.9488C26.7151 22.538 26.1621 23.264 25.9723 23.5714C25.2543 24.7158 25.0067 25.0575 23.9668 26.3641C23.3726 27.1071 22.7453 27.9185 22.5638 28.1661C22.1759 28.7127 22.1841 28.7298 21.9943 27.1584C21.7797 25.3393 21.4909 23.896 21.0534 22.3587C20.5583 20.6335 20.3107 19.3866 20.2446 18.2337C20.2199 17.764 20.1456 17.2516 20.0878 17.0978C19.8732 16.5427 18.7591 16.295 18.0328 16.6452Z" fill="black"/>
<path d="M51.2846 18.3106C50.9379 18.4728 50.6738 18.8401 50.6738 19.1731C50.6738 19.6685 50.9792 21.2741 51.3176 22.5893C51.755 24.2461 52.0356 25.9115 52.2007 27.6708C52.341 29.2935 52.4978 32.2057 52.44 32.2997C52.374 32.4107 52.6381 34.0163 52.8031 34.5116C52.8939 34.7679 52.993 35.229 53.026 35.5365C53.1993 37.0994 53.7522 37.9193 54.6353 37.9193C55.048 37.9193 55.3698 37.757 55.6587 37.4068C55.9063 37.0908 55.9228 36.8688 55.733 36.4161C55.6257 36.1514 55.5844 35.7415 55.5597 34.4262L55.5267 32.7694L56.0466 32.8292C56.3355 32.8634 57.2516 32.9402 58.0769 33C59.2406 33.0939 59.6532 33.1537 59.9338 33.2904C60.297 33.4612 60.6766 33.5295 62.0631 33.6405C62.4923 33.6832 62.9792 33.7686 63.136 33.837C63.4414 33.9736 64.8527 34.1102 65.0755 34.0248C65.4716 33.8626 65.6615 32.7609 65.3809 32.1972C65.1993 31.8043 64.9269 31.6848 64.1429 31.6421C63.788 31.6165 63.3589 31.5481 63.1938 31.4713C63.0287 31.403 62.6738 31.3432 62.4015 31.3432C61.6752 31.3432 60.7509 31.1809 60.396 30.9845C60.2227 30.8991 60.0411 30.8478 59.9998 30.8734C59.9503 30.9076 59.7522 30.8307 59.5624 30.7197C59.1003 30.4379 58.374 30.2415 57.1113 30.0536C56.7234 29.9938 56.3767 29.9169 56.3437 29.8828C56.2447 29.8059 56.9379 28.8323 58.1842 27.2865C60.2804 24.6988 61.6752 22.6491 61.8981 21.8292C62.1044 21.0435 61.8238 20.2663 61.213 19.9845C60.4373 19.6172 60.0576 19.8051 59.5954 20.7702C59.3726 21.2399 59.026 21.7694 58.5555 22.3331C58.1594 22.8028 57.5404 23.6398 57.169 24.1863C56.7976 24.7329 56.0466 25.7578 55.5019 26.4581L54.5033 27.722L54.3134 26.2275C54.1731 25.1258 54.0081 24.2974 53.6862 23.1017C53.191 21.2655 53.092 20.8043 52.9847 19.6172C52.9434 19.1561 52.8692 18.712 52.8279 18.6266C52.6298 18.2422 51.8045 18.08 51.2846 18.3106Z" fill="black"/>
<path d="M73.1308 19.6599C73.0235 19.9503 71.5214 23.2127 71.0015 24.2888C70.2422 25.8773 69.3673 27.3292 68.6081 28.3028C67.2958 29.9767 67.0895 30.2671 66.8419 30.8051C66.5365 31.4542 66.5118 32.1033 66.7594 32.8377C66.8584 33.1196 66.9327 33.3587 66.9327 33.3672C66.9327 33.538 67.9395 33.0427 68.4017 32.6498C68.8226 32.2911 69.3508 31.4798 69.6892 30.6599C69.8213 30.3525 69.9451 30.0792 69.9781 30.045C70.0111 30.0109 70.4815 30.1304 71.0262 30.3183C72.553 30.8307 73.5599 31.0699 74.6493 31.1809C75.5572 31.2748 75.7552 31.2663 76.9519 31.087C79.1225 30.771 79.4939 30.8734 81.0455 32.2911C81.5654 32.7609 82.1184 33.2135 82.2587 33.2904C82.6136 33.4697 82.8777 33.3416 83.1088 32.889C83.4389 32.2057 83.2573 31.4371 82.5641 30.6856C82.3412 30.4464 81.2105 29.3533 80.0551 28.2686C78.8997 27.184 77.6452 25.9371 77.2656 25.5101C76.432 24.5621 75.5737 23.2554 75.0042 22.0854C74.3605 20.7531 73.5269 19.472 73.3123 19.472C73.2463 19.472 73.172 19.5575 73.1308 19.6599ZM73.857 24.3486C73.9643 24.4938 74.5008 25.1429 75.0537 25.7834C76.1019 26.9961 76.6961 27.8075 76.9932 28.4138C77.2986 29.0458 77.2903 29.0458 76.0936 29.2081C74.7731 29.3789 73.4526 29.2166 72.5695 28.7725C71.6617 28.3199 71.5049 27.7391 72.0083 26.6545C72.3054 26.014 73.5104 24.0838 73.6094 24.0838C73.6424 24.0838 73.758 24.2034 73.857 24.3486Z" fill="black"/>
<path d="M106.267 19.7453C105.921 20.6079 103.981 24.7671 103.593 25.493C102.949 26.7057 102.198 27.8587 101.505 28.6957C100.127 30.3781 99.7803 30.993 99.7803 31.83C99.7803 32.3936 100.044 33.2904 100.234 33.3587C100.391 33.427 101.299 32.9231 101.678 32.573C102.058 32.2228 102.644 31.2663 102.925 30.5745C103.024 30.3183 103.131 30.0792 103.164 30.0365C103.189 30.0023 103.544 30.0963 103.956 30.2415C105.203 30.677 106.828 31.0784 107.811 31.1809C108.751 31.2834 108.916 31.2748 110.757 30.993C111.615 30.8649 112.317 30.9332 112.845 31.2065C113.076 31.3261 113.753 31.847 114.331 32.368C114.908 32.8804 115.478 33.3331 115.585 33.3587C116.204 33.521 116.666 32.3851 116.328 31.5481C116.113 31.0186 115.75 30.6258 113.662 28.67C111.351 26.5093 109.981 25.066 109.37 24.1436C109.139 23.7935 108.628 22.9053 108.24 22.1623C107.357 20.4884 106.688 19.472 106.474 19.472C106.424 19.472 106.333 19.6002 106.267 19.7453ZM107.018 24.3144C107.109 24.4511 107.604 25.0318 108.108 25.6211C109.214 26.8936 109.833 27.722 110.13 28.3284C110.485 29.0629 110.501 29.0458 109.189 29.2166C107.819 29.3874 106.358 29.1654 105.541 28.67C104.848 28.2516 104.732 27.5769 105.194 26.6289C105.467 26.0738 106.713 24.0839 106.787 24.0839C106.82 24.0839 106.919 24.1863 107.018 24.3144Z" fill="black"/>
<path d="M130.96 20.198C130.482 20.5567 130.127 21.0862 129.954 21.6925C129.772 22.316 129.698 24.0924 129.813 25.066C130.02 26.8509 130.028 28.8665 129.822 29.1995C129.739 29.3533 129.714 29.3362 127.717 27.5854C124.308 24.5963 121.387 22.5978 119.637 22.0427C118.218 21.5901 117.97 22.3502 118.49 25.6297C118.771 27.4573 118.787 29.2508 118.54 31.104L118.374 32.2826H118.68C119.489 32.2826 120.182 31.7702 120.512 30.9418C120.702 30.455 120.702 30.4037 120.677 27.8075L120.652 25.177L120.958 25.3564C121.469 25.6724 122.369 26.3983 123.921 27.7648C125.967 29.5582 126.677 30.0877 128.278 31.0357C130.894 32.5901 131.844 33.0085 132.793 33.0683L133.329 33.0939L133.313 32.5986C133.304 32.3253 133.09 30.9845 132.834 29.6095C132.182 26.1165 132.132 25.7919 132.132 24.6731C132.132 23.7166 132.141 23.6739 132.421 23.0846C132.793 22.3075 132.784 22.0598 132.405 21.4022C131.943 20.6079 131.472 19.8991 131.406 19.8991C131.373 19.8991 131.175 20.0357 130.96 20.198Z" fill="black"/>
<path d="M91.4032 20.2151C91.2216 20.2321 90.6439 20.3261 90.1239 20.42C88.6301 20.6933 87.2684 20.7189 85.7415 20.5054C85.0318 20.403 84.4045 20.3261 84.3468 20.3261C84.1652 20.3261 84.289 21.1972 84.5366 21.6328C84.7099 21.9317 84.8667 22.0769 85.2299 22.2648L85.7085 22.5039L88.1267 22.4953C90.1652 22.4783 90.5449 22.4953 90.5036 22.5978C90.4788 22.6661 89.9671 23.5885 89.3647 24.6561C88.0607 26.9876 87.0373 28.8579 86.7814 29.3789C86.1129 30.7539 85.5435 32.3851 85.4527 33.1623L85.3949 33.6576L85.7581 33.6064C85.9561 33.5722 86.5834 33.4612 87.1528 33.3502C87.7223 33.2391 88.6879 33.0512 89.2986 32.9317C90.941 32.6071 93.1363 32.3509 93.7966 32.3851C94.2505 32.4193 94.5146 32.4961 95.018 32.7438L95.6618 33.0683L96.0084 32.9231C96.2725 32.8121 97.6095 31.9752 97.7911 31.8043C97.8571 31.7446 97.4362 31.1553 97.1226 30.882C96.3715 30.2158 94.919 30.0109 92.4843 30.2415C90.9988 30.3781 88.919 30.3866 88.7952 30.2585C88.7374 30.1988 88.8365 29.9255 89.1171 29.3703C89.5957 28.4224 90.974 25.9969 91.8323 24.5792C92.864 22.8626 93.4252 21.6071 93.4252 21.0179C93.4252 20.2748 92.897 20.0699 91.4032 20.2151Z" fill="black"/>
<path d="M144.636 20.6421C141.112 21.0776 137.538 23.0248 136.019 25.3478C135.178 26.6374 134.905 27.6366 134.955 29.2593C134.988 30.2585 134.996 30.3269 135.293 30.9418C135.656 31.6933 136.127 32.1716 136.87 32.5303C138.141 33.1452 139.766 33.222 143.81 32.8804C145.535 32.7352 145.997 32.7267 146.064 32.8292C146.097 32.8804 146.146 33.7259 146.171 34.7166C146.245 36.9798 146.286 37.3214 146.534 37.3214C146.955 37.3214 147.582 37.0481 147.896 36.7236C148.449 36.1514 148.515 35.7415 148.671 31.9837C148.746 30.1988 148.804 28.3113 148.804 27.7904C148.804 26.9363 148.787 26.8082 148.581 26.3897C148.399 26.0311 148.267 25.8773 147.978 25.7236C147.623 25.5272 147.557 25.5186 146.369 25.5613C143.909 25.6553 141.079 26.5093 140.047 27.4744C139.634 27.8672 139.428 28.2515 139.56 28.3882C139.7 28.5248 140.914 28.4821 142.779 28.2686C144.693 28.0466 146.088 28.0551 146.435 28.2943C147.103 28.7469 146.592 29.8742 145.445 30.4806C144.867 30.7795 143.876 31.104 142.936 31.3175C141.953 31.5311 139.568 31.5311 138.826 31.3175C136.87 30.7453 136.292 29.4472 137.15 27.5512C137.909 25.8773 140.352 23.9814 142.878 23.1017C144.396 22.5807 145.453 22.5722 146.922 23.0675C147.359 23.2127 147.772 23.3152 147.83 23.2981C147.97 23.2384 148.226 22.4185 148.226 22.0342C148.226 21.8719 148.152 21.5815 148.061 21.3851C147.879 21.0093 147.648 20.8556 147.029 20.6762C146.724 20.5908 145.213 20.5652 144.636 20.6421Z" fill="black"/>
<path d="M140.055 39.0893C140.055 42.1724 140.072 42.2663 140.575 42.6506C140.781 42.8129 140.93 42.83 141.896 42.83H142.985L143.01 42.2919L143.035 41.7624H142.077H141.128V40.396V39.0295H142.077H143.035L143.01 38.4915L142.985 37.962L142.061 37.9363L141.128 37.9107V37.1079V36.2966H140.592H140.055V39.0893Z" fill="black"/>
<path d="M93.0041 37.5947C92.6327 38.2694 92.1458 39.1405 91.923 39.5248L91.5186 40.2422L92.608 42.198L93.6974 44.1537L98.0633 44.1366L102.429 44.111L103.502 42.1809L104.575 40.2508L103.51 38.3377L102.437 36.4247L98.0633 36.3991L93.6891 36.382L93.0041 37.5947ZM96.9739 38.295C96.9739 38.3207 96.7345 38.7647 96.4374 39.2857L95.8927 40.2422L96.2641 40.8998C96.4622 41.2585 96.7098 41.6941 96.8088 41.8649L96.9904 42.1894H95.8762H94.762L94.2256 41.2158L93.6974 40.2422L94.143 39.4394C94.3906 39.0039 94.6465 38.5598 94.7125 38.4488C94.8281 38.2694 94.8858 38.2609 95.901 38.2609C96.4952 38.2609 96.9739 38.2779 96.9739 38.295ZM101.876 39.243C102.173 39.7811 102.421 40.2337 102.421 40.2508C102.421 40.2764 102.19 40.7034 101.901 41.2158L101.381 42.1467L100.283 42.1724C99.0041 42.198 99.0619 42.309 99.7386 41.1134C99.9862 40.6778 100.193 40.2935 100.193 40.2593C100.193 40.2081 99.6561 39.2003 99.2682 38.5342L99.1032 38.2609H100.217H101.331L101.876 39.243Z" fill="black"/>
<path d="M107.29 38.073C106.737 38.3548 106.671 38.611 106.671 40.396C106.671 41.8222 106.688 42.0016 106.836 42.2663C107.158 42.83 107.34 42.8727 109.535 42.8727H111.499V42.3175V41.7624L109.626 41.7453L107.744 41.7197V40.396V39.0722L109.626 39.0466L111.499 39.0295V38.4744V37.9193H109.543C107.835 37.9193 107.538 37.9363 107.29 38.073Z" fill="black"/>
<path d="M112.944 38.0388C112.812 38.0986 112.606 38.2609 112.49 38.389L112.284 38.6196V40.396V42.1724L112.49 42.4029C112.853 42.8214 113.109 42.8727 114.628 42.8727C116.237 42.8727 116.584 42.7873 116.864 42.3175C117.013 42.0613 117.029 41.8991 117.029 40.396C117.029 38.5085 116.971 38.3036 116.369 38.0559C115.932 37.8766 113.324 37.8595 112.944 38.0388ZM115.956 40.396V41.7624H114.636H113.315V40.396V39.0295H114.636H115.956V40.396Z" fill="black"/>
<path d="M117.772 40.396V42.8727H118.308H118.845V40.9511V39.0295H120.207H121.568V40.9511V42.8727H122.105H122.65L122.625 40.7888C122.6 38.8331 122.592 38.6879 122.427 38.4573C122.072 37.9534 121.89 37.9193 119.736 37.9193H117.772V40.396Z" fill="black"/>
<path d="M123.384 40.396V42.8727H123.92H124.457V40.9511V39.0295H125.777H127.098V40.9511V42.8727H127.634H128.171V40.8571C128.171 38.5342 128.138 38.3804 127.56 38.0901C127.238 37.9363 127.056 37.9193 125.299 37.9193H123.384V40.396Z" fill="black"/>
<path d="M129.582 38.073C129.425 38.1498 129.219 38.3292 129.128 38.4573C128.963 38.6879 128.955 38.816 128.955 40.396C128.955 41.9759 128.963 42.104 129.128 42.3346C129.483 42.8385 129.664 42.8727 131.827 42.8727H133.783V42.3175V41.7624H131.884H129.986V41.3781V40.9938L131.868 40.9767L133.741 40.9511V39.8238C133.741 38.5598 133.667 38.3634 133.114 38.073C132.702 37.8509 129.994 37.8509 129.582 38.073ZM132.71 39.4138V39.7981H131.348H129.986V39.4138V39.0295H131.348H132.71V39.4138Z" fill="black"/>
<path d="M135.095 38.0986C134.559 38.4231 134.526 38.5598 134.526 40.396C134.526 42.2663 134.567 42.4115 135.145 42.7019C135.458 42.8556 135.665 42.8727 137.398 42.8727H139.313V42.3175V41.7624H137.456H135.599V40.396V39.0295H137.456H139.313V38.4744V37.9193H137.357C135.516 37.9193 135.376 37.9363 135.095 38.0986Z" fill="black"/>
</svg>
