<svg width="55" height="55" viewBox="0 0 55 55" fill="none" xmlns="http://www.w3.org/2000/svg">
<g clip-path="url(#clip0_469_750)">
<path fill-rule="evenodd" clip-rule="evenodd" d="M7.95745 0H47.0426C51.4192 0 55 3.56568 55 7.94703V47.053C55 51.4343 51.4192 55 47.0426 55H7.95745C3.58085 55 0 51.4343 0 47.053V7.94703C0 3.56568 3.58085 0 7.95745 0Z" fill="black"/>
<path fill-rule="evenodd" clip-rule="evenodd" d="M26.681 8.92584L34.4746 14.0063C35.2469 14.5191 35.9257 15.5678 35.9257 16.6631V46.6102C35.9257 47.6356 34.8023 48.1949 34.0065 47.6822L25.5108 42.0424C24.7384 41.5296 24.8554 41.0402 24.8554 39.9449V9.92796C24.8554 8.62287 25.9086 8.41313 26.681 8.92584Z" fill="#FFDB48"/>
<path fill-rule="evenodd" clip-rule="evenodd" d="M21.087 12.2585L13.7381 17.7818C13.387 18.0381 12.8956 18.3411 12.9892 18.8305C13.0828 19.3432 13.5275 19.5297 13.9487 19.7394C16.2424 20.8114 18.5126 22 20.853 23.0487C21.3211 23.1886 22.5615 22.3496 22.7722 21.767V12.9809C22.7722 11.6759 21.8594 11.6759 21.087 12.2585Z" fill="#FFDB48"/>
</g>
<defs>
<clipPath id="clip0_469_750">
<rect width="55" height="55" fill="white"/>
</clipPath>
</defs>
</svg>
