<svg width="183" height="39" viewBox="0 0 183 39" fill="none" xmlns="http://www.w3.org/2000/svg">
<g clip-path="url(#clip0_469_761)">
<path d="M18.4241 0H20.3984C23.8384 0.17342 27.171 1.24518 30.0585 3.10666C33.5499 5.34743 36.2361 8.62612 37.7324 12.473C39.2286 16.3198 39.4581 20.5374 38.388 24.5215C37.3179 28.5056 35.0031 32.0517 31.7752 34.6518C28.5473 37.2518 24.572 38.7724 20.4188 38.9957H18.4533C13.9859 38.7292 9.74485 36.9562 6.43424 33.971C2.57972 30.4757 0.2683 25.6168 0 20.4453V18.4868C0.288414 13.3397 2.5973 8.50887 6.43279 5.02755C9.73622 2.04781 13.9663 0.274286 18.4241 0M7.63046 9.88901C15.5382 9.89575 23.447 9.89575 31.3567 9.88901C29.9356 8.12216 28.1311 6.69544 26.0773 5.71488C24.0235 4.73432 21.7732 4.22512 19.4936 4.22512C17.214 4.22512 14.9637 4.73432 12.9099 5.71488C10.8561 6.69544 9.05157 8.12216 7.63046 9.88901ZM4.84317 23.8061C5.75449 26.8986 7.6261 29.6277 10.1919 31.6053V14.671H5.00344C4.02253 17.6315 3.96667 20.8166 4.84317 23.809M14.9258 34.0837C17.89 35.0028 21.0663 35.0058 24.0322 34.0923V14.6739H14.9302C14.9234 21.1453 14.9234 27.6162 14.9302 34.0865M28.7851 14.6768V31.6197C31.3135 29.6754 33.1715 27.0018 34.1031 23.9671C35.0347 20.9325 34.994 17.6862 33.9867 14.6754C32.2514 14.671 30.5175 14.6667 28.7807 14.671L28.7851 14.6768Z" fill="black"/>
<path d="M51.0774 11.8475C52.2969 11.6813 53.5387 11.8054 54.7001 12.2095C55.8616 12.6136 56.9093 13.2861 57.7564 14.1713C58.9263 15.5875 59.5994 17.3426 59.674 19.1714C59.7487 21.0003 59.2208 22.8035 58.1702 24.3087C56.8584 25.8995 54.9753 26.9238 52.9171 27.1662C50.8589 27.4087 48.786 26.8503 47.1347 25.6086C45.8015 24.4259 44.8889 22.8484 44.5324 21.1105C44.1759 19.3726 44.3946 17.5671 45.156 15.9622C45.6937 14.8229 46.5233 13.8432 47.562 13.1208C48.6007 12.3983 49.8122 11.9583 51.0759 11.8446M51.1051 14.8689C50.3457 15.0254 49.6473 15.3942 49.0927 15.9316C48.5381 16.4691 48.1504 17.1528 47.9754 17.9019C47.6701 18.874 47.6574 19.9134 47.939 20.8926C48.2205 21.8717 48.7841 22.7482 49.5606 23.4147C50.442 24.0321 51.5264 24.2961 52.596 24.1539C53.6657 24.0116 54.6415 23.4736 55.3275 22.6478C55.9433 21.767 56.2884 20.7281 56.3209 19.6569C56.3535 18.5858 56.0722 17.5282 55.5111 16.6121C55.0405 15.9147 54.3676 15.3752 53.5813 15.0647C52.7949 14.7542 51.932 14.6875 51.1065 14.8732L51.1051 14.8689Z" fill="black"/>
<path d="M60.5292 12.6086C60.7473 12.3964 61.0129 12.2383 61.3043 12.1469C61.5957 12.0556 61.9047 12.0336 62.2062 12.0829C65.4117 12.0944 68.6288 12.0829 71.8386 12.0829C72.1301 12.0433 72.4268 12.0909 72.6908 12.2196C72.9548 12.3483 73.1741 12.5521 73.3205 12.805C73.4267 13.0798 73.4706 13.3744 73.4492 13.6679C73.4278 13.9614 73.3416 14.2467 73.1966 14.5035C73.0314 14.6965 72.8209 14.8464 72.5836 14.9398C72.3463 15.0333 72.0895 15.0674 71.8357 15.0393C70.7473 15.0523 69.6575 15.0307 68.5676 15.0393V25.3862C68.6003 25.653 68.5601 25.9237 68.4512 26.1699C68.3423 26.4161 68.1686 26.6288 67.9484 26.7857C67.3714 27.0148 66.7379 27.0651 66.1315 26.9301C65.4219 26.8059 65.1611 26.0274 65.196 25.3992C65.1873 21.943 65.196 18.4883 65.196 15.0307C63.9007 14.9989 62.6025 15.1029 61.3145 14.9787C60.2334 14.8198 60.009 13.3972 60.5292 12.6086Z" fill="black"/>
<path d="M74.6408 12.558C75.0779 12.0453 75.8065 12.0959 76.414 12.0843C79.6894 12.1118 82.9707 12.0525 86.2432 12.1118C87.5545 12.0829 87.9115 13.9027 87.1057 14.7014C86.7275 14.9753 86.2605 15.1013 85.7944 15.0552C84.7497 15.0552 83.7036 15.0465 82.6589 15.0552V25.3876C82.7024 25.6941 82.6455 26.0063 82.4965 26.2783C82.3475 26.5503 82.1143 26.7677 81.8313 26.8983C80.909 27.1699 79.3703 27.1049 79.315 25.8512C79.2217 22.255 79.3033 18.6544 79.2742 15.0552C78.0168 15.0263 76.755 15.1101 75.5019 15.0162C74.3276 14.918 74.0289 13.3596 74.6408 12.558Z" fill="black"/>
<path d="M108.085 12.1623C109.306 11.8834 110.579 11.921 111.781 12.2713C112.983 12.6217 114.074 13.273 114.948 14.1626C116.098 15.5583 116.764 17.2837 116.847 19.0837C116.931 20.8836 116.428 22.6625 115.413 24.1571C114.786 24.9417 114.003 25.5902 113.112 26.0622C112.222 26.5342 111.243 26.8197 110.236 26.901C109.23 26.9822 108.217 26.8575 107.262 26.5346C106.306 26.2116 105.427 25.6973 104.68 25.0237C103.634 23.8856 102.929 22.4812 102.643 20.9679C102.357 19.4546 102.502 17.8923 103.062 16.4562C103.457 15.3735 104.127 14.4099 105.007 13.6579C105.887 12.906 106.947 12.3909 108.085 12.1623ZM108.294 13.4882C107.381 13.7201 106.546 14.1843 105.87 14.8349C105.194 15.4854 104.702 16.2997 104.441 17.1971C104.066 18.3169 103.981 19.5125 104.194 20.6736C104.407 21.8347 104.911 22.9239 105.661 23.8408C106.168 24.3831 106.78 24.8181 107.46 25.1196C108.141 25.4211 108.876 25.5829 109.622 25.5952C110.367 25.6075 111.108 25.47 111.798 25.1911C112.489 24.9121 113.115 24.4975 113.64 23.9722C114.683 22.7391 115.264 21.1858 115.283 19.5763C115.302 17.9669 114.759 16.4005 113.745 15.1433C113.076 14.3973 112.213 13.8482 111.251 13.5565C110.288 13.2647 109.263 13.2416 108.288 13.4896L108.294 13.4882Z" fill="black"/>
<path d="M133.275 14.8631C134.368 13.4383 135.951 12.4604 137.723 12.1144C139.495 11.7684 141.334 12.0783 142.891 12.9855C143.607 13.3589 144.159 13.9812 144.441 14.7331C144.561 15.2791 144.057 15.6214 143.634 15.8308C142.961 14.7506 141.914 13.9494 140.69 13.5763C139.573 13.2165 138.369 13.2261 137.259 13.6035C136.149 13.981 135.192 14.7059 134.534 15.669C133.636 17.0543 133.272 18.714 133.51 20.3435C133.747 21.973 134.57 23.4629 135.826 24.5398C136.451 25.0083 137.173 25.3345 137.939 25.4951C138.706 25.6557 139.499 25.6468 140.262 25.469C141.025 25.2913 141.739 24.9491 142.353 24.4667C142.968 23.9843 143.467 23.3736 143.816 22.6781C144.319 22.8731 144.909 23.3194 144.676 23.9318C144.184 24.9894 143.302 25.8204 142.212 26.2542C140.917 26.8385 139.482 27.0487 138.072 26.8606C136.662 26.6726 135.334 26.0939 134.241 25.1912C132.912 23.839 132.091 22.076 131.915 20.1965C131.74 18.3169 132.219 16.4344 133.275 14.8631Z" fill="black"/>
<path d="M89.5664 12.4931C89.9467 12.3226 90.3605 12.0598 90.7947 12.223C91.2114 12.3385 91.3513 12.7848 91.497 13.1386C92.954 17.1066 94.4188 21.0731 95.8914 25.0381C97.3688 21.0634 98.8443 17.0878 100.318 13.1112C100.453 12.8007 100.558 12.4237 100.889 12.2591C101.326 12.028 101.763 12.3255 102.165 12.4656C100.536 16.9053 98.7574 21.2902 97.0833 25.714C96.9215 26.0491 96.8472 26.4968 96.4931 26.6933C95.9103 26.8695 95.023 26.8839 94.8394 26.1632C93.0793 21.6079 91.2886 17.0642 89.5664 12.4931Z" fill="black"/>
<path d="M118.99 12.288C119.404 12.0569 120.238 12.1017 120.259 12.7126C120.319 15.5058 120.259 18.302 120.287 21.0894C120.252 21.7326 120.348 22.376 120.567 22.9821C120.787 23.5881 121.127 24.1447 121.566 24.6193C122.083 25.0181 122.681 25.302 123.319 25.4515C123.957 25.601 124.619 25.6127 125.262 25.4858C125.747 25.4367 126.216 25.2847 126.636 25.0402C127.056 24.7958 127.419 24.4645 127.698 24.069C128.319 22.9468 128.593 21.6687 128.488 20.3933V13.1531C128.525 12.8354 128.408 12.3284 128.822 12.21C128.99 12.1557 129.167 12.1371 129.343 12.1555C129.519 12.1739 129.689 12.2289 129.842 12.3169C129.981 12.6541 130.035 13.02 129.999 13.3827C129.99 15.8005 129.999 18.2153 129.999 20.6316C130.074 21.5055 129.974 22.3856 129.703 23.2206C129.433 24.0557 128.997 24.8291 128.423 25.4959C127.69 26.1047 126.827 26.5401 125.899 26.769C124.971 26.998 124.003 27.0146 123.068 26.8175C122.348 26.7351 121.658 26.4881 121.051 26.0958C120.444 25.7035 119.937 25.1768 119.571 24.5572C118.89 23.1198 118.608 21.5283 118.755 19.947V13.117C118.771 12.8411 118.719 12.4786 118.99 12.288Z" fill="black"/>
<path d="M146.491 12.9047C146.311 12.0208 147.915 11.8619 147.988 12.6938C148.059 14.7158 147.988 16.7306 148.017 18.7482H156.634C156.658 16.7262 156.593 14.7042 156.663 12.6822C156.756 11.8619 158.351 12.0424 158.156 12.9278C158.181 17.161 158.156 21.3971 158.169 25.6303C158.133 26.0014 158.242 26.556 157.789 26.7164C157.393 26.7987 156.725 26.8319 156.664 26.2975C156.587 24.2539 156.664 22.2073 156.632 20.1636H148.015C147.999 22.1409 148.036 24.1152 148.002 26.0852C148.126 27.0038 146.38 27.011 146.497 26.0939C146.472 21.6946 146.484 17.3011 146.491 12.9047Z" fill="black"/>
<path d="M160.904 13.1343C160.898 13.0234 160.914 12.9123 160.952 12.8077C160.99 12.7032 161.049 12.6075 161.126 12.5264C161.202 12.4453 161.295 12.3805 161.398 12.336C161.5 12.2916 161.611 12.2683 161.723 12.2678C164.468 12.2273 167.213 12.2678 169.958 12.249C170.304 12.2735 170.766 12.197 170.978 12.5523C171.162 12.9856 171.029 13.6933 170.429 13.6355C167.764 13.6803 165.096 13.6355 162.431 13.6543V18.5865C164.567 18.6024 166.705 18.5591 168.842 18.6024C169.686 18.5099 169.693 20.0337 168.842 19.9239C166.708 19.9513 164.572 19.9239 162.431 19.9355V25.2591C165.16 25.275 167.891 25.2316 170.62 25.2793C171.23 25.2562 171.319 26.078 171.029 26.4651C170.738 26.7193 170.314 26.6239 169.963 26.6557C167.221 26.6355 164.477 26.6687 161.736 26.6398C161.61 26.6366 161.487 26.6064 161.374 26.5513C161.26 26.4963 161.161 26.4176 161.081 26.3208C161.002 26.2239 160.944 26.1112 160.913 25.9903C160.881 25.8693 160.876 25.7431 160.899 25.6202C160.9 21.4621 160.884 17.2967 160.904 13.1343Z" fill="black"/>
<path d="M173.034 13.1488C172.97 12.3327 173.908 12.1753 174.53 12.2504C176.682 12.3573 178.982 11.9356 181.001 12.883C181.557 13.1643 182.031 13.5804 182.381 14.0925C182.73 14.6047 182.943 15.1962 183 15.812V16.8591C182.973 17.3726 182.844 17.8757 182.618 18.3389C182.393 18.8022 182.077 19.2163 181.689 19.557C180.69 20.2646 179.492 20.6417 178.265 20.6345L182.927 26.1228C182.627 26.3943 182.337 26.7958 181.877 26.7424C181.396 26.7236 181.086 26.3091 180.79 25.987C179.299 24.1913 177.805 22.397 176.308 20.6042H174.533C174.51 22.4312 174.562 24.2611 174.514 26.0924C174.602 26.9807 172.933 27.0038 173.043 26.0924C173.014 21.7769 173.019 17.4599 173.043 13.1444M174.535 13.6297V19.3101C176.328 19.2061 178.22 19.5989 179.937 18.9389C180.4 18.7025 180.786 18.3434 181.054 17.9018C181.323 17.4602 181.462 16.9534 181.456 16.438C181.451 15.9225 181.301 15.4188 181.024 14.9828C180.746 14.5469 180.352 14.1959 179.885 13.9691C178.124 13.6032 176.318 13.4904 174.525 13.634L174.535 13.6297Z" fill="black"/>
</g>
<defs>
<clipPath id="clip0_469_761">
<rect width="183" height="39" fill="white"/>
</clipPath>
</defs>
</svg>
