<svg width="158" height="45" viewBox="0 0 158 45" fill="none" xmlns="http://www.w3.org/2000/svg">
<g clip-path="url(#clip0_468_590)">
<path d="M6.54796 6.73096C9.25394 3.90046 12.6386 1.86016 16.3573 0.817724C20.076 -0.224711 23.9961 -0.232049 27.7185 0.796455C31.4408 1.82496 34.8326 3.85258 37.5485 6.67293C40.2644 9.49328 42.2075 13.0056 43.18 16.8525C43.6137 18.1357 43.7364 19.5089 43.5373 20.8523C43.2527 21.3131 42.8063 21.6425 42.2916 21.7715C41.7769 21.9005 41.2338 21.8192 40.7759 21.5446C40.4656 21.2666 40.2203 20.9198 40.0582 20.5302C39.8961 20.1405 39.8214 19.7182 39.8397 19.2946C39.4209 16.851 38.5328 14.5184 37.2275 12.434C35.9222 10.3496 34.2261 8.5554 32.239 7.15701C30.2518 5.75862 28.0138 4.7842 25.6563 4.29105C23.2989 3.7979 20.8696 3.79598 18.5115 4.28538C15.1551 4.95918 12.0637 6.63319 9.61978 9.10039C9.13829 9.53654 8.61318 10.0921 7.90688 10.0021C7.05798 10.0869 6.51106 9.29423 6.06144 8.67981C6.00378 8.33795 6.01734 7.98735 6.10123 7.65132C6.18512 7.3153 6.33741 7.00155 6.54796 6.73096Z" fill="black"/>
<path d="M13.0557 10.8571C14.664 9.59198 16.5038 8.67572 18.4644 8.16352C20.425 7.65132 22.4658 7.55376 24.4639 7.87673C25.1005 7.91108 25.7005 8.19457 26.1416 8.66942C26.3284 8.90072 26.4607 9.17352 26.5282 9.46643C26.5957 9.75934 26.5964 10.0644 26.5304 10.3577C26.4645 10.6509 26.3335 10.9244 26.1479 11.1567C25.9622 11.389 25.7269 11.5738 25.4604 11.6965C24.4857 12.0427 23.4707 11.5719 22.4792 11.5598C20.8762 11.5303 19.285 11.8479 17.8083 12.4922C16.3317 13.1364 15.0024 14.0929 13.9063 15.3C10.056 19.4019 6.10511 23.3983 2.21123 27.4569C2.02738 27.6763 1.78316 27.8327 1.51104 27.9053C1.23892 27.978 0.95181 27.9635 0.687898 27.8637C0.218315 27.1782 -0.0230476 26.354 5.13485e-05 25.515V25.3817C0.0700791 24.4711 0.472393 23.6219 1.12577 23.0054C4.2496 19.7723 7.40195 16.5738 10.4922 13.3131C11.2889 12.4325 12.1456 11.6118 13.0557 10.8571Z" fill="black"/>
<path d="M61.9079 10.3915C63.8372 10.0638 65.815 10.2319 67.6663 10.881C69.5175 11.53 71.1851 12.64 72.5213 14.1126C73.8575 15.5852 74.821 17.375 75.3267 19.3235C75.8324 21.272 75.8645 23.3191 75.4203 25.2835C74.9761 27.2478 74.0692 29.0689 72.7799 30.5854C71.4907 32.1018 69.8588 33.267 68.0289 33.9775C66.199 34.6881 64.2275 34.9222 62.289 34.6591C60.3504 34.396 58.5047 33.6439 56.9152 32.4692C55.4264 31.3735 54.2049 29.9359 53.3468 28.2698C52.4888 26.6037 52.0179 24.7547 51.9711 22.8687C51.8841 20.5455 52.453 18.2462 53.6085 16.2502C54.4941 14.7084 55.6958 13.385 57.1295 12.373C58.5632 11.3609 60.1941 10.6846 61.9079 10.3915ZM57.1249 22.3806C57.1058 23.9496 57.601 25.4793 58.5301 26.7216C59.4593 27.9639 60.768 28.846 62.244 29.2249C63.72 29.6038 65.2768 29.4572 66.6619 28.809C68.0471 28.1607 69.1794 27.0488 69.8752 25.6535C70.5469 24.1502 70.7458 22.4677 70.4439 20.8419C70.0712 19.3498 69.2339 18.0251 68.0606 17.0714C66.8874 16.1178 65.4431 15.5879 63.9497 15.5631C63.0674 15.5475 62.1908 15.7116 61.3701 16.0459C60.5493 16.3803 59.8006 16.8783 59.1667 17.5116C58.5328 18.1448 58.0261 18.9008 57.6758 19.7363C57.3254 20.5718 57.1382 21.4704 57.1249 22.3806Z" fill="black"/>
<path d="M109.356 10.3206C111.068 10.1006 112.805 10.2646 114.449 10.8014C116.094 11.3381 117.607 12.235 118.884 13.4306C120.161 14.6262 121.174 16.0923 121.851 17.7287C122.528 19.3651 122.855 21.1332 122.809 22.9119C122.691 25.4357 121.844 27.8653 120.377 29.8887C119.368 31.2557 118.094 32.3903 116.636 33.2195C115.178 34.0487 113.568 34.5542 111.909 34.7037C110.251 34.8531 108.58 34.6431 107.004 34.0873C105.429 33.5314 103.984 32.6419 102.761 31.4758C101.577 30.3533 100.635 28.986 99.9977 27.463C99.36 25.9401 99.0405 24.2956 99.0601 22.6367C98.9476 19.8691 99.8085 17.1528 101.484 14.9885C103.41 12.421 106.24 10.7415 109.359 10.3154M109.286 15.724C108.087 16.0377 106.994 16.6795 106.12 17.5816C105.247 18.4837 104.626 19.6126 104.323 20.8488C103.982 22.2954 104.101 23.8169 104.662 25.1884C105.224 26.5598 106.198 27.7084 107.442 28.4642C108.549 29.1647 109.836 29.4998 111.133 29.4248C112.621 29.3799 114.053 28.8261 115.203 27.8506C116.353 26.8751 117.157 25.5331 117.487 24.0353C117.818 22.5375 117.657 20.9689 117.03 19.5758C116.402 18.1826 115.344 17.0439 114.022 16.3385C112.565 15.5593 110.887 15.342 109.289 15.7258L109.286 15.724Z" fill="black"/>
<path d="M123.239 10.781C124.474 10.7931 125.705 10.7585 126.93 10.7913C127.601 10.8254 128.245 11.0747 128.772 11.5044C129.299 11.9341 129.683 12.5228 129.871 13.1885C131.104 17.1138 132.313 21.0479 133.562 24.9577C133.87 24.4097 134.089 23.8134 134.211 23.1923C135.553 19.0604 136.886 14.925 138.209 10.7862C139.794 10.774 141.376 10.7498 142.962 10.8017C144.337 15.589 146.105 20.2587 147.409 25.065C147.641 24.6607 147.826 24.2289 147.958 23.779C148.493 22.0206 149.087 20.2812 149.577 18.5088L149.677 18.3185C150.169 16.5513 150.775 14.8154 151.3 13.0587C151.488 12.4409 151.851 11.8954 152.342 11.4925C152.833 11.0896 153.43 10.8478 154.056 10.7983C155.365 10.7394 156.677 10.7983 157.987 10.7827C155.47 18.585 152.93 26.3804 150.447 34.1965C148.536 34.1965 146.626 34.2571 144.718 34.1429L145.299 33.7431C145.052 33.6133 144.859 33.7864 144.713 33.9767C144.943 33.2533 144.424 32.5575 144.267 31.8617C143.114 28.1579 141.787 24.5077 140.744 20.7727L140.475 20.7225C139.066 25.2225 137.534 29.6948 136.102 34.1931C134.289 34.2139 132.476 34.2139 130.664 34.1931L130.736 33.6738C130.684 33.8019 130.636 33.9317 130.589 34.0581C128.726 27.919 126.665 21.8406 124.729 15.724C124.247 14.085 123.583 12.4771 123.239 10.781Z" fill="black"/>
<path d="M77.6209 10.781H97.6842C97.6959 12.1915 97.711 13.6038 97.6741 15.0144C93.6292 19.376 89.7454 23.8915 85.7073 28.2617C85.4991 28.5103 85.3237 28.7862 85.1855 29.0821C88.5643 29.1046 91.9448 29.0821 95.3237 29.0925C95.8401 29.0748 96.3475 29.2355 96.7653 29.549C97.1832 29.8625 97.4877 30.311 97.6305 30.8233C97.7145 31.9381 97.7268 33.0575 97.6674 34.174C90.9567 34.1533 84.2326 34.2017 77.5135 34.1481C77.4447 32.7513 77.6125 31.3633 77.6393 29.97C81.706 25.3315 85.667 20.5927 89.6766 15.9023C86.4471 15.8331 83.2176 15.9023 79.9898 15.8712C79.4421 15.897 78.9036 15.719 78.4724 15.3695C78.0413 15.0201 77.7463 14.5224 77.641 13.9673C77.5571 12.915 77.6259 11.8454 77.6209 10.781Z" fill="black"/>
<path d="M28.8059 13.1971C28.8198 12.8496 28.9219 12.512 29.1021 12.2181C29.2823 11.9242 29.5341 11.6842 29.8324 11.5223C30.1308 11.3603 30.4651 11.2821 30.8019 11.2953C31.1388 11.3086 31.4664 11.4129 31.7518 11.5979C33.9023 13.5759 35.4105 16.1888 36.0719 19.0817C36.2547 19.7238 35.9678 20.4006 36.1859 21.0358C36.245 20.6262 36.2831 20.2137 36.3 19.8C36.8304 23.2412 36.2255 26.7666 34.5821 29.8108C33.5815 31.6419 32.2145 33.2322 30.5718 34.4758C28.9292 35.7195 27.0486 36.588 25.0553 37.0235C23.062 37.4591 21.0017 37.4517 19.0113 37.0018C17.021 36.552 15.1464 35.67 13.5122 34.4146C12.1818 33.3898 11.0354 32.1328 10.125 30.7004L9.84646 30.6415C9.07305 31.4792 8.29293 32.3135 7.45409 33.0802C7.49603 33.2135 7.58327 33.4731 7.62186 33.5994C10.3406 37.3282 14.3087 39.8779 18.7516 40.751C21.1673 41.2248 23.6516 41.1819 26.0505 40.6249C28.4495 40.0679 30.7121 39.0086 32.6981 37.5127C34.0506 36.4559 35.2842 35.246 36.3755 33.9058C36.6029 33.7109 36.8693 33.5704 37.1556 33.4944C37.4419 33.4184 37.741 33.4087 38.0313 33.4661C38.3217 33.5236 38.5961 33.6466 38.8348 33.8265C39.0735 34.0063 39.2707 34.2385 39.4121 34.5063C39.4121 35.0585 39.4121 35.6123 39.3953 36.1679C37.2133 39.0974 34.3663 41.4283 31.1052 42.9551C27.8441 44.4819 24.2691 45.1578 20.6951 44.9232C17.1211 44.6886 13.6579 43.5507 10.6107 41.6098C7.56353 39.6688 5.02585 36.9845 3.22132 33.7933C3.0633 33.4448 3.0122 33.0549 3.07486 32.6757C3.13752 32.2965 3.31096 31.9461 3.57195 31.6713C5.4174 29.745 7.288 27.8429 9.13848 25.92C9.43489 25.592 9.83404 25.3824 10.2656 25.3283C10.6971 25.2741 11.1333 25.3789 11.4973 25.624C12.0845 25.9806 12.2757 26.6919 12.5559 27.2856C13.2087 28.6717 14.1385 29.8997 15.2841 30.8887C16.4297 31.8778 17.7653 32.6055 19.2029 33.0242C20.6406 33.4428 22.1479 33.5429 23.6257 33.3178C25.1035 33.0927 26.5184 32.5475 27.7774 31.7181C28.9953 30.9078 30.0414 29.8512 30.8526 28.6123C31.6637 27.3733 32.223 25.9776 32.4967 24.5094C32.7859 22.949 32.7374 21.342 32.3545 19.8032C31.9717 18.2644 31.2641 16.8319 30.2822 15.6081C29.7068 14.876 28.7975 14.2356 28.8059 13.1971Z" fill="black"/>
<path d="M20.971 15.4367C22.5117 15.1789 24.0917 15.4651 25.4551 16.2491C26.8184 17.033 27.8854 18.2688 28.4831 19.7563C29.0808 21.2438 29.1743 22.8959 28.7484 24.4451C28.3225 25.9942 27.4022 27.3497 26.1365 28.292C24.8709 29.2343 23.3339 29.7082 21.7746 29.6371C20.2153 29.5659 18.7249 28.9538 17.5448 27.8999C16.3647 26.846 15.5641 25.412 15.2724 23.8301C14.9808 22.2482 15.2153 20.6111 15.938 19.1838C16.4403 18.2014 17.1559 17.352 18.029 16.702C18.9021 16.052 19.909 15.6189 20.971 15.4367ZM21.5012 19.2981C20.9196 19.4165 20.3805 19.6969 19.9423 20.1087C19.504 20.5206 19.1833 21.0482 19.0149 21.6346C18.9081 22.0548 18.8831 22.4926 18.9413 22.9229C18.9995 23.3531 19.1397 23.7671 19.3539 24.1411C19.568 24.5151 19.8519 24.8416 20.1891 25.1018C20.5263 25.362 20.9101 25.5506 21.3183 25.6569C21.7701 25.7617 22.2388 25.7621 22.6908 25.6581C23.1427 25.554 23.5668 25.3482 23.9326 25.0553C24.2984 24.7624 24.597 24.3896 24.8068 23.9637C25.0166 23.5379 25.1325 23.0694 25.1462 22.5919C25.16 22.1143 25.0712 21.6396 24.8862 21.2016C24.7012 20.7637 24.4247 20.3733 24.0763 20.0585C23.728 19.7438 23.3165 19.5124 22.8713 19.3809C22.4261 19.2494 21.9582 19.2211 21.5012 19.2981Z" fill="black"/>
</g>
<defs>
<clipPath id="clip0_468_590">
<rect width="158" height="45" fill="white"/>
</clipPath>
</defs>
</svg>
