<svg width="322" height="134" viewBox="0 0 322 134" fill="none" xmlns="http://www.w3.org/2000/svg">
<g clip-path="url(#clip0_640_254)">
<mask id="mask0_640_254" style="mask-type:luminance" maskUnits="userSpaceOnUse" x="0" y="0" width="322" height="137">
<path d="M322 0H0V136.577H322V0Z" fill="white"/>
</mask>
<g mask="url(#mask0_640_254)">
<path d="M322.541 65.9398C322.541 88.9891 322.541 112.038 322.541 135.105C214.914 135.105 107.287 135.105 -0.540283 135.105C-0.540283 112.231 -0.540283 89.3388 -0.287153 66.1996C49.2819 65.9538 98.5976 65.954 147.914 65.9597C148.991 65.9599 150.069 66.0218 151.051 66.1983C148.518 68.9242 147.989 71.4813 149.338 74.1515C150.631 76.7111 153.809 78.323 157.17 77.6708C159.498 77.2185 161.716 76.1942 164.061 75.399C166.393 78.5405 169.665 76.7717 173.334 77.3059C171.221 75.0403 169.708 73.4178 168.206 71.8072C169.293 70.5358 170.201 69.4746 171.116 68.4057C170.321 67.5159 169.668 66.7848 169.271 66.013C220.532 65.9618 271.536 65.9509 322.541 65.9398ZM234.907 110.729C234.907 110.729 234.781 110.582 235.324 110.638C235.506 110.654 235.687 110.669 235.965 111.128C235.965 113.443 235.965 115.757 235.965 118.303C237.704 118.303 239.123 118.303 240.54 118.303C242.949 118.303 245.357 118.303 248.047 118.303C248.047 117.08 248.045 116.115 248.047 115.15C248.053 111.55 247.898 107.94 248.107 104.351C248.411 99.1201 251.542 96.614 256.287 97.5914C256.896 97.7169 257.803 98.1532 257.925 98.616C259.225 103.554 263.306 104.775 267.453 105.872C269.88 106.514 272.384 106.877 274.797 107.561C275.367 107.723 276.008 108.641 276.067 109.265C276.111 109.719 275.351 110.463 274.787 110.729C272.242 111.923 269.967 110.821 268.386 107.751C264.72 107.751 261.054 107.751 257.264 107.751C257.151 111.427 258.708 114.087 261.546 116.052C267.013 119.835 278.203 119.867 283.718 116.136C286.843 114.023 288.11 110.98 287.878 107.307C287.649 103.681 285.573 101.317 282.317 100.026C280.49 99.302 278.553 98.8358 276.639 98.3668C274.808 97.9182 272.912 97.7185 271.106 97.1933C270.488 97.0137 270.063 96.1795 269.547 95.6443C270.173 95.1106 270.902 94.0476 271.407 94.1438C272.87 94.4216 274.272 95.1093 275.64 95.7556C276.209 96.0241 276.621 96.9539 277.126 96.9719C280.336 97.0866 283.553 97.0302 286.742 97.0302C287.005 92.2265 284.231 88.7982 278.916 87.6664C272.062 86.2066 265.341 86.2576 259.413 91.2138C259.334 90.0233 259.269 89.0572 259.254 87.8048C259.099 87.7221 258.942 87.6393 258.432 87.2871C254.028 86.287 250.379 87.393 247.587 90.9886C247.587 90.9886 247.43 90.8922 247.473 90.4103C247.433 89.5581 247.393 88.7059 247.355 87.9117C243.429 87.9117 239.746 87.9117 235.949 87.9117C235.949 91.6898 235.949 95.2436 235.641 98.8881C235.436 98.892 235.232 98.8959 234.968 98.5037C232.406 90.3369 226.911 86.7042 217.701 87.0887C210.31 87.3971 204.204 92.1515 202.963 99.396C202.391 102.739 203.212 106.32 203.218 109.774C203.218 109.774 203.204 109.958 202.857 109.773C200.615 106.422 198.374 103.07 196.055 99.604C199.58 95.8164 203.029 92.1119 206.656 88.2153C199.003 87.5077 191.66 86.4666 187.13 94.5607C186.934 94.5653 186.737 94.5702 186.469 94.0744C186.469 89.8838 186.469 85.6933 186.469 81.5398C182.317 81.5398 178.5 81.5398 174.374 81.5398C174.374 87.0848 174.374 92.4518 174.093 97.8084C173.905 97.8125 173.717 97.8166 173.393 97.4435C171.941 91.9755 168.203 88.826 162.845 87.8602C152.023 85.9095 144.613 90.0591 141.326 101.641C140.298 95.9025 138.266 91.8459 133.73 89.4592C123.347 83.9966 111.914 88.774 108.231 99.9949C108.023 99.9844 107.815 99.9738 107.56 99.4808C108.135 90.0524 102.006 86.9346 96.6064 87.3237C93.704 87.5329 90.875 88.7642 87.9469 89.5519C87.9469 87.2247 87.9469 84.4651 87.9469 81.6534C83.8786 81.6534 79.9837 81.6534 76.1867 81.6534C76.1867 94.0626 76.1867 106.255 76.1867 118.345C80.2441 118.345 84.0667 118.345 88.0159 118.345C88.0159 113.193 88.002 108.253 88.0273 103.314C88.0327 102.24 88.027 101.127 88.2926 100.102C88.8397 97.9875 90.3055 97.026 92.5131 97.1497C94.636 97.2685 95.2692 98.7353 95.3421 100.45C95.499 104.136 95.4992 107.829 95.5389 111.519C95.5636 113.816 95.5435 116.114 95.5435 118.27C99.8251 118.27 103.655 118.27 107.627 118.27C107.627 114.386 107.627 110.703 108.07 107.039C108.217 107.04 108.365 107.042 108.613 107.442C110.99 115.912 117.508 120.121 127.165 119.424C134.162 118.919 140.037 114.535 140.713 109.25C138.636 109.25 136.568 109.239 134.501 109.254C132.214 109.27 130.117 109.31 127.93 110.716C124.46 112.946 120.648 110.696 120.157 106.547C127.427 106.547 134.69 106.547 141.903 106.547C144.655 114.895 149.715 119.035 157.446 119.37C165.122 119.703 170.555 116.267 173.825 109.201C174.011 109.197 174.197 109.193 174.453 109.689C174.453 112.545 174.453 115.402 174.453 118.276C178.626 118.276 182.517 118.276 186.24 118.276C187.347 114.905 185.044 111.165 188.064 108.01C189.895 111.213 191.492 114.125 193.228 116.95C193.626 117.597 194.496 118.347 195.169 118.367C199.468 118.495 203.772 118.432 208.375 118.432C207.705 117.154 207.19 116.169 206.674 115.184C215.486 121.592 229.366 120.226 234.643 111.123C234.691 110.944 234.738 110.764 234.907 110.729ZM48.0627 82.8285C37.1791 86.255 32.0016 94.8949 34.573 105.433C35.8692 110.746 39.0176 114.721 43.9754 116.941C51.8937 120.486 59.8871 120.662 67.5257 116.144C71.8402 113.593 74.3067 109.706 74.5329 104.378C69.9512 104.378 65.6606 104.378 61.4185 104.378C59.6596 109.044 57.7951 110.406 53.9504 109.924C50.3087 109.468 47.9427 106.935 47.6487 102.661C47.5034 100.547 47.6884 98.313 48.2384 96.272C49.0385 93.3032 51.2556 91.6673 54.3736 91.4241C57.5421 91.1767 59.4332 92.3701 61.022 95.4062C61.2961 95.9296 61.9468 96.5988 62.4386 96.6112C66.375 96.7096 70.315 96.666 74.3763 96.666C73.6225 89.8849 70.23 85.4175 63.9726 83.322C58.9046 81.6245 53.708 81.681 48.0627 82.8285Z" fill="black"/>
<path d="M151.147 66.1991C150.069 66.1658 148.991 66.104 147.914 66.1037C98.5976 66.0981 49.2819 66.0978 -0.287155 66.0903C-0.540283 44.0561 -0.540283 22.0282 -0.540283 0.000168556C107.153 9.2248e-09 214.847 0 322.541 0C322.541 21.8813 322.541 43.7286 322.541 65.8298C271.536 66.0947 220.532 66.1058 169.103 66.0736C167.913 66.1841 167.062 66.1736 166.4 66.5235C164.8 67.369 163.531 67.134 162.314 65.8386C166.554 61.9412 167.262 59.588 165.171 56.6549C163.13 53.7928 158.369 52.8094 155.195 54.8676C153.999 55.6427 152.578 57.0374 152.445 58.2774C152.217 60.4129 152.916 62.6486 153.264 65.1054C152.899 65.2938 152.023 65.7466 151.147 66.1991ZM232.732 23.4214C232.732 23.4214 232.768 23.6166 232.608 24.1299C232.7 28.3616 232.792 32.5932 232.931 37.2896C232.76 40.166 232.759 42.9635 229.418 44.4785C227.763 45.2286 228.133 47.4625 230.112 48.2647C235.58 50.4817 241.217 50.2838 246.705 48.4039C248.963 47.6306 249.097 45.1021 247.007 44.0731C244.808 42.9903 244.36 41.2802 244.383 39.2174C244.437 34.3478 244.542 29.4782 244.68 24.6102C244.698 23.9812 245.033 23.3613 245.483 21.8714C246.899 23.8492 247.637 25.4439 248.863 26.4256C249.992 27.3298 251.862 28.2709 253.006 27.9127C254.12 27.5641 255.514 25.5031 255.391 24.3426C255.137 21.9452 254.278 19.448 253.02 17.391C252.389 16.3604 250.346 15.7681 248.923 15.7309C242.315 15.5581 235.7 15.6193 229.088 15.6802C228.176 15.6886 226.798 15.8773 226.439 16.4711C224.889 19.0366 223.393 21.699 222.425 24.5156C222.126 25.385 223.293 27.3571 224.287 27.8934C225.109 28.3364 226.857 27.6888 227.847 27.0123C228.985 26.2346 229.74 24.893 231.15 23.7365C231.622 23.5964 232.093 23.4562 232.732 23.4214ZM86.5517 16.3265C85.4206 17.0791 84.12 17.6824 83.2545 18.6695C82.9716 18.9923 83.5705 20.6402 84.1952 21.1201C86.6265 22.9881 86.1764 25.6047 85.5958 27.7913C85.3879 28.5745 82.7192 28.7693 81.1442 29.0862C80.4708 29.2218 79.6671 29.1231 79.0262 28.8682C78.5306 28.6708 77.8415 28.0581 77.8492 27.6414C77.8912 25.3309 76.8889 22.8088 79.5891 21.0369C81.3531 19.8793 81.1316 17.5503 79.223 16.9728C74.3946 15.5119 69.4409 15.3885 64.6849 17.2652C62.6761 18.0579 62.8015 19.8333 64.454 21.2785C65.2384 21.9646 66.1436 23.057 66.1661 23.9854C66.3023 29.6653 66.3018 35.3544 66.0914 41.0311C66.0509 42.118 65.0633 43.3748 64.1761 44.1803C62.5156 45.6881 62.3999 47.6728 64.4703 48.501C69.1604 50.3778 74.0113 50.2335 78.7037 48.4827C80.7065 47.7354 80.8212 45.913 79.3088 44.3754C77.6854 42.7246 76.2099 37.7542 77.594 36.5506C78.9041 35.4116 81.2797 35.4878 83.1981 35.0856C83.6197 34.9972 84.136 35.0392 84.5265 35.21C84.9775 35.4074 85.4997 35.7308 85.7089 36.1434C86.6604 38.0194 85.5752 42.6651 83.9018 44.2195C82.1756 45.8231 82.3727 47.9741 84.593 48.7067C89.1419 50.2075 93.8331 50.259 98.381 48.7126C100.625 47.9498 100.669 45.9728 99.001 44.2419C98.2169 43.4281 97.4583 42.186 97.4256 41.1153C97.2573 35.6123 97.2725 30.1008 97.3689 24.5947C97.3859 23.6251 98.0191 22.629 98.499 21.7143C99.1079 20.5532 99.8506 19.4628 100.536 18.3419C99.2697 17.6388 98.0471 16.4472 96.7293 16.3294C93.5188 16.0424 90.2643 16.2534 86.5517 16.3265ZM179.954 37.7295C180.254 37.0031 180.555 36.2764 180.856 35.5497C181.683 35.9875 182.944 36.2225 183.259 36.9C184.312 39.1654 185.066 41.5761 185.865 43.9546C187.802 49.7233 195.808 52.2051 200.747 48.5436C202.55 47.2064 202.465 45.7878 200.678 44.4627C199.891 43.8798 198.942 43.0243 198.787 42.1621C197.989 37.7285 197.057 33.5106 191.047 32.5571C192.255 31.6925 192.791 31.2555 193.376 30.8996C195.749 29.4563 196.818 27.3368 196.804 24.579C196.78 19.96 193.732 16.6155 188.255 16.3146C181.802 15.9601 175.315 16.2328 168.842 16.2717C168.232 16.2754 167.596 16.4812 167.02 16.7146C164.788 17.6204 164.684 19.155 166.475 20.7845C167.375 21.6032 168.44 22.8415 168.471 23.9185C168.633 29.414 168.627 34.9263 168.345 40.4152C168.269 41.8936 167.259 43.5157 166.251 44.7073C164.84 46.3728 164.784 48.0841 166.857 48.7541C171.666 50.3088 176.61 50.3044 181.443 48.8335C183.084 48.3338 183.779 46.3807 182.352 45.433C179.47 43.517 180.002 40.8674 179.954 37.7295ZM99.3102 34.2514C100.166 41.5872 104.096 46.7098 110.944 49.119C118.171 51.6616 125.075 50.5904 130.694 45.0678C135.992 39.8601 136.8 33.3825 134.56 26.5454C131.86 18.3003 123.331 14.0364 113.483 15.7445C104.866 17.239 99.203 24.4184 99.3102 34.2514ZM57.3497 48.0764C58.0104 47.6084 58.707 47.184 59.3263 46.6663C65.6882 41.3457 64.4291 32.1518 56.851 28.8827C54.9597 28.0668 52.8901 27.6656 51.0029 26.8425C49.4831 26.1797 47.1428 26.0262 47.5338 23.4834C47.759 22.02 50.4831 21.6766 52.8118 22.7672C53.6129 23.1426 54.3394 23.7064 55.0426 24.2578C55.8203 24.8678 56.4329 25.8164 57.2977 26.1576C58.4556 26.6139 60.1377 27.1945 60.9522 26.6861C61.9175 26.0836 62.6921 24.3775 62.6879 23.1528C62.6735 18.9665 59.3247 16.1232 55.2536 16.3578C54.1995 16.4185 53.1287 16.0787 52.0604 16.0178C49.7356 15.8853 47.3767 15.5263 45.0864 15.7717C38.3295 16.4955 33.9138 21.5783 34.4233 27.7148C34.785 32.067 37.4699 34.748 41.0573 36.6042C43.4424 37.838 46.0506 38.6325 48.472 39.8039C49.1343 40.1242 49.9656 41.1978 49.8515 41.742C49.716 42.3868 48.7111 43.1367 47.9612 43.3103C45.2891 43.9283 42.9694 42.9707 41.0959 41.0713C39.9014 39.8598 38.9728 38.3874 37.8025 37.1487C36.3612 35.6231 34.5861 35.8326 33.8615 37.4935C32.4624 40.7004 34.675 46.917 37.9112 48.2601C44.2373 50.8857 50.6317 51.2542 57.3497 48.0764ZM257.018 20.5303C258.79 21.2017 259.393 22.5951 259.383 24.3731C259.354 29.6029 259.383 34.8338 259.282 40.0624C259.241 42.1762 258.746 44.103 256.639 45.3471C256.014 45.7162 255.498 47.1417 255.718 47.8326C255.93 48.5021 257.096 49.0515 257.945 49.2842C258.867 49.5375 259.908 49.361 260.897 49.3805C267.548 49.5107 274.207 49.4867 280.846 49.83C285.289 50.0596 285.897 49.9421 287.476 45.61C287.935 44.3527 288.486 42.9568 288.344 41.6987C288.195 40.3757 287.263 39.1417 286.675 37.8689C285.519 38.5093 283.96 38.8703 283.29 39.8459C281.729 42.1167 279.761 43.3436 277.108 43.6995C271.428 44.4615 270.431 43.5871 270.598 37.8444C270.634 36.6214 270.369 35.2103 272.242 34.9871C274.099 34.766 274.377 36.0043 274.849 37.3739C275.184 38.3475 276.057 39.1347 276.688 40.0052C277.608 39.1502 279.2 38.3822 279.323 37.4244C279.743 34.1648 279.844 30.8241 279.614 27.5465C279.547 26.599 277.958 25.7589 277.067 24.8695C276.333 25.7501 275.573 26.6111 274.88 27.5233C274.676 27.7911 274.769 28.3732 274.542 28.5196C273.731 29.0396 272.855 29.7163 271.971 29.764C271.482 29.7903 270.586 28.7389 270.485 28.0787C270.282 26.7668 270.529 25.3898 270.542 24.0391C270.562 22.3043 271.513 21.7351 273.12 21.6568C276.66 21.4846 279.913 21.7111 282.152 25.1356C283.138 26.6431 284.903 26.8495 285.995 25.2279C287.623 22.8126 286.959 20.2017 285.856 17.7439C284.978 15.7792 283.316 15.5773 281.34 15.6864C276.407 15.959 271.461 16.0551 266.521 16.1661C263.824 16.2266 261.114 16.008 258.432 16.2186C255.855 16.4211 255.291 17.9646 257.018 20.5303ZM151.7 37.5514C154.334 37.0966 157.125 37.0474 159.57 36.0993C164.085 34.3481 166.071 29.9843 165.437 24.5089C164.922 20.0639 162.24 16.7455 157.391 16.4149C150.339 15.934 143.227 16.2497 136.146 16.4299C135.298 16.4514 134.099 17.6143 133.796 18.5003C133.615 19.0307 134.867 20.0473 135.466 20.8524C136.217 21.8625 137.584 22.8699 137.6 23.8955C137.691 29.7498 137.503 35.611 137.284 41.465C137.255 42.2208 136.522 42.9632 136.075 43.6871C135.463 44.68 134.067 46.0251 134.331 46.5508C134.89 47.6638 136.244 48.9747 137.381 49.0863C141.105 49.4514 144.891 49.5102 148.625 49.2659C149.909 49.1819 151.562 48.14 152.245 47.0366C153.203 45.4894 151.195 44.7776 150.522 43.6526C149.635 42.1685 149.585 40.1518 149.359 38.3408C149.336 38.1534 150.561 37.8091 151.7 37.5514ZM217.829 16.2368C214.164 16.3738 210.482 16.3582 206.845 16.7505C205.882 16.8544 204.706 18.0698 204.298 19.0542C204.069 19.6066 205.243 20.7138 205.729 21.6019C206.303 22.6526 207.268 23.7308 207.281 24.8071C207.348 30.0371 207.257 35.2763 206.97 40.4984C206.907 41.6449 205.828 42.7411 205.196 43.8484C204.691 44.7328 203.59 45.7458 203.769 46.4362C204.006 47.3479 205.111 48.3962 206.059 48.6964C210.445 50.084 214.949 50.0647 219.358 48.8263C222.27 48.0081 222.511 46.2238 220.526 44.0363C219.652 43.0733 218.841 41.6405 218.805 40.3971C218.659 35.4381 218.676 30.4605 218.973 25.5104C219.063 24.0123 220.03 22.4119 220.987 21.1594C222.277 19.4698 222.225 17.9706 220.319 16.9688C219.692 16.6394 218.958 16.5157 217.829 16.2368Z" fill="#FFDB48"/>
<path d="M15 1.5H307C314.456 1.5 320.5 7.54416 320.5 15V65.5H1.5V15C1.5 7.54416 7.54416 1.5 15 1.5Z" fill="#FFDB48" stroke="black" stroke-width="3"/>
<path d="M235.949 98.7979C235.949 95.2438 235.949 91.6898 235.949 87.912C239.746 87.912 243.429 87.912 247.355 87.912C247.393 88.7062 247.433 89.5584 247.484 90.6971C247.495 90.9834 247.681 91.1478 247.681 91.1478C250.379 87.3932 254.027 86.2872 258.666 87.5208C258.986 87.8808 259.086 87.9929 259.205 88.0911C259.269 89.0572 259.334 90.0235 259.413 91.214C265.341 86.2579 272.059 86.2068 278.916 87.6664C284.231 88.7984 287.005 92.2268 286.742 97.0304C283.553 97.0304 280.336 97.0866 277.126 96.9722C276.621 96.9541 276.209 96.0244 275.64 95.7556C274.272 95.1093 272.87 94.4218 271.407 94.144C270.902 94.0479 270.173 95.1109 269.547 95.6446C270.063 96.1795 270.488 97.0139 271.106 97.1935C272.912 97.7187 274.808 97.9182 276.639 98.3671C278.553 98.8358 280.49 99.3022 282.317 100.026C285.573 101.317 287.649 103.681 287.878 107.307C288.11 110.981 286.843 114.023 283.718 116.137C278.203 119.868 267.013 119.835 261.546 116.052C258.708 114.087 257.151 111.427 257.264 107.751C261.054 107.751 264.72 107.751 268.386 107.753C269.967 110.821 272.242 111.923 274.787 110.729C275.351 110.464 276.111 109.719 276.067 109.265C276.005 108.641 275.367 107.723 274.797 107.561C272.384 106.878 269.88 106.514 267.453 105.872C263.306 104.775 259.225 103.554 257.925 98.616C257.803 98.1534 256.896 97.7172 256.287 97.5917C251.542 96.6142 248.41 99.1203 248.107 104.351C247.898 107.94 248.053 111.55 248.047 115.151C248.045 116.116 248.046 117.081 248.046 118.304C245.357 118.304 242.949 118.304 240.54 118.304C239.122 118.304 237.704 118.304 235.965 118.304C235.965 115.758 235.965 113.443 235.973 110.709C235.981 109.3 236.129 108.278 235.922 107.334C235.807 106.808 235.108 106.019 234.663 106.014C227.875 105.93 221.086 105.955 214.232 105.955C215.137 110.78 219.189 112.487 222.994 110.017C223.643 109.596 224.361 109.025 225.069 108.992C227.941 108.857 230.822 108.944 233.699 108.869C235.156 108.83 235.075 109.598 234.781 110.582C234.781 110.582 234.907 110.729 234.736 110.752C234.529 110.961 234.492 111.147 234.456 111.334C229.366 120.226 215.486 121.592 206.674 115.184C207.19 116.169 207.705 117.154 208.374 118.432C203.772 118.432 199.468 118.495 195.169 118.367C194.496 118.347 193.626 117.597 193.228 116.95C191.491 114.125 189.895 111.214 188.064 108.01C185.043 111.165 187.346 114.906 186.24 118.277C182.517 118.277 178.626 118.277 174.453 118.277C174.453 115.402 174.453 112.546 174.467 109.189C174.446 105.066 174.41 101.442 174.374 97.8192C174.374 92.452 174.374 87.0848 174.374 81.5398C178.499 81.5398 182.317 81.5398 186.469 81.5398C186.469 85.6935 186.469 89.8841 186.458 94.4682C186.564 95.0186 186.683 95.1756 186.802 95.3327C187.009 95.0787 187.217 94.8246 187.425 94.5705C191.66 86.4668 199.003 87.5079 206.655 88.2155C203.028 92.1121 199.58 95.8167 196.055 99.6043C198.373 103.071 200.615 106.422 203.029 110.04C203.665 111.098 204.129 111.888 204.593 112.679C204.829 112.494 205.065 112.309 205.301 112.124C204.668 111.347 204.034 110.57 203.401 109.793C203.212 106.32 202.391 102.739 202.963 99.3963C204.204 92.1518 210.31 87.3974 217.701 87.0889C226.911 86.7044 232.406 90.3371 234.962 98.901C235.007 99.9655 235.059 100.633 235.098 101.488C235.181 102.054 235.277 102.433 235.568 103.588C235.888 102.408 235.994 102.015 236.119 101.386C236.075 100.365 236.012 99.5816 235.949 98.7979ZM215.273 96.8475C214.927 97.6017 214.58 98.356 214.155 99.2796C217.665 99.2796 220.756 99.2796 223.868 99.2796C223.119 95.0086 219.6 93.8946 215.273 96.8475Z" fill="#FFDB48"/>
<path d="M173.547 109.188C170.555 116.267 165.122 119.703 157.446 119.37C149.715 119.035 144.655 114.895 141.903 106.546C134.69 106.546 127.427 106.546 120.157 106.546C120.648 110.696 124.46 112.946 127.929 110.716C130.117 109.31 132.214 109.27 134.501 109.254C136.568 109.239 138.636 109.25 140.713 109.25C140.038 114.535 134.162 118.919 127.165 119.424C117.508 120.121 110.99 115.912 108.588 106.991C108.556 104.351 108.549 102.163 108.542 99.974C111.914 88.774 123.347 83.9966 133.73 89.4592C138.266 91.8457 140.298 95.9025 141.326 101.641C144.613 90.0591 152.023 85.9095 162.845 87.8602C168.203 88.8258 171.941 91.9755 173.448 97.8813C173.106 98.8933 172.729 99.9475 172.31 99.965C169.008 100.102 165.699 100.041 162.29 100.041C161.96 97.419 160.495 96.1844 158.069 96.3504C155.48 96.5272 154.202 98.2833 154.079 100.645C153.96 102.943 153.929 105.381 154.596 107.528C154.961 108.701 156.812 110.048 158.067 110.127C159.336 110.206 160.773 108.918 161.98 108.019C162.463 107.659 162.528 106.738 162.765 106.119C166.54 106.119 170.249 106.119 174.129 106.119C173.909 107.282 173.728 108.235 173.547 109.188ZM129.723 99.2718C129.295 96.5828 127.549 95.5394 125.011 95.5636C122.386 95.5886 120.727 96.8518 119.972 99.636C123.291 99.636 126.371 99.636 129.723 99.2718Z" fill="#FFDB48"/>
<path d="M48.2834 82.7811C53.7079 81.6812 58.9047 81.6248 63.9725 83.322C70.2298 85.4178 73.6224 89.8851 74.3764 96.6663C70.3151 96.6663 66.3749 96.7099 62.4385 96.6114C61.947 96.599 61.296 95.9298 61.0219 95.4062C59.433 92.3703 57.5423 91.1767 54.3735 91.4241C51.2555 91.6676 49.0384 93.3034 48.2383 96.2723C47.6883 98.3132 47.5033 100.547 47.6489 102.661C47.9428 106.935 50.3086 109.468 53.9503 109.924C57.795 110.406 59.6595 109.045 61.4184 104.378C65.6605 104.378 69.9511 104.378 74.5328 104.378C74.3069 109.706 71.8401 113.593 67.5256 116.145C59.8869 120.663 51.8936 120.486 43.9752 116.941C39.0175 114.721 35.8691 110.746 34.5728 105.434C32.0015 94.8952 37.179 86.255 48.2834 82.7811Z" fill="#FFDB48"/>
<path d="M107.627 107.02C107.627 110.703 107.627 114.386 107.627 118.27C103.655 118.27 99.8249 118.27 95.5434 118.27C95.5434 116.114 95.5634 113.817 95.5387 111.519C95.499 107.829 95.4988 104.136 95.3422 100.45C95.2693 98.7356 94.6361 97.2688 92.5129 97.1498C90.3053 97.0263 88.8396 97.9878 88.2924 100.102C88.0268 101.128 88.0325 102.24 88.0271 103.315C88.0019 108.254 88.016 113.193 88.016 118.345C84.0668 118.345 80.244 118.345 76.1868 118.345C76.1868 106.255 76.1868 94.0629 76.1868 81.6537C79.9838 81.6537 83.8784 81.6537 87.947 81.6537C87.947 84.4654 87.947 87.2247 87.947 89.5522C90.8749 88.7644 93.7038 87.5332 96.6062 87.324C102.006 86.9348 108.135 90.0526 107.531 99.9666C107.544 102.641 107.586 104.831 107.627 107.02Z" fill="#FFDB48"/>
<path d="M151.051 66.1986C152.023 65.6035 152.899 65.1523 153.264 64.9645C152.916 62.5141 152.216 60.2845 152.445 58.1547C152.578 56.918 153.999 55.5273 155.195 54.7539C158.369 52.7014 163.13 53.6822 165.171 56.5366C167.262 59.4617 166.553 61.8088 162.314 65.6955C163.53 66.9876 164.8 67.2219 166.399 66.3787C167.062 66.0298 167.913 66.0401 168.847 65.9705C169.668 66.7848 170.321 67.5159 171.116 68.406C170.201 69.4749 169.293 70.536 168.205 71.8075C169.707 73.4181 171.221 75.0405 173.333 77.3061C169.665 76.7719 166.393 78.5407 164.061 75.3992C161.716 76.1944 159.498 77.2188 157.17 77.6708C153.809 78.3232 150.63 76.7111 149.337 74.1517C147.989 71.4815 148.518 68.9244 151.051 66.1986ZM155.347 68.986C155.44 69.9336 155.321 71.6031 155.661 71.7026C157.089 72.1198 158.654 72.067 160.168 72.1863C160.24 71.8897 160.312 71.5931 160.383 71.2965C159.56 70.4044 158.658 69.5718 157.935 68.6052C157.046 67.4169 156.354 67.9132 155.347 68.986ZM160.373 61.9953C160.756 61.3078 161.586 60.4762 161.422 59.9652C161.152 59.1259 160.236 58.4946 159.593 57.7756C158.961 58.3866 157.69 59.3257 157.807 59.5524C158.323 60.5592 159.238 61.3619 160.373 61.9953Z" fill="#FFDB48"/>
<mask id="mask1_640_254" style="mask-type:alpha" maskUnits="userSpaceOnUse" x="148" y="51" width="26" height="15">
<rect x="148.615" y="51.5385" width="24.7692" height="14.4308" fill="#D9D9D9"/>
</mask>
<g mask="url(#mask1_640_254)">
<path d="M151.051 66.1985C152.023 65.6035 152.899 65.1523 153.264 64.9644C152.916 62.514 152.216 60.2845 152.445 58.1547C152.578 56.918 153.999 55.5272 155.195 54.7539C158.369 52.7014 163.13 53.6822 165.171 56.5366C167.262 59.4617 166.553 61.8087 162.314 65.6955C163.53 66.9876 164.8 67.2218 166.399 66.3787C167.062 66.0297 167.913 66.0401 168.847 65.9705C169.668 66.7848 170.321 67.5159 171.116 68.4059C170.201 69.4748 169.293 70.536 168.205 71.8075C169.707 73.418 171.221 75.0405 173.333 77.3061C169.665 76.7719 166.393 78.5407 164.061 75.3992C161.716 76.1944 159.498 77.2187 157.17 77.6707C153.809 78.3232 150.63 76.7111 149.337 74.1517C147.989 71.4815 148.518 68.9244 151.051 66.1985ZM155.347 68.986C155.44 69.9335 155.321 71.6031 155.661 71.7026C157.089 72.1198 158.654 72.067 160.168 72.1863C160.24 71.8897 160.312 71.5931 160.383 71.2965C159.56 70.4043 158.658 69.5717 157.935 68.6051C157.046 67.4169 156.354 67.9132 155.347 68.986ZM160.373 61.9953C160.756 61.3078 161.586 60.4762 161.422 59.9652C161.152 59.1259 160.236 58.4946 159.593 57.7756C158.961 58.3866 157.69 59.3256 157.807 59.5524C158.323 60.5592 159.238 61.3619 160.373 61.9953Z" fill="black"/>
</g>
<path d="M173.686 109.195C173.728 108.236 173.908 107.282 174.129 106.12C170.249 106.12 166.54 106.12 162.764 106.12C162.527 106.738 162.463 107.66 161.98 108.019C160.773 108.919 159.336 110.206 158.067 110.127C156.812 110.049 154.961 108.701 154.596 107.529C153.929 105.381 153.959 102.943 154.079 100.646C154.202 98.2836 155.48 96.5274 158.069 96.3504C160.495 96.1847 161.959 97.4193 162.289 100.041C165.698 100.041 169.008 100.103 172.309 99.9653C172.729 99.9478 173.106 98.8933 173.516 98.0702C173.717 97.8169 173.905 97.8128 174.233 97.8138C174.41 101.442 174.446 105.066 174.432 108.939C174.196 109.193 174.011 109.197 173.686 109.195Z" fill="black"/>
<path d="M235.053 110.61C235.076 109.598 235.156 108.83 233.699 108.868C230.823 108.944 227.941 108.857 225.069 108.992C224.361 109.026 223.643 109.596 222.994 110.017C219.189 112.487 215.137 110.78 214.233 105.955C221.086 105.955 227.875 105.93 234.663 106.014C235.108 106.019 235.807 106.808 235.922 107.334C236.129 108.278 235.981 109.3 235.925 110.487C235.688 110.669 235.506 110.654 235.053 110.61Z" fill="black"/>
<path d="M107.848 107.03C107.585 104.831 107.544 102.641 107.555 100.208C107.815 99.9741 108.023 99.9846 108.386 99.9849C108.549 102.163 108.556 104.351 108.538 106.792C108.365 107.042 108.217 107.041 107.848 107.03Z" fill="black"/>
<path d="M235.11 101.3C235.059 100.633 235.007 99.9653 234.991 99.0987C235.232 98.8959 235.436 98.892 235.795 98.8428C236.012 99.5813 236.075 100.365 235.943 101.378C235.535 101.506 235.323 101.403 235.11 101.3Z" fill="black"/>
<path d="M187.278 94.5653C187.217 94.8243 187.009 95.0784 186.802 95.3325C186.683 95.1753 186.565 95.0184 186.493 94.7182C186.737 94.5702 186.934 94.5653 187.278 94.5653Z" fill="#117E82"/>
<path d="M247.634 91.0679C247.68 91.1476 247.495 90.9831 247.462 90.9375C247.429 90.8919 247.587 90.9883 247.634 91.0679Z" fill="#FBFDFD"/>
<path d="M259.228 87.9481C259.086 87.9932 258.986 87.8808 258.844 87.6556C258.942 87.6396 259.099 87.7223 259.228 87.9481Z" fill="#FBFDFD"/>
<path d="M234.481 111.412C234.408 111.3 234.466 111.051 234.676 110.681C234.756 110.798 234.684 111.036 234.481 111.412Z" fill="#107D81"/>
<path d="M86.7895 16.2853C90.2643 16.2436 93.5188 16.0332 96.7293 16.3194C98.0472 16.4369 99.2697 17.6253 100.536 18.3266C99.8506 19.4444 99.1077 20.5319 98.499 21.6898C98.0191 22.6021 97.3859 23.5955 97.3689 24.5625C97.2726 30.0539 97.2574 35.5505 97.4256 41.0388C97.4583 42.1064 98.2169 43.3452 99.0008 44.1566C100.669 45.8832 100.625 47.8548 98.381 48.6157C93.8328 50.1578 89.1417 50.1065 84.593 48.6095C82.3727 47.879 82.1754 45.7337 83.9018 44.1345C85.5749 42.5844 86.6602 37.9511 85.7089 36.0803C85.4995 35.6688 84.9773 35.3461 84.5265 35.1492C84.136 34.9789 83.6198 34.9369 83.1981 35.025C81.2795 35.4265 78.9039 35.3502 77.594 36.4862C76.2099 37.6865 77.6854 42.6437 79.3088 44.2898C80.8212 45.8234 80.7066 47.6411 78.7035 48.3864C74.0113 50.1322 69.1602 50.2763 64.4703 48.4047C62.4 47.5785 62.5156 45.5989 64.1761 44.0955C65.063 43.2921 66.0509 42.0386 66.0911 40.9545C66.3018 35.2933 66.3023 29.6194 66.1658 23.9548C66.1437 23.029 65.2385 21.9394 64.4541 21.2552C62.8016 19.8139 62.6758 18.0433 64.6849 17.2527C69.4409 15.3811 74.3943 15.5042 79.223 16.9611C81.1316 17.5371 81.3529 19.8598 79.5891 21.0143C76.8889 22.7815 77.8913 25.2968 77.8493 27.6009C77.8415 28.0166 78.5304 28.6276 79.0262 28.8244C79.6669 29.0788 80.4709 29.177 81.1442 29.0419C82.7192 28.726 85.3877 28.5317 85.5958 27.7504C86.1764 25.5698 86.6265 22.9602 84.195 21.0973C83.5703 20.6186 82.9714 18.9751 83.2545 18.6533C84.12 17.6688 85.4204 17.0671 86.7895 16.2853Z" fill="black"/>
<path d="M179.954 37.9119C180.002 40.7914 179.47 43.4338 182.352 45.3446C183.779 46.2898 183.084 48.2377 181.442 48.7361C176.61 50.2028 171.666 50.2072 166.857 48.6567C164.784 47.9885 164.84 46.2818 166.25 44.6207C167.259 43.4322 168.269 41.8147 168.345 40.3404C168.628 34.866 168.633 29.3687 168.471 23.888C168.439 22.8139 167.375 21.5789 166.475 20.7623C164.684 19.1373 164.787 17.6068 167.02 16.7034C167.595 16.4707 168.232 16.2654 168.842 16.2617C175.314 16.2229 181.802 15.9509 188.255 16.3045C193.732 16.6046 196.78 19.9402 196.804 24.5467C196.818 27.2968 195.749 29.4109 193.376 30.8504C192.791 31.2052 192.255 31.641 191.047 32.5032C197.057 33.4541 197.989 37.6607 198.786 42.0824C198.941 42.9424 199.891 43.7956 200.678 44.3769C202.465 45.6984 202.55 47.1134 200.746 48.4467C195.808 52.0984 187.802 49.6233 185.865 43.8701C185.066 41.498 184.313 39.0937 183.259 36.8345C182.944 36.1589 181.683 35.9246 180.856 35.4878C180.555 36.2125 180.254 36.9374 179.954 37.9119ZM182.083 21.4608C180.422 21.0947 179.768 21.8755 179.774 23.4576C179.779 24.8864 179.648 26.3235 179.768 27.7411C179.834 28.5209 180.387 29.9431 180.559 29.9191C181.622 29.7704 182.956 29.5831 183.609 28.8682C185.238 27.0855 184.489 23.0816 182.083 21.4608Z" fill="black"/>
<path d="M99.2933 33.9448C99.2029 24.3867 104.866 17.2266 113.483 15.7361C123.33 14.0326 131.86 18.2851 134.56 26.508C136.8 33.3266 135.992 39.7869 130.694 44.9805C125.075 50.4881 118.171 51.5568 110.944 49.0208C104.095 46.6181 100.166 41.5093 99.2933 33.9448ZM114.38 38.1934C114.805 38.8801 115.168 39.6176 115.668 40.2441C116.955 41.8531 118.485 43.2593 120.715 42.4626C122.824 41.7096 123.149 39.7238 123.16 37.7713C123.184 33.1434 121.862 28.8945 119.242 25.0906C118.113 23.45 116.537 22.283 114.426 22.9228C112.287 23.5712 111.47 25.4971 111.78 27.4272C112.343 30.9378 113.349 34.3772 114.38 38.1934Z" fill="black"/>
<path d="M57.1691 48.0681C50.6317 51.1504 44.237 50.7829 37.9109 48.1645C34.6747 46.825 32.4624 40.6249 33.8614 37.4267C34.5858 35.7703 36.3612 35.5615 37.8022 37.0827C38.9727 38.3181 39.9011 39.7869 41.0959 40.995C42.9691 42.8893 45.2891 43.8443 47.9609 43.2279C48.711 43.0547 49.7159 42.3069 49.8512 41.6639C49.9655 41.121 49.1343 40.0505 48.472 39.731C46.0503 38.5626 43.4421 37.7702 41.0572 36.5397C37.4696 34.6887 34.7847 32.0146 34.4232 27.6741C33.9134 21.5544 38.3292 16.4852 45.0863 15.7633C47.3767 15.5187 49.7352 15.8767 52.0601 16.0088C53.1286 16.0696 54.1994 16.4084 55.2535 16.3478C59.3244 16.114 62.6732 18.9496 62.6876 23.1245C62.6917 24.346 61.9174 26.0475 60.9522 26.6482C60.1374 27.1553 58.4553 26.5766 57.2976 26.1212C56.4326 25.7811 55.8203 24.835 55.0423 24.2266C54.3391 23.6767 53.6129 23.1144 52.8115 22.7401C50.4831 21.6523 47.7587 21.9949 47.5335 23.4543C47.1425 25.9903 49.4828 26.1434 51.0026 26.8044C52.8901 27.6254 54.9596 28.0253 56.8507 28.8388C64.4287 32.0994 65.6882 41.2686 59.3259 46.5748C58.7069 47.0912 58.0101 47.5146 57.1691 48.0681Z" fill="black"/>
<path d="M256.852 20.401C255.292 17.9502 255.855 16.4109 258.432 16.209C261.114 15.999 263.824 16.217 266.521 16.1566C271.461 16.0459 276.407 15.9501 281.34 15.6782C283.316 15.5694 284.978 15.7708 285.856 17.7302C286.959 20.1814 287.623 22.7853 285.995 25.1941C284.903 26.8113 283.138 26.6054 282.152 25.102C279.913 21.6867 276.66 21.4609 273.12 21.6326C271.513 21.7107 270.562 22.2783 270.542 24.0085C270.529 25.3555 270.282 26.7289 270.485 28.0372C270.586 28.6956 271.482 29.7441 271.971 29.7178C272.855 29.6704 273.731 28.9955 274.542 28.477C274.769 28.3309 274.676 27.7504 274.88 27.4831C275.573 26.5735 276.333 25.7148 277.067 24.8367C277.958 25.7237 279.547 26.5614 279.614 27.5066C279.846 30.7754 279.743 34.1071 279.323 37.3576C279.2 38.3129 277.608 39.0788 276.688 39.9315C276.057 39.0636 275.184 38.2784 274.849 37.3074C274.377 35.9414 274.099 34.7065 272.242 34.9268C270.369 35.1495 270.634 36.557 270.598 37.7766C270.431 43.5039 271.428 44.3759 277.108 43.616C279.761 43.2611 281.729 42.0373 283.29 39.7727C283.96 38.7999 285.519 38.4397 286.675 37.8011C287.263 39.0705 288.195 40.301 288.344 41.6204C288.486 42.8751 287.937 44.2674 287.476 45.5213C285.897 49.8415 285.289 49.9591 280.846 49.73C274.207 49.3877 267.548 49.4115 260.897 49.2816C259.908 49.2623 258.867 49.4383 257.945 49.1855C257.096 48.9535 255.93 48.4057 255.718 47.738C255.498 47.0489 256.014 45.6272 256.639 45.2593C258.746 44.0182 259.241 42.0969 259.282 39.9887C259.382 34.7743 259.357 29.5573 259.382 24.3415C259.393 22.5683 258.79 21.1787 256.852 20.401Z" fill="black"/>
<path d="M151.454 37.4777C150.562 37.7416 149.336 38.0849 149.359 38.2717C149.585 40.0778 149.635 42.0891 150.522 43.5693C151.195 44.6913 153.203 45.401 152.245 46.9443C151.563 48.0447 149.91 49.0837 148.625 49.1674C144.891 49.4112 141.105 49.3525 137.381 48.9883C136.244 48.877 134.89 47.5697 134.332 46.4596C134.068 45.9352 135.463 44.5939 136.075 43.6036C136.522 42.8818 137.256 42.1414 137.284 41.3877C137.503 35.5492 137.691 29.7039 137.6 23.8653C137.584 22.8425 136.217 21.8377 135.466 20.8304C134.867 20.0275 133.616 19.0136 133.796 18.4846C134.099 17.601 135.299 16.4413 136.147 16.4197C143.227 16.2401 150.34 15.9253 157.391 16.4048C162.24 16.7346 164.922 20.0441 165.437 24.477C166.071 29.9377 164.086 34.2898 159.57 36.0362C157.125 36.9817 154.334 37.0309 151.454 37.4777ZM149.426 31.5634C152.098 31.6766 153.373 30.6641 153.829 28.066C154.309 25.3294 153.149 22.3671 151.328 21.7661C149.88 21.2882 149.035 21.7751 149.046 23.3731C149.065 25.9785 149.115 28.5837 149.426 31.5634Z" fill="black"/>
<path d="M230.661 23.7666C229.74 24.8602 228.985 26.198 227.847 26.9737C226.857 27.6486 225.109 28.2944 224.287 27.8524C223.292 27.3177 222.125 25.3509 222.424 24.4838C223.393 21.6748 224.889 19.0196 226.439 16.4609C226.797 15.8687 228.175 15.6806 229.088 15.6722C235.699 15.6115 242.314 15.5504 248.923 15.7227C250.346 15.7598 252.389 16.3506 253.02 17.3784C254.278 19.4298 255.136 21.9203 255.391 24.3113C255.514 25.4686 254.119 27.5241 253.006 27.8717C251.862 28.2292 249.992 27.2904 248.863 26.3887C247.637 25.4096 246.899 23.8192 245.482 21.8467C245.033 23.3326 244.698 23.9509 244.68 24.5781C244.542 29.4331 244.437 34.2896 244.382 39.146C244.359 41.2035 244.808 42.9086 247.007 43.9886C249.097 45.015 248.963 47.5365 246.705 48.308C241.217 50.1825 235.58 50.3799 230.112 48.1689C228.133 47.369 227.763 45.1413 229.418 44.3929C232.759 42.8821 232.759 40.092 232.978 36.7817C232.939 32.0891 232.853 27.8382 232.767 23.5872C232.767 23.5872 232.731 23.3926 232.558 23.2152C231.809 23.2807 231.235 23.5236 230.661 23.7666Z" fill="black"/>
<path d="M218.051 16.2574C218.958 16.5051 219.692 16.6284 220.319 16.9569C222.225 17.956 222.278 19.4512 220.987 21.1363C220.03 22.3854 219.063 23.9815 218.973 25.4755C218.676 30.4123 218.659 35.3765 218.805 40.3221C218.841 41.5621 219.652 42.9913 220.526 43.9515C222.512 46.1334 222.27 47.9127 219.358 48.7286C214.949 49.9637 210.446 49.983 206.059 48.599C205.111 48.2998 204.006 47.2543 203.769 46.3452C203.59 45.6564 204.691 44.6462 205.196 43.7641C205.828 42.6599 206.907 41.5668 206.97 40.4231C207.257 35.2152 207.348 29.9902 207.282 24.7741C207.268 23.7007 206.303 22.6255 205.729 21.5776C205.243 20.6919 204.069 19.5876 204.298 19.0368C204.706 18.055 205.882 16.8429 206.845 16.7392C210.482 16.3479 214.164 16.3636 218.051 16.2574Z" fill="black"/>
<path d="M232.688 23.8428C232.853 27.8377 232.939 32.0889 232.954 36.5495C232.792 32.5393 232.7 28.3191 232.688 23.8428Z" fill="#EF363D"/>
<path d="M230.905 23.7362C231.235 23.5231 231.809 23.2802 232.474 23.1621C232.093 23.4268 231.621 23.5666 230.905 23.7362Z" fill="#EF363D"/>
<path d="M215.424 96.69C219.6 93.8943 223.119 95.0081 223.868 99.2793C220.757 99.2793 217.666 99.2793 214.155 99.2793C214.58 98.3557 214.927 97.6015 215.424 96.69Z" fill="black"/>
<path d="M203.31 109.784C204.035 110.57 204.668 111.347 205.301 112.124C205.065 112.309 204.829 112.494 204.593 112.679C204.129 111.888 203.665 111.098 203.202 110.133C203.204 109.958 203.218 109.775 203.31 109.784Z" fill="#FBFDFD"/>
<path d="M235.098 101.487C235.323 101.403 235.535 101.506 235.924 101.615C235.994 102.015 235.888 102.408 235.568 103.588C235.277 102.432 235.182 102.054 235.098 101.487Z" fill="#FBFDFD"/>
<path d="M129.586 99.4538C126.37 99.636 123.291 99.636 119.972 99.636C120.727 96.8518 122.386 95.5886 125.011 95.5636C127.549 95.5394 129.295 96.5828 129.586 99.4538Z" fill="black"/>
<path d="M155.475 68.8337C156.354 67.913 157.046 67.4167 157.935 68.6052C158.658 69.5718 159.56 70.4044 160.383 71.2965C160.312 71.5931 160.24 71.8897 160.168 72.1863C158.654 72.067 157.089 72.1198 155.661 71.7026C155.321 71.6032 155.44 69.9336 155.475 68.8337Z" fill="black"/>
<path d="M160.191 62.1162C159.238 61.3614 158.324 60.5587 157.807 59.5519C157.691 59.3252 158.961 58.3861 159.593 57.7751C160.236 58.4941 161.152 59.1255 161.422 59.9648C161.587 60.4758 160.757 61.3073 160.191 62.1162Z" fill="#FFDB48"/>
<path d="M182.287 21.5093C184.489 23.0815 185.238 27.0855 183.609 28.8682C182.955 29.5828 181.622 29.7704 180.559 29.9188C180.387 29.9431 179.834 28.5209 179.768 27.7408C179.648 26.3235 179.779 24.8863 179.773 23.4575C179.768 21.8754 180.421 21.0946 182.287 21.5093Z" fill="#FFDB48"/>
<path d="M114.276 38.0194C113.349 34.3769 112.343 30.9375 111.78 27.4267C111.47 25.4968 112.288 23.5709 114.427 22.9225C116.537 22.2827 118.113 23.4496 119.243 25.0903C121.862 28.894 123.184 33.1431 123.16 37.771C123.15 39.7233 122.824 41.709 120.716 42.4623C118.486 43.2591 116.955 41.8528 115.669 40.2438C115.168 39.6173 114.806 38.8798 114.276 38.0194Z" fill="#FFDB48"/>
<path d="M149.289 31.3761C149.115 28.5838 149.065 25.9785 149.046 23.3729C149.035 21.7749 149.88 21.2881 151.328 21.7659C153.149 22.367 154.309 25.3293 153.829 28.0658C153.372 30.6638 152.097 31.6766 149.289 31.3761Z" fill="#FFDB48"/>
</g>
</g>
<defs>
<clipPath id="clip0_640_254">
<rect width="322" height="134" rx="15" fill="white"/>
</clipPath>
</defs>
</svg>
