<svg width="55" height="55" viewBox="0 0 55 55" fill="none" xmlns="http://www.w3.org/2000/svg">
<g clip-path="url(#clip0_469_734)">
<path d="M26.3103 0.0251606C30.1598 -0.153849 34.0037 0.483274 37.5912 1.89498C41.1788 3.30668 44.4294 5.46124 47.1311 8.21815C49.8327 10.9751 51.9248 14.2724 53.2707 17.895C54.6167 21.5177 55.1863 25.3843 54.9425 29.2427C54.6567 33.9223 53.1726 38.4488 50.6336 42.3849C47.2123 47.7352 42.0541 51.7357 36.0313 53.7097C30.0085 55.6838 23.491 55.5102 17.5811 53.2184C11.6712 50.9266 6.73169 46.6572 3.59814 41.1324C0.46459 35.6076 -0.670678 29.1665 0.384363 22.8986C1.44501 16.6855 4.59752 11.0253 9.31577 6.86256C14.034 2.69984 20.0326 0.286449 26.3103 0.0251606ZM24.5333 2.0488C18.4309 2.76104 12.786 5.64691 8.62512 10.1816C4.46425 14.7162 2.0638 20.5985 1.86032 26.7586C1.65683 32.9187 3.66382 38.9475 7.51631 43.7485C11.3688 48.5496 16.8109 51.8041 22.8529 52.9201C28.8949 54.0361 35.1354 52.9396 40.4397 49.8298C45.7439 46.7201 49.7596 41.8038 51.7563 35.9749C53.753 30.146 53.5981 23.7918 51.3199 18.0677C49.0417 12.3437 44.7914 7.6301 39.342 4.78412C34.7909 2.40289 29.6313 1.44984 24.5333 2.0488Z" fill="black"/>
<path d="M16.8482 15.7194C17.119 15.638 17.4019 15.6043 17.6842 15.62C19.7466 15.6296 21.8091 15.62 23.8704 15.62C24.2167 15.6192 24.556 15.7177 24.8484 15.9038C25.1408 16.09 25.3741 16.3561 25.5208 16.6707C25.6759 17.0649 25.7369 17.49 25.6988 17.912C25.6856 19.9356 25.7107 21.9605 25.688 23.9841C25.6575 24.4487 25.4508 24.884 25.1102 25.2004C24.7697 25.5169 24.3214 25.6904 23.8572 25.6854H17.388C16.9299 25.6826 16.4906 25.502 16.1623 25.1815C15.8339 24.861 15.6419 24.4255 15.6265 23.9661V17.3129C15.6474 16.955 15.775 16.6117 15.9929 16.3275C16.2108 16.0434 16.5088 15.8315 16.8482 15.7194Z" fill="black"/>
<path d="M30.5354 15.7206C30.8546 15.6335 31.1857 15.5987 31.5159 15.6176C33.5736 15.6308 35.6325 15.6104 37.689 15.6284C38.1527 15.6619 38.5868 15.8698 38.9043 16.2106C39.2218 16.5513 39.3994 16.9998 39.4015 17.4663C39.4182 19.5854 39.4182 21.7041 39.4015 23.8224C39.4097 24.2954 39.2351 24.7533 38.9143 25.1002C38.5935 25.447 38.1514 25.6559 37.6806 25.683C35.5309 25.6962 33.3717 25.683 31.2161 25.6902C30.8552 25.7074 30.4972 25.6168 30.1875 25.43C29.8779 25.2432 29.6303 24.9685 29.4761 24.6407C29.3209 24.2303 29.26 23.79 29.2981 23.3527C29.3089 21.3866 29.2982 19.4204 29.3041 17.4531C29.3056 17.072 29.4248 16.7008 29.6453 16.3906C29.8658 16.0803 30.1768 15.8462 30.5354 15.7206Z" fill="black"/>
<path d="M16.6942 29.4655C17.0101 29.3347 17.3518 29.2789 17.6926 29.3026C19.7479 29.3134 21.8021 29.3026 23.855 29.3086C24.0973 29.3068 24.3376 29.3535 24.5618 29.4459C24.786 29.5383 24.9895 29.6746 25.1606 29.8468C25.3317 30.019 25.4669 30.2237 25.5583 30.4489C25.6497 30.6741 25.6954 30.9153 25.6929 31.1585V37.5373C25.6954 38.0209 25.5066 38.4859 25.1679 38.83C24.8291 39.1741 24.3681 39.3693 23.886 39.3728H17.3726C16.9231 39.3654 16.4931 39.1875 16.169 38.875C15.8449 38.5625 15.6507 38.1385 15.6254 37.6883C15.619 35.4685 15.619 33.2488 15.6254 31.0291C15.6355 30.6931 15.7416 30.3671 15.9311 30.0899C16.1206 29.8127 16.3855 29.596 16.6942 29.4655Z" fill="black"/>
</g>
<defs>
<clipPath id="clip0_469_734">
<rect width="55" height="55" fill="white"/>
</clipPath>
</defs>
</svg>
