<svg width="174" height="95" viewBox="0 0 174 95" fill="none" xmlns="http://www.w3.org/2000/svg">
<path d="M168.055 38.9096C167.103 37.5593 165.541 36.742 163.87 36.742H156.632C155.842 36.742 155.07 36.9197 154.387 37.2573C153.687 36.9197 152.933 36.742 152.142 36.742H144.797C143.503 36.742 142.336 37.2218 141.438 38.0213C138.349 36.3334 134.739 36.3156 133.32 36.3156C130.949 36.3156 128.902 36.6177 127.141 37.2395L127.734 34.5034C128.057 33.011 127.68 31.483 126.71 30.2926C125.741 29.1022 124.304 28.4271 122.759 28.4271H115.791C113.581 28.4271 111.642 29.8662 110.959 31.8917C108.912 30.648 106.325 30.0084 103.2 30.0084H94.3997C92.011 30.0084 89.9097 31.6785 89.4247 34.0059L88.3651 38.9096L88.3471 38.9629C88.1316 38.803 87.9161 38.6253 87.6826 38.4832C87.6826 38.4654 87.6826 38.4477 87.6826 38.4299C87.6646 38.4299 87.6646 38.4121 87.6466 38.4121C87.8981 37.0618 87.5568 35.676 86.6768 34.61C85.7788 33.5085 84.4317 32.8866 82.9949 32.8866H78.3611C76.152 32.8866 74.2123 34.4323 73.7453 36.5644L73.5837 37.2751C73.0988 37.4527 72.6318 37.6659 72.2007 37.8969V37.9502C71.3386 38.3944 70.4945 38.9807 69.7043 39.7269C69.6863 39.7091 69.6863 39.7091 69.6683 39.6914C67.4772 37.4705 64.1545 36.3334 59.7722 36.3334C58.7664 36.3334 57.8145 36.4045 56.9165 36.5111L69.3989 25.6554L69.5965 25.4422C70.9076 23.9676 71.2129 21.8533 70.4047 20.0589C69.5785 18.2644 67.7645 17.0918 65.7709 17.0918C65.1423 17.0918 64.5137 17.2161 63.921 17.4293L50.2352 22.6884C50.6663 21.4091 50.8818 20.0411 50.8818 18.6197C50.8818 11.3708 44.9189 5.47217 37.5911 5.47217C30.2633 5.47217 24.3004 11.3708 24.3004 18.6197C24.3004 19.5258 24.3903 20.3964 24.5699 21.2492L13.0932 13.1297C12.2131 12.5079 11.2073 12.1881 10.1297 12.1881C8.45941 12.1881 6.91481 12.9876 5.94495 14.3557C4.99306 15.7059 4.77753 17.4293 5.35226 18.9573L5.4241 19.1705L20.6904 50.014L20.2234 73.1466C20.1157 74.4613 20.5467 75.7583 21.4088 76.7533C22.3787 77.8904 23.7976 78.5477 25.3062 78.5477C26.761 78.5477 28.1619 77.9259 29.1318 76.8243L29.4012 76.5223L43.9132 52.0927L42.5482 58.4888C41.4346 63.7834 42.0094 67.7276 44.3442 70.5704C46.5354 73.2354 50.0376 74.5857 54.7612 74.5857C59.7722 74.5857 63.0769 73.0933 65.286 71.0856C65.304 71.0678 65.304 71.0678 65.3219 71.0501C65.7709 71.5475 66.3097 72.0095 66.9384 72.4537C66.7408 73.7507 67.1 75.0832 67.9441 76.1137C68.8421 77.2152 70.1892 77.8371 71.626 77.8371H76.2598C78.4869 77.8371 80.4266 76.2736 80.8936 74.1238L80.9654 73.804C81.5222 73.6263 82.061 73.4131 82.5998 73.1643V73.1288C82.9231 72.9867 83.2284 72.809 83.5337 72.6491L83.5517 72.6669C84.5036 73.573 85.7608 74.106 87.1078 74.106H94.1303C96.5191 74.106 98.6204 72.4181 99.1054 70.0907L100.991 61.1006C102.392 61.0473 103.649 60.8874 104.763 60.6209L103.182 68.0297C102.859 69.5221 103.236 71.0501 104.206 72.2405C105.176 73.4308 106.613 74.106 108.157 74.106H115.126C116.437 74.106 117.658 73.5907 118.574 72.7557C120.101 73.9461 122.059 74.5857 124.232 74.5857C125.741 74.5857 127.141 74.337 128.417 73.8395C128.938 74.0172 129.494 74.106 130.051 74.106H135.008L134.451 76.8776C134.164 78.2457 134.487 79.6848 135.313 80.8219C136.14 81.959 137.415 82.7052 138.816 82.8829C139.929 83.025 141.097 83.0783 142.462 83.0783C151.083 83.0783 154.603 79.2406 156.92 74.3725L165.307 52.4125L168.63 43.5646C169.223 41.9833 168.989 40.2599 168.055 38.9096Z" fill="#0E2336"/>
<g opacity="0.25">
<path d="M66.6511 23.2038L46.1584 41.0418L26.2224 74.6036C25.7913 75.1011 24.9651 74.7102 25.0729 74.0706L25.5578 49.7121L9.91435 18.1046C9.69882 17.5006 10.3813 16.9853 10.9201 17.3584L30.4071 31.1456C30.7124 31.3588 30.7663 31.7674 30.5508 32.0517L27.2102 36.5112C27.0485 36.7244 27.282 37.0265 27.5335 36.9199L65.9148 22.1733C66.5613 21.9245 67.1001 22.6885 66.6511 23.2038ZM68.07 51.7553L66.8487 57.494C66.7769 57.796 66.5075 58.0092 66.2021 58.0092H56.0725L55.1565 62.682C54.8332 64.2277 55.3181 64.6896 55.9647 64.6896C56.9346 64.6896 57.3117 64.1566 57.671 62.5221L57.9942 61.0652C58.0661 60.7631 58.3355 60.5499 58.6408 60.5499H65.3759C65.789 60.5499 66.0944 60.9053 66.0225 61.2961L65.9327 61.8647C64.8012 67.4257 62.3406 70.8192 55.2104 70.8192C47.4335 70.8192 45.9428 66.5729 47.3258 59.9992L49.2475 50.938C50.5946 44.7906 53.3245 41.3438 60.1854 41.3438C67.9622 41.3616 69.3991 45.3947 68.07 51.7553ZM59.5927 47.2958C58.5151 47.2958 58.2457 47.9354 57.7248 50.636L57.2938 52.7502H59.7005L60.1854 50.4761C60.6703 48.3085 60.7781 47.2958 59.5927 47.2958ZM84.8989 42.3388L83.5518 41.8058L84.2343 38.5189C84.3241 38.1102 84.0008 37.7371 83.5877 37.7371H78.954C78.6487 37.7371 78.3792 37.9503 78.3074 38.2524L77.571 41.5393L76.691 41.7169C73.063 42.5875 71.3388 45.0571 70.6563 48.4862C69.7942 52.7325 70.8179 55.0066 75.1105 58.4534C77.7327 60.5677 77.6788 61.9002 77.3555 63.4459C77.0861 64.7252 76.5473 65.1338 75.9007 65.1338C75.0925 65.1338 74.8231 64.4409 75.1464 62.9662L75.3619 62.0068C75.4517 61.5982 75.1284 61.2251 74.7153 61.2251H68.5549C68.2496 61.2251 67.9802 61.4383 67.9084 61.7403L67.8545 62.0068C67.2618 64.9739 67.3336 68.3674 70.6563 69.9487L72.2548 70.4461L71.5543 73.8396C71.4645 74.2483 71.7878 74.6214 72.2009 74.6214H76.8347C77.14 74.6214 77.4094 74.4082 77.4812 74.1061L78.1996 70.7126L78.8462 70.5172C83.3363 69.5933 84.9527 66.644 85.6173 63.2327C86.5333 58.4001 85.3479 56.1793 80.319 52.0929C78.505 50.6004 78.2356 49.8187 78.6127 48.2196C78.8283 47.3135 79.1515 46.8338 79.852 46.8338C80.8219 46.8338 80.8219 47.6866 80.4447 49.3745L80.301 50.0141C80.2112 50.4228 80.5165 50.8136 80.9476 50.8136H86.9284C87.2337 50.8136 87.5031 50.6004 87.575 50.2984L87.6827 49.8009C88.2215 47.2602 88.0778 43.9378 84.8989 42.3388Z" fill="black"/>
</g>
<path d="M66.256 22.5463L45.7453 40.3843L25.8093 73.9461C25.3782 74.4436 24.552 74.0527 24.6598 73.4131L25.1447 49.0368L9.50126 17.4472C9.28574 16.8431 9.96823 16.3278 10.507 16.7009L29.994 30.4703C30.2994 30.6836 30.3532 31.0922 30.1377 31.3765L26.7971 35.836C26.6354 36.0492 26.8689 36.3512 27.1204 36.2446L65.5017 21.498C66.1483 21.2671 66.705 22.031 66.256 22.5463ZM67.6569 51.0978L66.4356 56.8365C66.3638 57.1386 66.0944 57.3518 65.789 57.3518H55.6594L54.7434 62.0245C54.4201 63.5702 54.9051 64.0322 55.5516 64.0322C56.5215 64.0322 56.8987 63.4992 57.2579 61.8646L57.5812 60.4077C57.653 60.1057 57.9224 59.8925 58.2277 59.8925H64.9629C65.376 59.8925 65.6813 60.2478 65.6094 60.6387L65.5196 61.2072C64.3881 66.7683 61.9276 70.1618 54.7973 70.1618C47.0205 70.1618 45.5298 65.9155 46.9127 59.3417L48.8345 50.2805C50.1815 44.1332 52.9115 40.6864 59.7723 40.6864C67.5492 40.7041 68.986 44.7372 67.6569 51.0978ZM59.1796 46.6383C58.102 46.6383 57.8326 47.2779 57.3118 49.9785L56.8807 52.0928H59.2874L59.7723 49.8186C60.2573 47.651 60.365 46.6383 59.1796 46.6383ZM84.4858 41.6813L83.1388 41.1483L83.8213 37.8614C83.9111 37.4528 83.5878 37.0797 83.1747 37.0797H78.5409C78.2356 37.0797 77.9662 37.2929 77.8943 37.5949L77.158 40.8818L76.2779 41.0595C72.6499 41.93 70.9257 44.3997 70.2432 47.8287C69.3811 52.075 70.4049 54.3492 74.6974 57.7959C77.3196 59.9102 77.2657 61.2427 76.9424 62.7885C76.673 64.0677 76.1342 64.4763 75.4876 64.4763C74.6794 64.4763 74.41 63.7834 74.7333 62.3088L74.9488 61.3493C75.0386 60.9407 74.7154 60.5676 74.3023 60.5676H68.1419C67.8365 60.5676 67.5671 60.7808 67.4953 61.0828L67.4414 61.3493C66.8487 64.3164 66.9206 67.7099 70.2432 69.2912L71.8417 69.7887L71.1412 73.1822C71.0514 73.5908 71.3747 73.9639 71.7878 73.9639H76.4216C76.7269 73.9639 76.9963 73.7507 77.0682 73.4487L77.7866 70.0552L78.4331 69.8597C82.9232 68.9359 84.5397 65.9865 85.2042 62.5753C86.1202 57.7427 84.9348 55.5218 79.9059 51.4354C78.0919 49.943 77.8225 49.1612 78.1997 47.5622C78.4152 46.6561 78.7385 46.1764 79.4389 46.1764C80.4088 46.1764 80.4088 47.0292 80.0316 48.717L79.8879 49.3566C79.7981 49.7653 80.1035 50.1562 80.5345 50.1562H86.5333C86.8386 50.1562 87.108 49.9429 87.1798 49.6409L87.2876 49.1434C87.8085 46.6028 87.6827 43.2981 84.4858 41.6813Z" fill="#FF7B00"/>
<g opacity="0.25">
<path d="M111.462 45.075C112.647 39.514 111.085 35.0544 103.577 35.0544H94.7769C94.4715 35.0544 94.2021 35.2676 94.1303 35.5697L86.8563 69.5757C86.7665 69.9843 87.0898 70.3574 87.5029 70.3574H94.5254C94.8307 70.3574 95.1001 70.1442 95.172 69.8422L97.7942 57.3698H100.524C107.331 57.3698 109.415 54.5626 110.708 48.5751L111.462 45.075ZM103.326 43.476L102.302 48.3974C101.925 50.1919 101.386 50.8315 100.057 50.8315H99.249L101.332 41.0241H102.087C103.272 41.0419 103.703 41.6282 103.326 43.476ZM123.783 34.2372L116.186 69.8422C116.114 70.1442 115.844 70.3574 115.539 70.3574H108.57C108.157 70.3574 107.834 69.9843 107.924 69.5757L115.521 33.9707C115.593 33.6686 115.862 33.4554 116.168 33.4554H123.136C123.567 33.4554 123.873 33.8463 123.783 34.2372ZM164.894 42.6587L154.513 70.3041C152.322 76.0784 150.436 79.312 142.875 79.312C141.582 79.312 140.612 79.2409 139.768 79.1521C139.39 79.0988 139.121 78.7434 139.211 78.3703L140.342 72.7915C140.414 72.4717 140.719 72.2407 141.043 72.2762C141.33 72.3118 141.6 72.3296 141.905 72.3296C143.306 72.3296 144.15 71.9564 144.365 71.2635L144.527 42.4277C144.527 42.0724 144.814 41.7881 145.192 41.7881H152.537C152.933 41.7881 153.238 42.1257 153.184 42.4988C152.573 48.3264 151.46 57.9561 150.903 61.7227H151.334C152.376 57.6718 154.405 49.5168 156.399 42.2678C156.471 41.9836 156.74 41.7881 157.027 41.7881H164.266C164.732 41.7881 165.056 42.2323 164.894 42.6587ZM141.959 50.4229C143.521 43.2095 139.66 41.3617 133.697 41.3617C127.914 41.3617 125.022 43.2628 123.675 49.5345L123.621 49.7655C123.531 50.1741 123.855 50.5472 124.268 50.5472H130.662C130.967 50.5472 131.236 50.334 131.308 50.0498L131.506 49.1792C131.883 47.5446 132.314 47.1182 133.122 47.1182C133.984 47.1182 134.254 47.5979 133.877 49.3924L133.284 52.1996C125.022 52.7326 121.753 54.8468 120.37 61.3673C119.023 67.6213 120.748 70.8549 124.663 70.8549C126.639 70.8549 128.363 70.2686 130.015 68.3142C129.943 68.7762 129.871 69.2203 129.818 69.6467C129.764 70.0376 130.069 70.3752 130.464 70.3752H137.271C137.594 70.3752 137.864 70.1442 137.918 69.8422C138.205 68.1543 138.995 64.0324 139.337 62.6466L141.959 50.4229ZM131.129 62.3623C130.913 63.2684 130.536 64.1034 129.512 64.1034C128.65 64.1034 128.273 63.3572 128.65 61.4029C129.243 58.3825 130.051 57.9561 132.081 57.6363L131.129 62.3623ZM46.8586 19.2774C46.8586 24.1278 42.8894 28.0543 37.9862 28.0543C33.083 28.0543 29.1138 24.1278 29.1138 19.2774C29.1138 14.427 33.083 10.5005 37.9862 10.5005C42.8894 10.5005 46.8586 14.427 46.8586 19.2774Z" fill="black"/>
</g>
<path d="M111.067 44.4175C112.252 38.8565 110.69 34.397 103.182 34.397H94.3817C94.0764 34.397 93.807 34.6102 93.7352 34.9122L86.4612 68.9182C86.3714 69.3268 86.6947 69.6999 87.1078 69.6999H94.1303C94.4356 69.6999 94.705 69.4867 94.7769 69.1847L97.3991 56.7123H100.129C106.936 56.7123 109.019 53.9051 110.313 47.9176L111.067 44.4175ZM102.913 42.8185L101.889 47.74C101.512 49.5344 100.973 50.174 99.6441 50.174H98.8359L100.919 40.3667H101.674C102.859 40.3844 103.29 40.9708 102.913 42.8185ZM123.388 33.5975L115.79 69.2025C115.719 69.5045 115.449 69.7177 115.144 69.7177H108.175C107.762 69.7177 107.439 69.3446 107.529 68.936L115.126 33.3132C115.198 33.0111 115.467 32.7979 115.773 32.7979H122.741C123.154 32.7979 123.46 33.1888 123.388 33.5975ZM164.481 42.0012L154.1 69.6466C151.909 75.4209 150.023 78.6545 142.462 78.6545C141.168 78.6545 140.199 78.5834 139.354 78.4946C138.977 78.4413 138.708 78.086 138.798 77.7128L139.929 72.134C140.001 71.8142 140.306 71.5832 140.63 71.6188C140.917 71.6543 141.186 71.6721 141.492 71.6721C142.893 71.6721 143.737 71.299 143.952 70.6061L144.114 41.7703C144.114 41.4149 144.401 41.1307 144.779 41.1307H152.124C152.519 41.1307 152.825 41.4682 152.771 41.8413C152.16 47.6689 151.047 57.2986 150.49 61.0652H150.921C151.963 57.0143 153.992 48.8593 155.986 41.6104C156.058 41.3261 156.327 41.1307 156.614 41.1307H163.852C164.319 41.1307 164.643 41.5748 164.481 42.0012ZM141.564 49.7654C143.126 42.552 139.265 40.7042 133.302 40.7042C127.519 40.7042 124.627 42.6053 123.28 48.8771L123.226 49.108C123.136 49.5167 123.46 49.8898 123.873 49.8898H130.267C130.572 49.8898 130.841 49.6766 130.913 49.3923L131.111 48.5217C131.488 46.8872 131.919 46.4607 132.727 46.4607C133.589 46.4607 133.859 46.9405 133.481 48.7349L132.889 51.5421C124.627 52.0751 121.358 54.1894 119.975 60.7099C118.628 66.9638 120.352 70.1974 124.268 70.1974C126.243 70.1974 127.968 69.6111 129.62 67.6567C129.548 68.1187 129.476 68.5629 129.422 68.9893C129.369 69.3801 129.674 69.7177 130.069 69.7177H136.876C137.199 69.7177 137.469 69.4867 137.523 69.1847C137.81 67.4968 138.6 63.3749 138.941 61.9891L141.564 49.7654ZM130.734 61.7048C130.518 62.6109 130.141 63.446 129.117 63.446C128.255 63.446 127.878 62.6998 128.255 60.7454C128.848 57.725 129.656 57.2986 131.685 56.9788L130.734 61.7048ZM46.4455 18.6199C46.4455 23.4703 42.4763 27.3968 37.5731 27.3968C32.6699 27.3968 28.7007 23.4703 28.7007 18.6199C28.7007 13.7695 32.6699 9.84302 37.5731 9.84302C42.4763 9.84302 46.4455 13.7695 46.4455 18.6199Z" fill="#F5D42F"/>
<path opacity="0.63" d="M30.8382 22.3863C30.1916 21.2669 29.8324 19.9877 29.8324 18.6197C29.8324 14.3911 33.3167 10.9443 37.5912 10.9443C38.9742 10.9443 40.2853 11.3174 41.3988 11.9393C40.7882 11.8149 40.1416 11.7261 39.495 11.7261C34.5919 11.7261 30.6226 15.6526 30.6226 20.503C30.6406 21.1603 30.7124 21.7822 30.8382 22.3863ZM49.93 50.5291L48.0083 59.5903C47.3078 62.8772 47.4515 65.2224 48.4034 66.7149C48.134 65.1514 48.2777 63.2681 48.7267 61.1538L50.6484 52.0926C51.9955 45.9453 54.7254 42.4985 61.5863 42.4985C62.7896 42.4985 63.8493 42.6051 64.7653 42.7827C63.5979 42.1254 61.9635 41.7878 59.7723 41.7878C54.0609 41.8056 51.295 44.2574 49.93 50.5291ZM95.1722 35.4983C94.9387 35.4983 94.7232 35.6582 94.6872 35.8892L87.6827 68.6159H88.7603L95.5853 36.7242C95.6571 36.4222 95.9265 36.209 96.2318 36.209H105.032C106.092 36.209 107.026 36.2978 107.87 36.4755C106.721 35.8359 105.176 35.5161 103.218 35.5161H95.1722V35.4983ZM116.383 33.8993C116.24 33.8993 116.114 34.0059 116.078 34.1302L108.714 68.5982H109.792L116.94 35.1074C117.012 34.8054 117.281 34.6632 117.587 34.5922L122.185 33.8815H116.383V33.8993ZM134.667 48.2372C134.631 48.4682 134.595 48.6991 134.541 48.9301L133.949 51.7373C133.841 52.217 133.428 52.5723 132.943 52.6079C124.968 53.1231 122.31 54.9887 121.035 60.9051C120.353 64.1209 120.496 66.5194 121.448 67.8342C121.215 66.4128 121.304 64.6184 121.771 62.4686C123.172 55.9481 126.441 53.8338 134.685 53.3008L135.278 50.4936C135.637 48.8058 135.421 48.2905 134.667 48.2372ZM124.43 48.788H125.597C127.106 44.0264 129.961 42.5162 135.116 42.5162C136.445 42.5162 137.666 42.6051 138.744 42.836C137.541 42.1609 135.727 41.8233 133.302 41.8233C127.896 41.8056 125.615 43.5645 124.43 48.788ZM145.497 42.232C145.353 42.232 145.228 42.3386 145.228 42.4985L145.066 70.6236C145.066 70.7302 145.048 70.8368 145.012 70.9434C144.797 71.6363 144.06 72.7734 141.492 72.7734C141.294 72.7734 141.115 72.7734 140.935 72.7556L139.965 77.4816C140.307 77.5172 140.648 77.5349 141.007 77.5527L141.743 73.9282C141.761 73.8039 141.887 73.715 142.031 73.715C143.881 73.6973 145.784 72.3825 145.784 71.05L145.928 43.529C145.928 43.2092 146.18 42.9249 146.503 42.8893L151.622 42.2497H145.497V42.232ZM61.9096 24.4295L30.8022 36.3866L29.6707 37.8968C29.5091 38.11 29.7426 38.4121 29.994 38.3055L58.5869 27.3077L61.9096 24.4295ZM26.1685 70.5348L27.6771 68.0118L28.0184 51.0977L26.6175 48.7347L26.1685 70.5348ZM69.1117 66.9103C68.9321 65.6844 69.0758 64.3696 69.3092 63.1259L69.3631 62.8594C69.417 62.5574 69.6864 62.3442 70.0097 62.3442H73.6377C73.6556 62.2553 73.6736 62.1487 73.6916 62.0599L73.7814 61.6335H68.5549C68.1059 63.9787 68.2855 65.7199 69.1117 66.9103ZM78.6127 38.2166L77.7865 41.7878C74.4459 42.3386 72.0751 44.4351 71.3567 48.0062C70.9257 50.1738 71.0155 51.7195 71.9135 53.2475C71.7339 52.1637 71.8057 50.9911 72.0931 49.5875C72.7936 46.1229 75.0745 43.4579 78.8103 42.6228C78.8821 42.1964 79.4928 39.1761 79.4928 39.1761C79.5646 38.874 79.834 38.7319 80.1393 38.6608L82.546 37.8613L78.936 37.9501C78.7744 37.9857 78.6486 38.0745 78.6127 38.2166ZM72.2188 72.88H73.2964L73.7634 70.819C73.4222 70.748 73.0809 70.6769 72.7397 70.5881L72.2188 72.88Z" fill="white"/>
</svg>
