<svg width="156" height="39" viewBox="0 0 156 39" fill="none" xmlns="http://www.w3.org/2000/svg">
<g clip-path="url(#clip0_468_539)">
<path d="M3.20202 0H17.6711C17.2386 0.374455 16.8469 0.79211 16.5025 1.24621C16.07 1.81912 15.4614 2.23762 15.0462 2.82134C14.653 3.36955 14.0868 3.76797 13.6937 4.31463C13.2549 4.93233 12.6116 5.36163 12.1728 5.9747C11.7859 6.44598 11.3654 6.88977 10.9147 7.30275C8.26776 7.29503 5.62244 7.31819 2.97554 7.2904C2.39565 7.02697 1.84491 6.70561 1.33205 6.33142C0.947645 5.89672 0.619591 5.41692 0.355387 4.90299L0.300341 4.2683C0.128893 3.88281 0.117047 3.44691 0.267314 3.05298C0.333369 2.83215 0.39785 2.60824 0.470195 2.38895C0.479632 2.30556 0.50165 2.14033 0.514232 2.05848C1.01568 1.25459 1.74394 0.610859 2.61067 0.205385C2.80726 0.138982 3.00228 0.0710354 3.20202 0Z" fill="black"/>
<path d="M21.9537 0H23.3927C23.6224 0.108097 23.8646 0.205385 24.091 0.30885L24.4166 0.344367C25.0716 0.700988 25.5951 1.25174 25.9122 1.91796C25.9972 2.0801 26.0805 2.24379 26.167 2.4044L26.2551 2.71324C26.4368 3.38257 26.4368 4.08696 26.2551 4.75629L26.1812 5.06514C25.6214 5.946 24.9325 6.74108 24.1366 7.42475C23.0452 8.88252 21.5023 9.94033 20.4014 11.3888C19.571 12.2876 18.6337 13.0875 17.8049 13.9878C16.9226 15.1537 15.743 16.0571 14.7632 17.1396C14.0174 18.0313 13.2086 18.8703 12.3428 19.6506V20.0752H20.9629C21.51 20.0333 22.0603 20.0692 22.5969 20.1818C22.8769 20.2358 23.16 20.2868 23.4384 20.3563L23.7529 20.4289C24.3436 20.8042 24.8661 21.274 25.2989 21.8187C25.5033 22.1476 25.6653 22.4982 25.8556 22.8348C25.9265 23.5596 25.8926 24.2906 25.755 25.006L25.6811 25.3149C25.3225 26.0976 24.6936 26.7305 23.9055 27.1016C23.7403 27.185 23.5736 27.2668 23.41 27.3517L23.0955 27.4382C22.5032 27.5595 21.8962 27.5964 21.2932 27.5479H3.54655C3.27998 27.55 3.0147 27.5114 2.76019 27.4336L2.44564 27.3486L2.09964 27.1788C1.25353 26.8191 0.578694 26.1565 0.212374 25.3257C0.14632 25.128 0.0771202 24.9319 0.00634766 24.7389V23.0201C0.0834111 22.841 0.16362 22.6618 0.224956 22.4812C0.523774 21.5732 1.41079 21.0913 1.93136 20.3285C2.46137 19.6336 3.21156 19.1302 3.72427 18.4213C4.26214 17.6847 5.04535 17.1674 5.58322 16.4293C6.173 15.6324 7.02384 15.0688 7.61204 14.2673C8.14991 13.5307 8.93312 13.0134 9.471 12.2752C10.0608 11.4784 10.91 10.9147 11.4998 10.1133C12.0377 9.37668 12.8209 8.85935 13.3588 8.1212C13.8966 7.38305 14.6799 6.86727 15.2177 6.12912C15.8059 5.33229 16.6568 4.76864 17.2465 3.96718C17.7844 3.23057 18.5676 2.71324 19.1055 1.97509C19.5928 1.34199 20.1895 0.797863 20.8685 0.367531C21.0415 0.322748 21.2129 0.274876 21.3859 0.227005L21.9537 0Z" fill="black"/>
<path d="M38.417 0H38.4909L38.5617 0.109642C39.4628 0.253257 40.3797 0.10192 41.2856 0.19612C41.6898 0.332013 42.1192 0.350544 42.5312 0.441655C42.808 0.491071 43.088 0.53431 43.3632 0.59608C43.5315 0.664027 43.6998 0.731974 43.868 0.803009L44.1826 0.869412L44.6937 1.0609L45.2096 1.21532C45.2976 1.25702 45.4754 1.34041 45.565 1.37901C46.5605 1.849 47.4589 2.49557 48.215 3.28616C48.8724 3.88068 49.3911 4.60761 49.7358 5.41722C49.8161 5.57165 49.8931 5.7338 49.9781 5.89131L50.1731 6.23876C50.1951 6.39319 50.2171 6.54761 50.2423 6.70204C50.3193 6.97383 50.3712 7.25488 50.4279 7.5313C50.501 7.78243 50.5385 8.04224 50.5395 8.30342C50.5269 12.0096 50.5395 15.7158 50.5395 19.422C50.5395 20.1555 50.5631 20.8906 50.5096 21.6241C50.3919 22.075 50.3171 22.5356 50.2863 23L50.0583 23.4957L50.019 23.8262C49.4682 24.8311 48.6272 25.6537 47.6017 26.1905L47.2415 26.3449C47.0669 26.3989 46.8955 26.4561 46.7225 26.5163L46.4206 26.6182C46.1422 26.6831 45.8607 26.7309 45.5807 26.7865C45.084 26.889 44.5767 26.9335 44.0693 26.9193C43.9323 27.0018 43.7754 27.0468 43.6148 27.0498C43.4542 27.0527 43.2957 27.0136 43.1556 26.9363L42.7656 26.8746C42.7656 25.7442 42.7797 24.6138 42.753 23.4772C42.2141 24.1839 41.6028 24.8343 40.9286 25.4183C40.2695 25.9109 39.5569 26.3304 38.8039 26.6692L38.45 26.8668L38.115 26.9039L37.6196 27.1772C37.3805 27.2236 37.1478 27.2699 36.9056 27.3317L36.4526 27.4367C35.9166 27.5566 35.365 27.5956 34.817 27.5525C34.2708 27.5931 33.7214 27.5556 33.1861 27.4413C32.9061 27.3903 32.6246 27.344 32.3478 27.2869C32.1213 27.2251 31.8949 27.1695 31.6716 27.1L31.357 27.029C31.1305 26.9096 30.903 26.7922 30.6744 26.6769L30.3253 26.5225C28.8649 25.8285 27.7136 24.6338 27.0886 23.1637C26.9723 22.9362 26.8532 22.7113 26.7316 22.4889L26.6593 22.18C26.5885 21.9592 26.5272 21.7368 26.4643 21.5145C26.415 21.1032 26.333 20.6963 26.2189 20.2976C26.2032 19.9888 26.2016 19.6799 26.2189 19.3711C26.4517 18.8862 26.3117 18.3287 26.4627 17.8268C26.5272 17.606 26.5901 17.3836 26.6593 17.1643L26.7489 16.8632L26.9204 16.3443C27.0022 16.1899 27.0776 16.0262 27.1657 15.8656C27.4076 15.3113 27.7251 14.7918 28.1093 14.3214C29.0577 13.236 30.2251 12.3557 31.5379 11.7363L32.0238 11.4954C32.2016 11.4413 32.3777 11.3842 32.5523 11.324L32.8668 11.2483C33.0351 11.1834 33.2065 11.1217 33.3795 11.063C33.5525 11.0043 33.7177 10.9549 33.8875 10.9086C34.0574 10.8622 34.2209 10.7881 34.3892 10.7279C34.7384 10.6538 35.0954 10.5997 35.4429 10.504L36.0594 10.416C36.4981 10.3031 36.9508 10.2511 37.4041 10.2615C37.7119 10.1449 38.0424 10.0974 38.3714 10.1226C39.8922 10.1364 41.4146 10.1226 42.9323 10.1226C42.9775 9.63867 42.9344 9.15075 42.8049 8.68177L42.7341 8.21849L42.5469 7.86949C42.1253 6.97253 41.3969 6.24906 40.4883 5.82491L40.1627 5.76777C39.9378 5.69828 39.7098 5.63496 39.4849 5.57011C38.3675 5.44554 37.2407 5.42382 36.1192 5.50525C35.712 5.60954 35.2987 5.68896 34.8815 5.74306C34.6582 5.79711 34.4348 5.85116 34.2147 5.91138C34.0438 5.97418 33.8749 6.03904 33.7082 6.10596L33.3937 6.17545C33.2223 6.24031 33.054 6.30517 32.8826 6.36694C32.7111 6.42871 32.535 6.46577 32.3588 6.51364L31.8713 6.76072C31.6448 6.86985 31.4189 6.98155 31.1935 7.09582L30.6634 7.34136C30.1716 7.59081 29.6952 7.86875 29.237 8.17371C29.1774 7.23339 29.2217 6.2895 29.3691 5.35854C29.3773 4.96945 29.43 4.58249 29.5264 4.20499L29.6003 3.89614C30.0889 2.94629 30.8811 2.17984 31.8556 1.71412C32.0349 1.5983 32.211 1.4763 32.384 1.35431L32.708 1.30798L33.2034 1.03619C33.3811 0.985231 33.5588 0.931182 33.7366 0.874045L34.0432 0.784478C34.2665 0.716531 34.493 0.659394 34.7195 0.600713C34.9963 0.538943 35.2762 0.492615 35.5562 0.446288C35.9742 0.384898 36.3885 0.300866 36.7971 0.194575C37.3271 0.114274 37.9546 0.304217 38.417 0M39.2867 14.9205C38.8416 14.9406 38.3965 14.9298 37.9514 14.9499C37.6164 15.2448 37.1132 14.973 36.7546 15.2247C36.454 15.2526 36.1613 15.3348 35.8912 15.4672L35.4288 15.7174C34.7957 15.983 34.261 16.4331 33.897 17.0068L33.7523 17.5056C33.6556 17.7152 33.6064 17.9429 33.608 18.173C33.6096 18.403 33.6621 18.63 33.7617 18.8383C33.7855 19.0634 33.8352 19.2851 33.9096 19.4992C33.9929 19.7293 34.0841 19.9625 34.1785 20.1833C34.2618 20.3378 34.3357 20.4922 34.4222 20.6466C34.6844 21.1025 35.0763 21.4733 35.5499 21.7137C35.7827 21.7986 36.0217 21.8851 36.2529 21.9638C37.0041 22.097 37.7701 22.1297 38.5302 22.0611L38.796 21.9453C39.0254 21.9224 39.2513 21.8731 39.4691 21.7986C39.7034 21.7168 39.9409 21.6303 40.1706 21.5454C40.6974 21.1886 41.3611 20.9277 41.6363 20.31C41.9482 19.9795 42.2022 19.6007 42.3881 19.1888C42.4809 18.9618 42.5721 18.7348 42.657 18.5032C42.7299 18.2886 42.7794 18.0671 42.8049 17.8422C43.0644 17.4917 42.7844 16.996 43.0864 16.6686C43.1084 16.2239 43.1021 15.7791 43.1021 15.3344C42.9653 15.2031 42.8285 15.0719 42.6948 14.9391C42.5218 14.9391 42.3504 14.9221 42.1789 14.9144L41.9116 14.7769C41.1252 14.7553 40.3388 14.7553 39.5525 14.7769L39.2867 14.9205Z" fill="black"/>
<path d="M58.0289 0.273332C58.9615 0.148436 59.9043 0.112236 60.8441 0.165234V4.32235L60.9432 4.30537C61.5718 3.01621 62.6346 1.97977 63.9518 1.37129L64.3151 1.18753L64.6501 1.15201L65.147 0.853969L65.4742 0.796832C65.7651 0.705721 66.0608 0.633142 66.3533 0.543575L66.8157 0.452465C67.2262 0.347456 67.6571 0.33819 68.0629 0.202296C69.0166 0.115343 69.9776 0.140746 70.9252 0.277965C71.2036 0.330469 71.4851 0.379885 71.7619 0.441655C71.9837 0.494159 72.207 0.546664 72.4287 0.605345L72.9367 0.801465L73.2592 0.861691C73.4877 0.981112 73.7184 1.09848 73.9512 1.21378L74.434 1.46086C74.6117 1.53962 74.791 1.61528 74.9718 1.69713C75.6985 2.13644 76.3829 2.63989 77.0164 3.20123C77.8143 4.06304 78.4967 5.02157 79.0468 6.05345C79.16 6.28097 79.2774 6.50643 79.3991 6.72984L79.4636 7.03869C79.528 7.20701 79.5909 7.37379 79.6523 7.54365L79.8268 8.03936C79.8882 8.25555 79.9416 8.47484 79.9998 8.69257C80.0627 8.96436 80.1099 9.24078 80.165 9.51412C80.252 9.89309 80.3021 10.2794 80.3144 10.6677C80.4636 11.4727 80.5064 12.2933 80.4418 13.1091C80.5086 13.8697 80.4636 14.6358 80.3081 15.3838C80.2798 15.7467 80.2672 16.1127 80.2389 16.4756C80.1068 16.8725 80.0816 17.2925 79.9967 17.6986C79.9417 17.9735 79.8913 18.2499 79.8253 18.5233C79.7985 18.5958 79.7482 18.7456 79.7199 18.8198C79.6303 19.1054 79.5626 19.3942 79.4667 19.6799L79.4069 20.0011L79.1049 20.4891L79.0704 20.8226C78.9776 20.9771 78.8864 21.1469 78.7967 21.3075C78.5436 21.8227 78.2628 22.3243 77.9553 22.8101C76.8726 24.4364 75.3611 25.7439 73.5815 26.5935C73.4164 26.6831 73.2513 26.7726 73.0893 26.8638L72.7512 26.9008L72.2558 27.1741C72.0151 27.222 71.7839 27.2668 71.5417 27.3286L71.0872 27.4336C70.6752 27.5355 70.2442 27.5463 69.84 27.6822C68.9419 27.7677 68.0364 27.7434 67.1444 27.6096C66.8597 27.5525 66.5751 27.5015 66.2983 27.4243L65.8155 27.361L65.3185 27.0645L64.9819 27.0321L64.6249 26.839C63.5675 26.3194 62.6122 25.6198 61.8035 24.7728C61.4619 24.4709 61.1616 24.1268 60.9101 23.749L60.8362 23.7243V32.6902C60.8766 33.2797 60.8439 33.8719 60.7387 34.4537C60.6711 34.6746 60.6097 34.8969 60.539 35.1178L60.4713 35.4266L60.2826 35.7772C59.7076 36.9076 58.7398 37.7988 57.554 38.2896L57.1969 38.475L56.8824 38.5444C56.6559 38.6108 56.4294 38.668 56.203 38.7236C55.8268 38.7936 55.455 38.8848 55.0895 38.9969H52.7194V5.97161C52.6723 5.38129 52.7077 4.78741 52.8247 4.20653C52.8531 4.13395 52.9112 3.98725 52.938 3.91313C52.9914 3.73708 53.0449 3.55949 53.0953 3.3819C53.6895 2.26305 54.6557 1.37753 55.8334 0.8725L56.1904 0.687191L56.5049 0.619244C56.7282 0.549752 56.9548 0.491071 57.1812 0.429301C57.458 0.369075 57.7395 0.322748 58.0195 0.274876M65.8296 5.82182C65.4978 6.11214 65.0071 5.87123 64.6359 6.08125C64.4016 6.1631 64.1641 6.25266 63.9392 6.34532C63.7819 6.42871 63.6246 6.49974 63.4674 6.58468C62.6029 7.17681 61.8862 7.95342 61.3709 8.85627C61.2608 9.14195 61.157 9.43073 61.0328 9.71024L60.9683 10.0376C60.8587 10.2429 60.7979 10.4699 60.7906 10.7016C60.5264 11.0506 60.8111 11.5479 60.5091 11.8753C60.4808 12.5656 60.4997 13.2543 60.4887 13.9446C60.5044 14.1978 60.4351 14.4959 60.6459 14.6982C60.6915 15.0827 60.5704 15.5104 60.7906 15.8563C60.7979 16.088 60.8587 16.3151 60.9683 16.5204L61.0328 16.8478C61.1523 17.1288 61.2593 17.416 61.3788 17.6971C61.4973 17.9143 61.6137 18.1346 61.728 18.358C61.8034 18.5125 61.8852 18.6669 61.9513 18.8213C62.1007 19.0569 62.2729 19.2777 62.4656 19.4807C62.638 19.8399 62.932 20.1292 63.2975 20.2991C63.5445 20.518 63.812 20.7135 64.0964 20.8829C64.3308 20.9663 64.5683 21.0512 64.801 21.1315C65.352 21.2632 65.923 21.2941 66.4854 21.2226C66.7732 20.9694 67.2089 21.1686 67.5109 20.9385L67.8443 20.8752C68.1305 20.7562 68.423 20.6512 68.7093 20.537C68.8665 20.4551 69.0238 20.3825 69.1811 20.3007C70.0062 19.7397 70.6939 19.0054 71.1941 18.1511C71.2744 17.9967 71.3514 17.8422 71.4395 17.6878C71.5559 17.4037 71.6628 17.1165 71.7839 16.8369L71.8484 16.5096C71.9558 16.3034 72.0165 16.0769 72.0262 15.8455C72.2888 15.495 72.0057 14.9993 72.3076 14.6704C72.3312 13.6805 72.3328 12.6891 72.3076 11.6992C72.0529 11.4151 72.24 10.9935 72.0277 10.6908C71.9993 10.4657 71.9466 10.2441 71.8705 10.0299C71.7871 9.7998 71.6975 9.56662 71.6125 9.34116C71.0731 8.60919 70.7019 7.678 69.8495 7.23789C69.6435 7.04738 69.4173 6.87912 69.1748 6.73601C69.0175 6.66034 68.8603 6.58159 68.703 6.49974C68.4152 6.38392 68.1226 6.27891 67.838 6.16155L67.5046 6.09824C67.2026 5.8666 66.7607 6.07353 66.4776 5.80946C66.2778 5.81564 66.0576 5.8141 65.839 5.82027L65.8296 5.82182Z" fill="black"/>
<path d="M86.9289 0.268699C87.4655 0.160037 88.0147 0.123156 88.5614 0.159058C89.0493 0.095586 89.5455 0.167258 89.9941 0.365987L89.7708 0.538943C89.8525 0.645864 89.8967 0.775911 89.8967 0.909563C89.8967 1.04321 89.8525 1.17326 89.7708 1.28018C89.75 1.64022 89.75 2.00112 89.7708 2.36116C89.8405 2.44244 89.8787 2.54525 89.8787 2.65148C89.8787 2.7577 89.8405 2.86051 89.7708 2.94179L89.9737 3.09622L89.6827 3.19505L89.9532 3.37264L89.7048 3.58266L89.9831 3.76179L89.7268 3.83437L89.9234 4.20499L89.8243 4.18183L89.7928 4.27757L89.9249 4.20499L90.0099 4.07218C90.3062 3.54959 90.659 3.05982 91.062 2.61132C91.6009 2.128 92.2146 1.73184 92.8801 1.4377L93.2261 1.28327L93.7168 1.01303L94.0423 0.95589C94.2106 0.892576 94.3836 0.830806 94.5566 0.772124C94.7296 0.713443 94.89 0.651673 95.0583 0.591447C95.3335 0.531222 95.6104 0.486438 95.8903 0.437023C96.1703 0.387607 96.4502 0.321204 96.7317 0.267155C97.2683 0.15463 97.8184 0.117197 98.3657 0.155969C98.8567 0.121261 99.3502 0.158736 99.83 0.267155C100.107 0.31966 100.39 0.365987 100.667 0.430846C100.888 0.48335 101.112 0.537399 101.334 0.594536C101.502 0.657335 101.671 0.722194 101.84 0.789111L102.154 0.863235C102.329 0.923461 102.504 0.980598 102.681 1.03619L103.172 1.26783C103.576 1.47476 103.958 1.71566 104.359 1.93494C105.561 2.70655 106.587 3.71393 107.373 4.89372C107.596 5.28596 107.845 5.66585 108.051 6.06426C108.136 6.22641 108.222 6.38856 108.31 6.54916L108.37 6.86727L108.565 7.37224C108.629 7.54211 108.67 7.70426 108.722 7.87104C108.774 8.03781 108.85 8.19842 108.912 8.36211C108.972 8.63235 109.016 8.90568 109.07 9.17901C109.131 9.59071 109.214 9.99896 109.318 10.4021C109.365 11.0414 109.332 11.6822 109.376 12.32C109.471 12.4829 109.52 12.667 109.52 12.8543C109.52 13.0417 109.471 13.2258 109.376 13.3886C109.407 14.2758 109.355 15.164 109.219 16.0417C109.206 16.4304 109.157 16.817 109.071 17.1968C109.013 17.4716 108.963 17.7511 108.89 18.0245C108.859 18.1789 108.826 18.3333 108.799 18.4785C108.708 18.7626 108.634 19.0529 108.546 19.3386L108.458 19.6475C108.398 19.8204 108.343 19.9965 108.291 20.171L108.016 20.6574L107.975 20.9848L107.783 21.3369C107.555 21.7847 107.283 22.2078 107.033 22.6449C106.561 23.3197 106.031 23.9621 105.496 24.5937C104.877 25.1488 104.211 25.6505 103.504 26.0932C103.269 26.228 103.041 26.3722 102.821 26.5256L102.507 26.5688L102.153 26.7649C101.996 26.8437 101.827 26.9193 101.664 27.0027C101.487 27.0563 101.311 27.1129 101.137 27.1726L100.83 27.2591C100.605 27.327 100.379 27.3872 100.154 27.4521C99.6771 27.4947 99.2039 27.5716 98.7385 27.6822C97.9749 27.7303 97.209 27.7303 96.4455 27.6822C96.0371 27.5777 95.6228 27.4972 95.2046 27.4413L94.9042 27.3332C94.7249 27.2761 94.5472 27.2236 94.3695 27.1788L93.8741 26.907L93.5517 26.8668C93.3755 26.7433 93.2025 26.6228 93.0232 26.5086C92.3446 26.1364 91.7088 25.6938 91.1265 25.1882C90.6308 24.7047 90.1689 24.1888 89.7441 23.644C89.7189 26.6615 89.7441 29.6774 89.7347 32.6964C89.7745 33.3924 89.7455 34.0906 89.6481 34.7811C89.5742 34.9463 89.4909 35.1116 89.4233 35.2768L89.3792 35.6027C89.0704 36.1829 88.6918 36.7247 88.2516 37.2164C87.8521 37.5793 87.3535 37.8187 86.9305 38.1553L86.6049 38.1862L86.1064 38.4873L85.7761 38.5336C85.6047 38.6016 85.4348 38.6695 85.265 38.7344C84.8926 38.8002 84.5248 38.8894 84.1641 39.0015H81.6336V6.47504C81.5861 5.8826 81.6221 5.28656 81.7405 4.70378C81.7956 4.42891 81.8475 4.15094 81.9182 3.87915L81.9969 3.5703C82.3081 2.85122 82.7902 2.2158 83.4029 1.7172C83.8464 1.40835 84.3025 1.13348 84.7538 0.841616L85.1014 0.818452L85.5984 0.520412L86.0812 0.457098C86.358 0.378341 86.6443 0.327381 86.9274 0.271788M94.739 5.82336C94.4528 6.08588 94.0125 5.8805 93.7121 6.11214L93.3802 6.177C93.1616 6.27274 92.9336 6.34068 92.7103 6.4179C91.793 6.91774 91.0392 7.66322 90.5367 8.56749L90.2883 9.03077C90.1923 9.25623 90.0995 9.48323 90.024 9.71796C89.9643 9.88165 89.9092 10.0469 89.8558 10.2121C89.6781 10.521 89.8337 10.9333 89.5884 11.2174C89.494 11.7595 89.7456 12.3972 89.4169 12.8775C89.4044 13.1477 89.4044 13.4195 89.4169 13.6913C89.8164 14.2241 89.3493 14.9746 89.7032 15.5305C89.7151 15.7603 89.7717 15.9857 89.8699 16.1945C89.8951 16.4195 89.9452 16.6412 90.0193 16.8555C90.0989 17.0858 90.1913 17.3116 90.2961 17.5319C90.3842 17.7403 90.4534 17.9581 90.5273 18.1727C90.7148 18.4355 90.8865 18.7088 91.0416 18.9912C91.5821 19.7431 92.2592 20.3906 93.0389 20.9014L93.3724 20.9493C93.5377 21.0242 93.7073 21.0896 93.8804 21.1454C94.4325 21.2768 95.0045 21.3072 95.5679 21.235C95.8573 21.0033 96.2662 21.1408 96.5901 20.9833C96.8237 20.9036 97.0526 20.8113 97.2759 20.7068C97.4331 20.6451 97.6077 20.5926 97.7776 20.5524C98.4066 20.0675 99.2323 19.7494 99.6019 19.0082C99.9189 18.6813 100.17 18.2982 100.341 17.8793L100.524 17.5519C100.616 17.3265 100.708 17.0995 100.792 16.8678C100.865 16.6531 100.915 16.4316 100.942 16.2069C101.154 15.898 100.967 15.4811 101.222 15.1985C101.247 13.9322 101.247 12.6654 101.222 11.3981C100.981 11.1124 101.124 10.7109 100.964 10.3928C100.882 10.1636 100.787 9.93883 100.681 9.7195C100.619 9.5584 100.566 9.39392 100.524 9.22689C100.178 8.68219 99.7846 8.16853 99.3472 7.6919C98.8622 7.26188 98.339 6.87531 97.7838 6.5368C97.614 6.49381 97.4466 6.44227 97.2821 6.38238C97.0592 6.27723 96.8303 6.18493 96.5964 6.10596C96.2725 5.95153 95.8588 6.09052 95.5726 5.84807C95.2926 5.81101 95.0143 5.81101 94.7406 5.82027L94.739 5.82336Z" fill="black"/>
<path d="M122.613 0.64704L122.88 0.508058C123.578 0.480261 124.28 0.49416 124.98 0.508058C125.31 0.776757 125.766 0.6177 126.162 0.676381C126.452 0.928094 126.886 0.73043 127.189 0.958978L127.516 1.02693C127.85 1.17363 128.229 1.18135 128.554 1.36512C128.833 1.47939 129.121 1.58131 129.402 1.6925C129.984 1.99383 130.544 2.33438 131.079 2.7117C131.338 2.96297 131.628 3.18091 131.944 3.36029C132.203 3.55254 132.413 3.80092 132.559 4.08608C133.203 4.76336 133.738 5.53297 134.147 6.36848L134.326 6.69895C134.441 6.97383 134.545 7.25488 134.661 7.52976C134.759 7.75367 134.852 7.97913 134.935 8.21077C135.007 8.4257 135.057 8.64709 135.084 8.87171C135.18 9.08157 135.236 9.30643 135.251 9.53574C135.348 9.74497 135.405 9.97012 135.419 10.1998C135.713 10.5997 135.366 11.1618 135.701 11.5402C135.739 12.3123 135.701 13.0844 135.729 13.8488C135.779 13.8907 135.818 13.9426 135.846 14.001C135.873 14.0594 135.887 14.1228 135.887 14.187C135.887 14.2512 135.873 14.3147 135.846 14.373C135.818 14.4314 135.779 14.4833 135.729 14.5252C135.71 14.9391 135.712 15.3498 135.715 15.7606H118.126C118.111 16.0166 118.155 16.2725 118.255 16.5096C118.308 16.6748 118.365 16.84 118.423 17.0053C118.497 17.2369 118.59 17.4685 118.689 17.6909C118.81 17.9071 118.925 18.1279 119.036 18.3519C119.349 19.0529 119.805 19.6835 120.376 20.205C120.859 20.6371 121.382 21.0243 121.938 21.3616C122.108 21.4064 122.273 21.4589 122.44 21.516C122.663 21.6213 122.891 21.7136 123.125 21.7924C123.448 21.9469 123.857 21.811 124.149 22.0457C125.381 22.0704 126.615 22.0704 127.85 22.0457C128.18 21.7755 128.636 21.9361 129.033 21.8774C129.368 21.584 129.872 21.8588 130.229 21.6025C130.465 21.5934 130.696 21.5338 130.906 21.428L131.237 21.3647C131.456 21.2689 131.684 21.1933 131.912 21.1161C132.15 21.045 132.384 20.9599 132.612 20.8613L132.955 20.696C133.305 20.4898 133.636 20.2531 133.943 19.9888C134.37 19.8944 134.81 19.8663 135.246 19.9054C135.22 20.1036 135.172 20.2984 135.102 20.486L134.933 20.9802C134.856 21.2149 134.762 21.4434 134.668 21.6674C134.271 22.5132 133.745 23.2944 133.107 23.9837C132.653 24.237 132.368 24.7003 131.903 24.9319C131.54 25.2486 131.141 25.5242 130.715 25.7534C130.486 25.8683 130.268 26.0043 130.064 26.1596C129.823 26.2226 129.589 26.3063 129.363 26.4097C129.106 26.5626 128.828 26.6795 128.539 26.7572L128.034 26.9255C127.816 27.0024 127.59 27.0542 127.361 27.0799C127.087 27.2081 126.766 27.188 126.504 27.3425L126.01 27.3934C125.51 27.7563 124.791 27.3039 124.305 27.6868C123.971 27.7023 123.639 27.7023 123.308 27.6868C122.872 27.378 122.284 27.6004 121.787 27.5216C121.498 27.2683 121.068 27.4552 120.76 27.2421C120.53 27.2197 120.303 27.1678 120.087 27.0877L119.582 26.9224C119.345 26.8473 119.113 26.7591 118.887 26.6584C118.605 26.5456 118.319 26.4437 118.041 26.3294L117.569 26.0885C116.655 25.5807 115.807 24.9662 115.043 24.2586C114.566 23.9652 114.145 23.592 113.799 23.156C113.642 22.7869 113.283 22.5538 113.069 22.2202C112.796 21.8171 112.511 21.4203 112.283 20.9941C112.126 20.7115 111.931 20.4443 111.758 20.171C111.648 19.8899 111.549 19.6089 111.434 19.3325C111.329 19.1108 111.239 18.8828 111.163 18.6499C111.104 18.4847 111.048 18.3194 110.995 18.1542C110.913 17.9416 110.86 17.7194 110.838 17.4933C110.739 17.2845 110.683 17.059 110.671 16.8292C110.407 16.4787 110.691 15.983 110.389 15.6556C110.364 14.6086 110.364 13.5626 110.389 12.5177C110.704 12.1888 110.389 11.6792 110.685 11.341C110.723 11.0645 110.663 10.7511 110.842 10.5132L110.908 10.192C110.982 10.0279 111.045 9.85919 111.097 9.68707C111.174 9.46779 111.247 9.24696 111.327 9.02768C111.399 8.79294 111.487 8.56333 111.591 8.34049C111.711 8.12121 111.824 7.89883 111.932 7.67337C112.09 7.39232 112.278 7.12516 112.445 6.8472C112.8 6.26606 113.195 5.70935 113.628 5.18095C114.202 4.52913 114.842 3.93525 115.537 3.40816C116.072 2.9827 116.636 2.59417 117.226 2.24534L117.909 1.92877L118.38 1.67551C118.728 1.54116 119.083 1.41608 119.426 1.2632C119.584 1.19988 119.753 1.13966 119.92 1.08252C120.138 1.00585 120.365 0.954036 120.595 0.928093C120.909 0.71962 121.331 0.901841 121.622 0.654762C121.954 0.639319 122.286 0.63623 122.619 0.622332M122.119 5.72762C121.947 5.78167 121.781 5.84035 121.616 5.89903C121.45 5.95771 121.277 5.99632 121.114 6.05345C120.22 6.53744 119.497 7.27547 119.038 8.17062C118.929 8.39608 118.816 8.61845 118.697 8.83774C118.577 9.05702 118.506 9.28866 118.425 9.52029C118.35 9.73425 118.301 9.95607 118.278 10.1812C118.044 10.5565 118.181 11.0167 118.149 11.4305H128.465C128.465 11.1835 128.455 10.9379 128.444 10.6924C128.103 10.314 128.466 9.74267 128.153 9.35197L128.089 9.02459C127.968 8.74354 127.861 8.45631 127.744 8.17525C127.66 8.02083 127.587 7.8664 127.504 7.71198C127.284 7.38305 127.032 7.07266 126.793 6.76227C126.478 6.52136 126.156 6.28818 125.84 6.05037L125.332 5.90675L124.83 5.73225C124.361 5.61002 123.873 5.57287 123.39 5.62261C122.959 5.57975 122.525 5.6239 122.113 5.75233L122.119 5.72762Z" fill="black"/>
<path d="M144.263 0.677925C144.734 0.656305 145.206 0.660938 145.691 0.662482V4.98638H145.817C145.854 4.88291 145.93 4.67753 145.974 4.5787C146.379 3.85261 146.957 3.23333 147.658 2.77347C147.867 2.58823 148.089 2.41841 148.323 2.26541L148.677 2.12643L149.138 1.867C149.368 1.77158 149.602 1.68858 149.841 1.61837C150.066 1.53807 150.294 1.46395 150.516 1.3682L150.848 1.30489C151.057 1.19807 151.288 1.13846 151.524 1.13039C151.838 0.917284 152.262 1.10414 152.551 0.853969C153.081 0.829261 153.614 0.838527 154.149 0.838527V8.82383L153.701 8.5922L153.238 8.34357C152.968 8.21068 152.675 8.12746 152.375 8.09804C152.161 8.00473 151.932 7.94981 151.699 7.93589C151.398 7.73051 151.024 7.82471 150.687 7.82162C150.398 8.06407 149.986 7.91736 149.663 8.08105C149.427 8.1629 149.192 8.25246 148.968 8.34666L148.627 8.51499C147.802 9.0212 147.12 9.72396 146.645 10.558C146.568 10.7727 146.501 10.9873 146.416 11.1989C146.268 11.4569 146.179 11.7437 146.156 12.039C146.059 12.2482 146.003 12.4734 145.991 12.703C145.736 13.1555 145.916 13.7006 145.85 14.1932C145.631 14.3939 145.705 14.692 145.692 14.9499C145.692 17.5473 145.711 20.1463 145.692 22.7437L145.574 23.0031C145.552 23.2293 145.499 23.4515 145.417 23.6641L145.26 24.1551C144.93 24.6508 144.571 25.128 144.201 25.5944C143.691 25.9963 143.156 26.3671 142.599 26.7047C142.364 26.7912 142.127 26.8792 141.894 26.9549C141.726 27.012 141.556 27.066 141.389 27.117L140.886 27.2869C140.516 27.5046 140.026 27.2622 139.692 27.5479C138.989 27.5756 138.288 27.5571 137.586 27.5633V6.15537C137.541 5.79105 137.581 5.4214 137.703 5.0744C137.755 4.90917 137.811 4.74393 137.87 4.58024C137.946 4.34697 138.034 4.11762 138.134 3.89305C138.217 3.73863 138.291 3.5842 138.377 3.42978C138.796 2.79878 139.357 2.2705 140.016 1.88553C140.244 1.78361 140.472 1.67705 140.7 1.56741L141.032 1.38519C141.302 1.25145 141.594 1.16818 141.894 1.13965C142.209 0.93427 142.633 1.11495 142.921 0.866324C143.352 0.775213 143.877 0.968244 144.263 0.677925Z" fill="black"/>
<path d="M155.788 0.824629L156 0.687191V1.15047L155.789 1.00685L155.788 0.824629Z" fill="black"/>
</g>
<defs>
<clipPath id="clip0_468_539">
<rect width="156" height="39" fill="white"/>
</clipPath>
</defs>
</svg>
